<?xml version="1.0" standalone="no"?>
<!DOCTYPE svg PUBLIC "-//W3C//DTD SVG 1.1//EN" "http://www.w3.org/Graphics/SVG/1.1/DTD/svg11.dtd" >
<svg xmlns="http://www.w3.org/2000/svg">
<metadata>
This is a custom SVG webfont generated by Font Squirrel.
</metadata>
<defs>
<font id="webfontc0P5Kprj" horiz-adv-x="684" >
<font-face units-per-em="1000" ascent="800" descent="-200" />
<missing-glyph horiz-adv-x="275" />
<glyph unicode=" "  horiz-adv-x="275" />
<glyph unicode="&#x09;" horiz-adv-x="275" />
<glyph unicode="&#xa0;" horiz-adv-x="275" />
<glyph unicode="!" horiz-adv-x="339" d="M128 748l163 -35l-21 -499q-1 0 -1 -2l-1 1l-47 -17q27 -9 45 -33.5t18 -52.5q0 -40 -34 -55v-1l-114 -40q-11 -5 -24 -5q-35 0 -61.5 27.5t-26.5 62.5q0 30 21 48q5 4 27 12l53 19l-88 18l-22 511l2 -1l-1 1l112 40v1zM155 284l16 383l-33 7zM178 667l-19 -424l104 -22 l21 484zM277 710l-142 30l3 -59l36 -8zM129 740l-102 -36l104 -22zM22 698l21 -491l107 37l-18 431zM47 201l90 -19l13 5l3 50l-3 1zM177 191l1 -2q-6 -1 -16 -7l34 12q-10 1 -19 -3zM150 179v1l-1 -1h1zM146 173l-9 2l-45 -16q25 -3 45 -21q-1 19 9 35zM161 91 q-4 14 -14 27q4 -14 14 -27zM64 150q-34 -13 -34 -51q0 -20 10 -38l108 38q-8 14 -10 29q-25 25 -56 25q-8 0 -18 -4v1zM44 55q27 -40 68 -40q23 0 38 15.5t15 38.5q0 4 -1 8q-7 8 -13 16zM171 71q2 -25 -15 -43l64 22q-27 2 -49 21zM226 57q23 0 37.5 15t14.5 38 q0 20 -11 38l-107 -38q8 -14 10 -29q24 -24 56 -24zM264 154q-21 31 -53 39l-55 -20v-2l-3 1q-10 -13 -10 -32q0 -4 1 -9q7 -7 12 -15zM210 199l45 16l-96 21l-2 -47q36 12 38 12q8 0 15 -2z" />
<glyph unicode="&#x22;" horiz-adv-x="680" d="M444 508l219 -59l-177 -114l65 -273l-6 -3l-127 153l45 -192l-5 -3l-163 195l-93 -61l1 -3q-43 -18 -94 -44l3 9l-1 1h1l66 238l-175 214l86 39l-2 2l5 -1h1l145 -38l53 183l1 -4l84 38l2 8zM361 464l203 -55l82 38l-202 54zM405 238l-14 58l168 108l-207 56l-29 122 l-11 -40h-1v-1l-86 -38l-1 -3l-49 12l98 -116l-2 -5l-58 -210l74 49q37 15 88 43zM328 242l-36 -17l4 -4zM228 511l75 34l-61 15zM356 469l82 37l-60 261l-51 -172zM374 777l-81 -36l31 -133zM290 725l-46 -158l63 -17l13 45zM236 562l-130 34l62 -75l52 -13zM94 600 l-84 -38l147 -38zM18 553l164 -196l83 38l-101 120zM185 352l-65 -232l84 55l59 212zM202 165l-53 -34l49 22zM208 162l83 55l-4 5l-77 -51zM454 32l-46 191l-33 40q-5 -2 -75 -47zM541 74l-60 255l-82 -37l15 -66zM478 338l135 87l-40 -18l2 -1l-143 -92l47 22zM461 17 l90 40l2 -6l-90 -40z" />
<glyph unicode="#" d="M448 508l219 -59l-177 -114l65 -273l-6 -3l-127 153l45 -192l-5 -3l-163 195l-93 -61l1 -3q-43 -18 -94 -44l3 9l-1 1h1l66 238l-175 214l86 39l-2 2l5 -1h1l145 -38l53 183l1 -4l84 38l2 8zM365 464l203 -55l82 38l-202 54zM409 238l-14 58l168 108l-207 56l-29 122 l-11 -40h-1v-1l-86 -38l-1 -3l-49 12l98 -116l-2 -5l-58 -210l74 49q37 15 88 43zM332 242l-36 -17l4 -4zM232 511l75 34l-61 15zM360 469l82 37l-60 261l-51 -172zM378 777l-81 -36l31 -133zM294 725l-46 -158l63 -17l13 45zM240 562l-130 34l62 -75l52 -13zM98 600 l-84 -38l147 -38zM22 553l164 -196l83 38l-101 120zM189 352l-65 -232l84 55l59 212zM206 165l-53 -34l49 22zM212 162l83 55l-4 5l-77 -51zM458 32l-46 191l-33 40q-5 -2 -75 -47zM545 74l-60 255l-82 -37l15 -66zM482 338l135 87l-40 -18l2 -1l-143 -92l47 22zM465 17 l90 40l2 -6l-90 -40z" />
<glyph unicode="$" horiz-adv-x="479" d="M438 481l-68 -30q68 -42 68 -125v-98q0 -65 -53 -93v0l-63 -28v-52l-2 1v-1l-89 -40v-2l-106 23v69q-49 15 -83 58t-34 94v59h1v1l75 33q-33 16 -54.5 49t-21.5 69v112q0 67 58 94v0l59 27v44l1 -1v1l89 41v1l107 -23v-62q49 -15 82.5 -57.5t33.5 -93.5v-70zM432 551 q0 56 -38 96l-85 -38q39 -41 39 -102l84 -18v62zM348 454v-7l7 4q-4 2 -7 3zM254 600q-7 -2 -7 -19v-11l40 19q-7 14 -25 14q-5 0 -8 -2v-1zM291 516v54q0 6 -2 13l-42 -20v-67zM204 544q3 -8 3 -66l33 15v68zM240 567q0 22 2 28l-63 -28q15 -1 23 -17zM200 470v57 q0 34 -29 34q-15 0 -15 -23v-95l55 25zM213 474l8 -1l19 8v6zM245 476l-13 -6l109 -23v9zM247 482q37 -6 94 -20v40l-46 9l-48 -22v-7zM297 518l44 -10q0 50 -33.5 92t-82.5 55v62h-5v-1l-89 -40v-1q-5 1 -11 1q-14 -23 -14 -54v-112q0 -41 27 -76t66 -43l98 -21v-110 q0 -22 -10 -26l1 -1l-90 -40q-5 -4 -13 -4q-36 0 -36 40v51l-43 9v-36q0 -19 11 -28l25 -20q35 -41 80 -53v-69h3v7h1v1l89 40v1q6 -1 11 -1q15 23 15 55v98q0 44 -26 82.5t-67 47.5l-99 21v103q0 22 13 28v0l87 39q2 5 13 5q35 0 35 -41v-51zM293 101q10 4 22 16v7l-79 -35 q5 -1 10 -1q26 0 47 12v1zM131 46l84 38v59l-84 -38v-59zM156 280v-51q0 -14 6 -22l-1 2l39 17v74zM246 247q-6 9 -6 71l-33 -15v-74zM200 219l-35 -16q8 -7 20 -7q15 0 15 21v2zM207 222q0 -13 -2 -19l64 29q-10 0 -19 10zM276 237q15 0 15 23v102l-67 -30l23 -5v-56 q0 -34 29 -34zM234 323l-20 4l-7 -3v-14zM203 329v0l-97 21q1 -1 97 -21zM200 323q-36 6 -94 20v-47l46 -10l48 21v16zM131 690v-7l78 35l-8 1q-41 0 -70 -29zM315 754l-84 -38v-53l84 38v53zM389 652q-30 32 -70 44l-83 -38q39 -12 68 -44zM311 759l-89 19v-54l7 -2z M215 779l-80 -37l80 -17v54zM131 737v-33q18 9 58 20zM125 694l-25 -11h17q4 5 8 9v2zM15 580v-112q0 -30 15 -57l85 39q-16 28 -16 60v112q0 31 14 55h-3q-42 0 -68.5 -27.5t-26.5 -69.5zM33 406q23 -38 59 -52l7 3v1l114 -24l72 32l-87 19q-50 11 -80 59zM92 347l-74 -33 l81 -17v48q-3 1 -7 2zM15 257q0 -49 33 -91t80 -55l84 37q-41 14 -75 52q-13 11 -25.5 23.5t-12.5 29.5v37l-84 18v-51zM135 41l90 -19v54l-7 2zM231 22l80 36l-80 17v-53zM315 63v41q-44 -22 -68 -22q-8 0 -16 1v-2zM322 113l23 11q-7 -1 -16 0q-3 -5 -7 -9v-2zM432 326 q0 45 -27 82l-85 -38q28 -39 28 -86v-98q0 -32 -14 -56h3q43 0 69 27.5t26 70.5v98zM402 413q-18 23 -39 34l-14 -6l-1 3v-5l-127 27l-59 -27l87 -18q39 -8 67 -46zM363 454l64 29l-79 17v-39q7 -3 15 -7z" />
<glyph unicode="%" d="M448 508l219 -59l-177 -114l65 -273l-6 -3l-127 153l45 -192l-5 -3l-163 195l-93 -61l1 -3q-43 -18 -94 -44l3 9l-1 1h1l66 238l-175 214l86 39l-2 2l5 -1h1l145 -38l53 183l1 -4l84 38l2 8zM365 464l203 -55l82 38l-202 54zM409 238l-14 58l168 108l-207 56l-29 122 l-11 -40h-1v-1l-86 -38l-1 -3l-49 12l98 -116l-2 -5l-58 -210l74 49q37 15 88 43zM332 242l-36 -17l4 -4zM232 511l75 34l-61 15zM360 469l82 37l-60 261l-51 -172zM378 777l-81 -36l31 -133zM294 725l-46 -158l63 -17l13 45zM240 562l-130 34l62 -75l52 -13zM98 600 l-84 -38l147 -38zM22 553l164 -196l83 38l-101 120zM189 352l-65 -232l84 55l59 212zM206 165l-53 -34l49 22zM212 162l83 55l-4 5l-77 -51zM458 32l-46 191l-33 40q-5 -2 -75 -47zM545 74l-60 255l-82 -37l15 -66zM482 338l135 87l-40 -18l2 -1l-143 -92l47 22zM465 17 l90 40l2 -6l-90 -40z" />
<glyph unicode="&#x26;" d="M448 508l219 -59l-177 -114l65 -273l-6 -3l-127 153l45 -192l-5 -3l-163 195l-93 -61l1 -3q-43 -18 -94 -44l3 9l-1 1h1l66 238l-175 214l86 39l-2 2l5 -1h1l145 -38l53 183l1 -4l84 38l2 8zM365 464l203 -55l82 38l-202 54zM409 238l-14 58l168 108l-207 56l-29 122 l-11 -40h-1v-1l-86 -38l-1 -3l-49 12l98 -116l-2 -5l-58 -210l74 49q37 15 88 43zM332 242l-36 -17l4 -4zM232 511l75 34l-61 15zM360 469l82 37l-60 261l-51 -172zM378 777l-81 -36l31 -133zM294 725l-46 -158l63 -17l13 45zM240 562l-130 34l62 -75l52 -13zM98 600 l-84 -38l147 -38zM22 553l164 -196l83 38l-101 120zM189 352l-65 -232l84 55l59 212zM206 165l-53 -34l49 22zM212 162l83 55l-4 5l-77 -51zM458 32l-46 191l-33 40q-5 -2 -75 -47zM545 74l-60 255l-82 -37l15 -66zM482 338l135 87l-40 -18l2 -1l-143 -92l47 22zM465 17 l90 40l2 -6l-90 -40z" />
<glyph unicode="'" d="M448 508l219 -59l-177 -114l65 -273l-6 -3l-127 153l45 -192l-5 -3l-163 195l-93 -61l1 -3q-43 -18 -94 -44l3 9l-1 1h1l66 238l-175 214l86 39l-2 2l5 -1h1l145 -38l53 183l1 -4l84 38l2 8zM365 464l203 -55l82 38l-202 54zM409 238l-14 58l168 108l-207 56l-29 122 l-11 -40h-1v-1l-86 -38l-1 -3l-49 12l98 -116l-2 -5l-58 -210l74 49q37 15 88 43zM332 242l-36 -17l4 -4zM232 511l75 34l-61 15zM360 469l82 37l-60 261l-51 -172zM378 777l-81 -36l31 -133zM294 725l-46 -158l63 -17l13 45zM240 562l-130 34l62 -75l52 -13zM98 600 l-84 -38l147 -38zM22 553l164 -196l83 38l-101 120zM189 352l-65 -232l84 55l59 212zM206 165l-53 -34l49 22zM212 162l83 55l-4 5l-77 -51zM458 32l-46 191l-33 40q-5 -2 -75 -47zM545 74l-60 255l-82 -37l15 -66zM482 338l135 87l-40 -18l2 -1l-143 -92l47 22zM465 17 l90 40l2 -6l-90 -40z" />
<glyph unicode="(" d="M448 508l219 -59l-177 -114l65 -273l-6 -3l-127 153l45 -192l-5 -3l-163 195l-93 -61l1 -3q-43 -18 -94 -44l3 9l-1 1h1l66 238l-175 214l86 39l-2 2l5 -1h1l145 -38l53 183l1 -4l84 38l2 8zM365 464l203 -55l82 38l-202 54zM409 238l-14 58l168 108l-207 56l-29 122 l-11 -40h-1v-1l-86 -38l-1 -3l-49 12l98 -116l-2 -5l-58 -210l74 49q37 15 88 43zM332 242l-36 -17l4 -4zM232 511l75 34l-61 15zM360 469l82 37l-60 261l-51 -172zM378 777l-81 -36l31 -133zM294 725l-46 -158l63 -17l13 45zM240 562l-130 34l62 -75l52 -13zM98 600 l-84 -38l147 -38zM22 553l164 -196l83 38l-101 120zM189 352l-65 -232l84 55l59 212zM206 165l-53 -34l49 22zM212 162l83 55l-4 5l-77 -51zM458 32l-46 191l-33 40q-5 -2 -75 -47zM545 74l-60 255l-82 -37l15 -66zM482 338l135 87l-40 -18l2 -1l-143 -92l47 22zM465 17 l90 40l2 -6l-90 -40z" />
<glyph unicode=")" d="M448 508l219 -59l-177 -114l65 -273l-6 -3l-127 153l45 -192l-5 -3l-163 195l-93 -61l1 -3q-43 -18 -94 -44l3 9l-1 1h1l66 238l-175 214l86 39l-2 2l5 -1h1l145 -38l53 183l1 -4l84 38l2 8zM365 464l203 -55l82 38l-202 54zM409 238l-14 58l168 108l-207 56l-29 122 l-11 -40h-1v-1l-86 -38l-1 -3l-49 12l98 -116l-2 -5l-58 -210l74 49q37 15 88 43zM332 242l-36 -17l4 -4zM232 511l75 34l-61 15zM360 469l82 37l-60 261l-51 -172zM378 777l-81 -36l31 -133zM294 725l-46 -158l63 -17l13 45zM240 562l-130 34l62 -75l52 -13zM98 600 l-84 -38l147 -38zM22 553l164 -196l83 38l-101 120zM189 352l-65 -232l84 55l59 212zM206 165l-53 -34l49 22zM212 162l83 55l-4 5l-77 -51zM458 32l-46 191l-33 40q-5 -2 -75 -47zM545 74l-60 255l-82 -37l15 -66zM482 338l135 87l-40 -18l2 -1l-143 -92l47 22zM465 17 l90 40l2 -6l-90 -40z" />
<glyph unicode="*" d="M448 508l219 -59l-177 -114l65 -273l-6 -3l-127 153l45 -192l-5 -3l-163 195l-93 -61l1 -3q-43 -18 -94 -44l3 9l-1 1h1l66 238l-175 214l86 39l-2 2l5 -1h1l145 -38l53 183l1 -4l84 38l2 8zM365 464l203 -55l82 38l-202 54zM409 238l-14 58l168 108l-207 56l-29 122 l-11 -40h-1v-1l-86 -38l-1 -3l-49 12l98 -116l-2 -5l-58 -210l74 49q37 15 88 43zM332 242l-36 -17l4 -4zM232 511l75 34l-61 15zM360 469l82 37l-60 261l-51 -172zM378 777l-81 -36l31 -133zM294 725l-46 -158l63 -17l13 45zM240 562l-130 34l62 -75l52 -13zM98 600 l-84 -38l147 -38zM22 553l164 -196l83 38l-101 120zM189 352l-65 -232l84 55l59 212zM206 165l-53 -34l49 22zM212 162l83 55l-4 5l-77 -51zM458 32l-46 191l-33 40q-5 -2 -75 -47zM545 74l-60 255l-82 -37l15 -66zM482 338l135 87l-40 -18l2 -1l-143 -92l47 22zM465 17 l90 40l2 -6l-90 -40z" />
<glyph unicode="+" d="M448 508l219 -59l-177 -114l65 -273l-6 -3l-127 153l45 -192l-5 -3l-163 195l-93 -61l1 -3q-43 -18 -94 -44l3 9l-1 1h1l66 238l-175 214l86 39l-2 2l5 -1h1l145 -38l53 183l1 -4l84 38l2 8zM365 464l203 -55l82 38l-202 54zM409 238l-14 58l168 108l-207 56l-29 122 l-11 -40h-1v-1l-86 -38l-1 -3l-49 12l98 -116l-2 -5l-58 -210l74 49q37 15 88 43zM332 242l-36 -17l4 -4zM232 511l75 34l-61 15zM360 469l82 37l-60 261l-51 -172zM378 777l-81 -36l31 -133zM294 725l-46 -158l63 -17l13 45zM240 562l-130 34l62 -75l52 -13zM98 600 l-84 -38l147 -38zM22 553l164 -196l83 38l-101 120zM189 352l-65 -232l84 55l59 212zM206 165l-53 -34l49 22zM212 162l83 55l-4 5l-77 -51zM458 32l-46 191l-33 40q-5 -2 -75 -47zM545 74l-60 255l-82 -37l15 -66zM482 338l135 87l-40 -18l2 -1l-143 -92l47 22zM465 17 l90 40l2 -6l-90 -40z" />
<glyph unicode="," d="M448 508l219 -59l-177 -114l65 -273l-6 -3l-127 153l45 -192l-5 -3l-163 195l-93 -61l1 -3q-43 -18 -94 -44l3 9l-1 1h1l66 238l-175 214l86 39l-2 2l5 -1h1l145 -38l53 183l1 -4l84 38l2 8zM365 464l203 -55l82 38l-202 54zM409 238l-14 58l168 108l-207 56l-29 122 l-11 -40h-1v-1l-86 -38l-1 -3l-49 12l98 -116l-2 -5l-58 -210l74 49q37 15 88 43zM332 242l-36 -17l4 -4zM232 511l75 34l-61 15zM360 469l82 37l-60 261l-51 -172zM378 777l-81 -36l31 -133zM294 725l-46 -158l63 -17l13 45zM240 562l-130 34l62 -75l52 -13zM98 600 l-84 -38l147 -38zM22 553l164 -196l83 38l-101 120zM189 352l-65 -232l84 55l59 212zM206 165l-53 -34l49 22zM212 162l83 55l-4 5l-77 -51zM458 32l-46 191l-33 40q-5 -2 -75 -47zM545 74l-60 255l-82 -37l15 -66zM482 338l135 87l-40 -18l2 -1l-143 -92l47 22zM465 17 l90 40l2 -6l-90 -40z" />
<glyph unicode="-" d="M448 508l219 -59l-177 -114l65 -273l-6 -3l-127 153l45 -192l-5 -3l-163 195l-93 -61l1 -3q-43 -18 -94 -44l3 9l-1 1h1l66 238l-175 214l86 39l-2 2l5 -1h1l145 -38l53 183l1 -4l84 38l2 8zM365 464l203 -55l82 38l-202 54zM409 238l-14 58l168 108l-207 56l-29 122 l-11 -40h-1v-1l-86 -38l-1 -3l-49 12l98 -116l-2 -5l-58 -210l74 49q37 15 88 43zM332 242l-36 -17l4 -4zM232 511l75 34l-61 15zM360 469l82 37l-60 261l-51 -172zM378 777l-81 -36l31 -133zM294 725l-46 -158l63 -17l13 45zM240 562l-130 34l62 -75l52 -13zM98 600 l-84 -38l147 -38zM22 553l164 -196l83 38l-101 120zM189 352l-65 -232l84 55l59 212zM206 165l-53 -34l49 22zM212 162l83 55l-4 5l-77 -51zM458 32l-46 191l-33 40q-5 -2 -75 -47zM545 74l-60 255l-82 -37l15 -66zM482 338l135 87l-40 -18l2 -1l-143 -92l47 22zM465 17 l90 40l2 -6l-90 -40z" />
<glyph unicode="&#x2010;" d="M448 508l219 -59l-177 -114l65 -273l-6 -3l-127 153l45 -192l-5 -3l-163 195l-93 -61l1 -3q-43 -18 -94 -44l3 9l-1 1h1l66 238l-175 214l86 39l-2 2l5 -1h1l145 -38l53 183l1 -4l84 38l2 8zM365 464l203 -55l82 38l-202 54zM409 238l-14 58l168 108l-207 56l-29 122 l-11 -40h-1v-1l-86 -38l-1 -3l-49 12l98 -116l-2 -5l-58 -210l74 49q37 15 88 43zM332 242l-36 -17l4 -4zM232 511l75 34l-61 15zM360 469l82 37l-60 261l-51 -172zM378 777l-81 -36l31 -133zM294 725l-46 -158l63 -17l13 45zM240 562l-130 34l62 -75l52 -13zM98 600 l-84 -38l147 -38zM22 553l164 -196l83 38l-101 120zM189 352l-65 -232l84 55l59 212zM206 165l-53 -34l49 22zM212 162l83 55l-4 5l-77 -51zM458 32l-46 191l-33 40q-5 -2 -75 -47zM545 74l-60 255l-82 -37l15 -66zM482 338l135 87l-40 -18l2 -1l-143 -92l47 22zM465 17 l90 40l2 -6l-90 -40z" />
<glyph unicode="." horiz-adv-x="314" d="M182 220q35 0 62 -28.5t27 -63.5q0 -39 -35 -54l1 -2l-114 -40q-11 -5 -24 -5q-35 0 -62 27.5t-27 62.5q0 31 22 48q6 5 26 12l91 33q28 10 33 10zM250 173q-27 40 -68 40q-10 0 -18 -3l1 -2l-13 -4q-22 -7 -22 -46q0 -3 1 -8q6 -7 12 -15zM134 136q4 -14 14 -27 q-5 14 -14 27zM124 156q-2 24 13 42l-58 -21q24 -3 45 -21zM50 168q-33 -13 -33 -51q0 -20 10 -38l108 38q-8 14 -11 30q-24 25 -55 25q-8 0 -18 -4h-1zM31 74q26 -40 68 -40q23 0 37.5 15t14.5 38v9q-7 7 -13 16zM158 89q2 -25 -15 -43l64 23q-27 2 -49 20zM212 75 q23 0 38 15t15 38q0 20 -11 39l-108 -38q9 -14 11 -30q24 -24 55 -24z" />
<glyph unicode="/" d="M448 508l219 -59l-177 -114l65 -273l-6 -3l-127 153l45 -192l-5 -3l-163 195l-93 -61l1 -3q-43 -18 -94 -44l3 9l-1 1h1l66 238l-175 214l86 39l-2 2l5 -1h1l145 -38l53 183l1 -4l84 38l2 8zM365 464l203 -55l82 38l-202 54zM409 238l-14 58l168 108l-207 56l-29 122 l-11 -40h-1v-1l-86 -38l-1 -3l-49 12l98 -116l-2 -5l-58 -210l74 49q37 15 88 43zM332 242l-36 -17l4 -4zM232 511l75 34l-61 15zM360 469l82 37l-60 261l-51 -172zM378 777l-81 -36l31 -133zM294 725l-46 -158l63 -17l13 45zM240 562l-130 34l62 -75l52 -13zM98 600 l-84 -38l147 -38zM22 553l164 -196l83 38l-101 120zM189 352l-65 -232l84 55l59 212zM206 165l-53 -34l49 22zM212 162l83 55l-4 5l-77 -51zM458 32l-46 191l-33 40q-5 -2 -75 -47zM545 74l-60 255l-82 -37l15 -66zM482 338l135 87l-40 -18l2 -1l-143 -92l47 22zM465 17 l90 40l2 -6l-90 -40z" />
<glyph unicode="0" horiz-adv-x="501" d="M438 656q17 -31 17 -66v-423q0 -69 -60 -95v-2l-113 -40v1q-18 -7 -38 -7q-12 0 -26 3l-82 17q-52 11 -89 55.5t-37 97.5v423q0 80 72 101v0l94 33q31 11 44 11t27 -3l82 -18q70 -15 109 -88zM414 683q-26 36 -76 52q-1 0 -92 20q-14 3 -25 3q-13 0 -24 -3v0 q-36 -12 -52 -35q80 -17 91 -21q47 -16 74 -53zM324 74q14 22 14 53v423q0 51 -35 94.5t-85 53.5l-77 16q-14 -23 -14 -54v-423q0 -41 24 -78q-1 6 -1 12v407q0 27 17 30h-1q38 13 113 41l1 -1q35 2 35 -40v-408q0 -17 -7 -25v-1l-111 -39q-4 -5 -13 -5q-5 0 -12 3 q28 -29 70 -42q13 -2 82 -17zM156 580v-411q0 -8 3 -15l40 14v401q0 11 -4 19l-1 -1l-2 6q-8 9 -21 9q-15 0 -15 -22zM281 641q-14 0 -15 -21l36 12q-8 9 -21 9zM294 177q15 0 15 22v410q0 10 -4 18l-39 -14v-404q0 -32 28 -32zM193 140q6 6 6 20v1l-37 -13q7 -11 22 -11 q7 0 9 3zM205 164q0 -14 -2 -20l80 28q-11 4 -17 13zM205 171l58 20q-3 8 -3 19v401l-59 -21q4 -9 4 -22v-397zM260 618q0 11 3 18l-82 -29q11 -3 17 -12zM154 740l-42 -15q13 0 26 -3q7 10 16 18zM17 197q0 -47 32 -89l104 37q-33 43 -33 92v423q0 32 14 56q-12 2 -24 2 q-42 0 -67.5 -28t-25.5 -70v-423zM53 103q37 -43 84 -53l82 -17q14 -3 26 -3q47 0 75 38q-83 18 -90 20q-43 14 -73 52zM308 46l50 18q-17 -1 -31 3q-8 -12 -19 -21zM448 167v423q0 47 -30 88l-104 -37q31 -43 31 -91v-423q0 -31 -14 -55q12 -2 24 -2q41 0 67 28t26 69z" />
<glyph unicode="1" horiz-adv-x="346" d="M130 750v-1l161 -12v-676l-114 -41v1l-127 27v595l-34 7v59l113 40v1h1zM129 742l-97 -34l97 -8v42zM178 691v-599l106 -23v660zM172 93v597l-14 2l12 -3v-595zM57 56l106 38v587l-106 -38v-587zM120 694l-98 8v-42zM28 655l25 -6l102 36l-25 6zM63 52l109 -23v58l-7 1z M178 27l102 37l-102 21v-58zM274 732l-139 11v-43l40 -3z" />
<glyph unicode="2" horiz-adv-x="514" d="M471 149v-102l-113 -39v-1h-1l-348 74v190q0 71 53 93l-1 1l111 39q13 5 29 7v83l-44 -16v-1l-148 32v122q0 78 72 100l-1 1l114 41v-1q14 4 29 4q12 0 27 -3l83 -17q52 -11 90 -56.5t38 -98.5v-246q0 -65 -54 -84v-1l-107 -38q-17 -6 -31 -6v-34zM128 127l224 -48v24 l-202 43l1 110l111 39v1h3l71 -15q6 15 6 33v246q0 52 -35.5 94.5t-86.5 53.5l-78 17q-14 -23 -14 -53v-117l22 -5q0 56 8 63v1l113 40q3 5 13 5q36 0 36 -41v-234q-1 -1 -2 -1l1 -1l-118 -42q-13 0 -66 14q-7 -19 -7 -42v-185zM262 526v90l-57 -21q3 -8 3 -57zM257 521 l-49 10v-28zM172 611q-15 0 -15 -21v-41l44 -10v38q0 34 -29 34zM202 601l60 22q0 16 3 22l-83 -29q14 -4 20 -15zM269 630v-5l39 14q-8 13 -24 13q-15 0 -15 -22zM208 404v-55l93 34q-34 10 -93 21zM355 109l102 36l-191 41l-102 -36zM262 233v55l-99 -35l87 -19 q5 -1 12 -1zM262 192v34q-5 1 -14 2l-91 19v-93zM358 103v-25l106 -22v85zM269 288v-56q12 0 22 4v0q29 10 43 39zM340 273q-6 -15 -18 -26l56 20q-10 0 -38 6zM454 355v246q0 47 -32 89l-106 -38q33 -43 33 -92v-246q0 -19 -6 -35q28 -6 38 -6q33 0 53 24t20 58zM418 695 q-35 43 -86 54l-83 18q-14 3 -26 3q-49 0 -77 -39q81 -18 91 -21q49 -16 74 -52zM157 753l-49 -18q16 0 31 -3q7 12 18 21zM111 729q-42 0 -68.5 -28t-26.5 -70v-115l105 37v119q0 31 14 54q-13 3 -24 3zM25 512l125 -27v59l-23 4zM157 485l44 16v32l-44 9v-57zM270 518 l-62 -22v-85q13 -1 54 -13q36 -11 51 -10v230q0 9 -2 15l-42 -15v-96q0 -1 1 -4zM201 347v57q-12 0 -23 -4v-1q-25 -7 -40 -39q53 -13 63 -13zM131 362q9 19 20 28l-57 -20q10 -1 37 -8zM90 364q-35 0 -56 -30q-18 -26 -18 -63v-182l105 37v186q0 24 8 44q-29 8 -39 8z M24 85l328 -70v58l-226 48zM358 71v-56l101 35z" />
<glyph unicode="3" horiz-adv-x="509" d="M432 680l21 -44q11 -23 11 -48v-89q0 -68 -55 -94v-1l-34 -13q39 -20 64 -57t25 -80v-89q0 -66 -57 -93v-1l-110 -39q-31 -11 -50 -11q-14 0 -28 3l-81 17q-53 11 -90 55.5t-37 98.5v108l112 40v1l19 -4v92h2l-1 1l58 20v44l-43 -15v-1h-2l-145 31v106q0 72 64 97l-1 1 l105 37q31 11 46 11q12 0 110 -21q58 -13 96 -63h1zM425 677q-38 49 -92 60l-82 17q-14 3 -26 3q-18 0 -35 -6l1 -1q-26 -8 -44 -32q43 -9 95 -22q45 -16 76 -57zM352 394l-27 -9l-6 -6l39 13zM293 369q6 2 16 10l-42 -15l7 -1q10 2 19 6zM345 213q0 41 -25 78v-89 q0 -20 -8 -28v-1l-113 -40q-4 -5 -13 -5q-5 0 -8 1q31 -31 74 -40l79 -17q14 22 14 51v90zM130 236q0 -38 22 -74v104l-22 5v-35zM201 282l-43 -15v-100q0 -10 4 -18l39 14v119zM148 332v-4l7 2zM167 328l-14 -5q18 -3 24 -5q14 -3 21 -10l24 8zM239 353l-60 -21l55 -12 l41 15q-17 12 -36 18zM298 176q15 0 15 24v100q-14 17 -31 31l-36 -13l25 -5v-103q0 -13 4 -21v0q3 -13 23 -13zM166 143q8 -8 20 -8q13 0 15 21zM207 158q0 -10 -2 -16l83 29q-10 3 -15 10zM234 314l-32 -12q3 -5 4 -11l51 18zM264 304l-57 -20v-119l62 22q-5 9 -5 23v94z M313 319q0 13 -4 21l-20 -7q13 -10 24 -23v9zM283 338l22 8q-6 5 -31 10q-9 -2 -19 -2q14 -7 28 -16zM261 369l60 22q24 26 24 67v89q0 42 -26 80q1 -6 1 -11v-128q0 -23 -10 -27v-1l-49 -18v-73zM207 449q0 -13 -2 -20l49 18v18zM261 449l28 10l-28 6v-16zM264 530v88 l-61 -22q4 -9 4 -54zM259 525l-52 11v-30zM130 559l22 -5q0 37 -1 32q2 22 13 27v0l109 39q3 4 13 4q5 0 10 -2q-31 31 -71 40q-2 1 -82 18q-13 -23 -13 -53v-100zM158 585v-32l43 -9v30q0 34 -28 34q-15 0 -15 -23zM200 602l64 23q0 11 3 18l-83 -30q10 -3 16 -11zM276 646 q-5 -5 -5 -19l36 13q-8 10 -21 10q-4 0 -6 -2v-1zM157 738l-45 -16q16 0 28 -3q7 11 17 19zM112 716q-42 0 -68.5 -28t-26.5 -70v-97l106 38v100q0 31 14 54q-13 3 -25 3zM23 516l129 -27v59l-26 5zM158 489l43 15v33l-43 9v-57zM207 499v-43l47 16v1h3q40 -9 42 -9 q14 0 14 23v130q0 10 -3 17l-39 -14v-98h-1zM201 446l-47 -16q30 -7 32 -7q15 0 15 23zM148 424v-85l18 -4l71 25v1h1l16 6v73l-57 -20q-8 -3 -11 -3t-38 7zM142 333l-12 3v-59l24 -5l46 16q-4 19 -21 23l-37 8v14zM123 336l-100 -36l100 -21v57zM17 295v-100q0 -38 22 -73 l106 38q-16 27 -20 54q-2 14 -2 58zM42 116q38 -57 97 -69l81 -17q14 -3 27 -3q24 0 44 10v0q19 5 36 29q-85 18 -101 24q-46 18 -77 64zM319 47l42 15q-13 0 -26 3q-7 -10 -16 -18zM458 165v89q0 34 -17 64l-107 -38q18 -32 18 -67v-90q0 -30 -14 -52q12 -2 22 -2 q42 0 70 27t28 69zM438 324q-27 43 -72 65l-78 -29q16 -4 23 -12h1v-1q8 -13 8 -28v-17q6 -8 11 -16zM458 499v89q0 44 -29 84l-107 -38q30 -41 30 -87v-89q0 -37 -19 -63l16 6l1 1q47 -5 77.5 22.5t30.5 74.5z" />
<glyph unicode="4" horiz-adv-x="549" d="M507 181l-41 -15v-116l-114 -41v1l-127 27v140l-224 47l2 6v1l165 497h1l110 40v1h3l1 -1l183 -40v-431l41 -9v-107zM466 173l30 11l-30 6v-17zM117 264l-102 -36l211 -45l102 36zM231 178v-133l105 38v132zM343 84l5 -1v74l41 15v70l-41 8v432l-85 18l-142 -430l222 -47 v-139zM462 198l38 -9v90l-105 -38v-67l64 23v1h3zM393 247l102 37l-33 7l-102 -37zM354 259l105 38v423l-105 -37v-424zM350 688l102 37l-168 37l-18 -55zM389 165l-29 -10l29 -7v17zM395 167v-19l64 23v19zM276 760l-96 -34l79 -18zM172 720l-161 -486l103 36l143 432z M238 41l110 -23v58l-7 1zM354 74v-57l102 36zM459 59v105l-64 -23v-1l-1 1l-1 -1v1l-39 8v-68zM346 590v-275l-111 -39v-2l-2 1h-1l-83 18l79 257h1l113 41q1 0 1 -1h3zM268 339l72 -15v244zM262 339l75 243l-102 -37v-215zM228 327v200l-70 -224zM161 297l67 -14v37z M235 323v-40l99 35l-70 15z" />
<glyph unicode="5" horiz-adv-x="508" d="M272 541l93 -20q44 -9 71.5 -50.5t27.5 -87.5v-229q0 -74 -66 -99v0l-114 -41v1q-17 -6 -36 -6q-16 0 -108 20q-53 11 -90.5 56t-37.5 99v107h1l111 39v1h2l77 -17v67l-191 41v315h1l111 39v1h2v-1l325 -69v-113l-3 1l-110 -39v-2l-66 14v-27zM426 472q-26 34 -62 42 l-97 21l-101 -36l86 -18q39 -8 68 -47zM330 59q14 23 14 55v229q0 41 -21 76v-233q0 -21 -11 -27v0l-114 -40v0q-5 -2 -10 -2q-6 0 -10 1q27 -28 70 -41q2 0 82 -18zM131 259v-35q0 -39 22 -74v105zM203 270l-44 -16v-98q0 -12 5 -20l39 14v120zM168 130q8 -7 20 -7 q14 0 15 20zM210 145q0 -10 -3 -16l83 29q-10 3 -16 10zM265 292l-55 -20v-120l60 22q-5 9 -5 23v95zM210 279l48 17l-48 10v-27zM206 388l101 35l-181 39l-100 -36zM444 699l-106 -37v-37l106 -23v97zM331 662l-200 43v-238l186 -39q-22 38 -66 47l-98 21l1 104l113 40 l64 -14v36zM265 577v56l-98 -35zM124 468v238l-106 23v-299zM265 542v28l-106 22v-88zM272 575l59 -12v57l-59 12v-57zM338 563l98 34l-98 21v-55zM437 704l-306 65v-57l205 -44zM124 769l-98 -35l98 -21v56zM210 382v-69l62 -13v-103q0 -34 28 -34q16 0 16 23v234zM203 307 l-72 16v-57l26 -6l46 17v30zM124 323l-99 -35l99 -21v56zM18 283v-99q0 -47 33 -89l106 38q-23 30 -29 60q-4 20 -4 67zM55 90q36 -43 86 -54l82 -18q9 -2 26 -2q48 0 77 38q-75 16 -91 21q-48 16 -74 52zM313 32l49 17q-14 0 -29 3q-9 -12 -20 -20zM457 154v229 q0 45 -27 83l-106 -37q27 -40 27 -86v-229q0 -32 -14 -56q12 -3 25 -3q42 0 68.5 28.5t26.5 70.5z" />
<glyph unicode="6" horiz-adv-x="513" d="M229 763q15 0 29 -3l81 -17q52 -11 90 -56.5t38 -98.5v-64h-1l-48 -17q49 -45 49 -111v-229q0 -70 -61 -96v0l-110 -40q-25 -9 -44 -9q-17 0 -109 20q-53 11 -90.5 56t-37.5 98v422q0 73 63 97v1l107 38q25 9 44 9zM418 689q-35 38 -81 48l-81 17q-14 3 -26 3 q-19 0 -36 -7v0q-24 -8 -42 -32q77 -17 87 -20q42 -14 72 -47zM347 549l-25 6l-20 -8l45 -9v11zM354 530v-39l51 18q-18 14 -51 21zM347 355q0 40 -21 75v-231q0 -17 -7 -24v-1q-2 -1 -13 -5l-101 -36q-3 -5 -14 -5q-3 0 -7 1q28 -26 70 -38q1 -1 80 -18q13 23 13 53v229z M177 420q-15 0 -15 -22v-231q0 -7 3 -14l41 15v218q0 34 -29 34zM320 427q0 14 -5 18l-40 -14v-221q0 -29 23 -34q5 -1 7 0l9 3q6 5 6 20v228zM168 147q10 -12 23 -12q15 0 15 22v4zM213 163q0 -14 -2 -21l81 29q-12 4 -17 14zM213 170l59 21q-3 8 -3 19v219l-60 -21 q4 -9 4 -22v-216zM269 436q0 11 2 18l-83 -29q11 -4 17 -12zM311 451q-9 10 -21 10q-4 0 -7 -2v-1h-2q-5 -6 -6 -20zM167 424v0l111 39l12 4h4q-18 14 -40 19l-98 21v79q0 23 13 28v0q118 42 121 42q6 0 8 -1q-28 27 -69 40q-12 2 -81 17q-14 -23 -14 -51v-424q0 -38 22 -73 v232q0 22 11 28zM320 561v56q0 8 -3 15l-42 -15v-64l15 -3zM187 613q13 -3 20 -13l62 22q0 15 3 21zM275 628v-4l38 14q-9 11 -23 11h-5v-1q-10 -3 -10 -20zM162 586v-70l44 16v43q0 33 -29 33q-15 0 -15 -22zM210 594q3 -8 3 -60l56 20v61zM270 548l-57 -21v-4l65 23z M290 543l-70 -25l127 -27v40zM326 560l21 -4q-2 34 -21 64v-60zM162 739l-45 -17q14 0 28 -3q7 11 17 20zM21 618v-422q0 -33 17 -64l107 38q-17 32 -17 67v422q0 31 13 54q-13 3 -25 3q-42 0 -68.5 -28t-26.5 -70zM41 126q37 -63 103 -77l82 -17q14 -3 26 -3q20 0 38 7v0 q22 7 40 32q-86 18 -105 26q-48 20 -77 70zM320 47l45 16q-14 0 -28 3q-7 -10 -17 -19zM461 167v229q0 33 -15 63l-108 -38q16 -31 16 -66v-229q0 -31 -13 -54q12 -2 24 -2q42 0 69 27.5t27 69.5zM442 465q-13 23 -31 39l-57 -20v-1l-148 31v11l-38 -14l88 -19 q49 -11 79 -65zM413 512l41 14l-100 22v-12q38 -8 59 -24zM461 532v56q0 56 -39 96l-106 -38q35 -34 38 -91z" />
<glyph unicode="7" horiz-adv-x="495" d="M464 689l-200 -635l-112 -39v-1h-2h-1l-146 31l164 518l-166 35l-1 125h1v1l111 39v1h3v-1zM124 91l42 -9l178 562l-225 47l1 -47l167 -35zM171 569l102 36l-157 33l-102 -36zM7 715l1 -108l105 37v49zM350 643l-177 -562l86 -19l195 618zM450 685l-331 71v-58l229 -49z M112 756l-100 -35l101 -22zM174 563l-161 -509l104 37l160 509zM19 49l128 -27l17 54l-44 9zM154 23l98 34l-81 17z" />
<glyph unicode="8" horiz-adv-x="513" d="M231 745q13 0 108 -20q53 -11 90.5 -55t37.5 -98v-107q-6 -37 -33 -60.5t-64 -24.5q42 -19 69.5 -57.5t27.5 -83.5v-89q0 -34 -21.5 -62.5t-54.5 -38.5v0l-114 -41v1q-14 -4 -29 -4q-13 0 -27 3l-81 17q-52 11 -89.5 56t-37.5 98v107q5 37 31.5 60.5t63.5 25.5 q-42 18 -68.5 56.5t-26.5 83.5v88q0 33 19.5 60.5t50.5 38.5v1l114 40q16 5 34 5zM440 643q-37 62 -102 76l-81 17q-14 3 -26 3q-47 0 -77 -38q84 -18 103 -26q48 -20 77 -70zM348 425v107q0 52 -36 94t-87 53l-76 16q-17 -25 -17 -55v-88q0 -40 22 -75v75q0 23 11 28v0 l114 40q4 2 9 2q35 0 35 -40v-102q0 -22 -11 -26l1 -1l-95 -34q10 -4 20 -7l-1 -5l1 -1q-1 0 -1 -1h-1l-79 -28q-25 -25 -25 -51v-107q0 -51 36 -94t86 -54l76 -16q18 24 18 55v89q0 42 -25 78v-85q0 -19 -9 -26l-12 -4l-100 -36q-4 -4 -14 -4q-34 0 -34 40v103q0 24 17 30 l95 34q-14 7 -28 11l1 6q-1 1 0 1l86 30q23 25 23 48zM312 366l-55 -20q35 2 55 20zM281 327q10 -7 18 -14l12 4q-8 12 -23 12q-5 0 -7 -2zM309 170q7 4 7 20v96q-8 11 -18 20l-25 -9v-96q0 -32 27 -33l8 3zM194 131l4 1q5 5 5 18l-35 -13q8 -9 20 -9q4 0 7 2zM170 288 q-9 -5 -9 -21v-106q0 -10 4 -18l38 14v98q0 34 -28 34q-2 0 -5 -1zM277 322q-4 -6 -4 -15v-3l19 7q-7 6 -15 11zM267 302q0 14 3 21l-84 -29q12 -4 18 -15zM267 295l-60 -22q3 -8 3 -18v-96l61 21q-4 9 -4 22v93zM210 152q0 -10 -2 -17l80 29q-9 3 -14 11zM305 308 q6 -6 11 -12q0 9 -3 15zM172 390l43 15q-24 -3 -43 -15zM175 576q-14 0 -14 -24v-84q8 -12 21 -24l21 8v90q0 34 -28 34zM316 478v105q0 8 -2 15l-41 -15v-93q0 -33 28 -33q15 0 15 21zM207 560q3 -8 3 -18v-88l59 21q-2 7 -2 15v91zM273 590l38 14q-8 12 -23 12t-15 -22v-4 zM267 588q0 15 3 22l-84 -29q13 -4 19 -15zM202 428q1 5 1 11v6l-16 -6zM175 442q-7 7 -14 15v-8q0 -6 1 -12zM181 437l-16 -6q7 -14 23 -14q8 0 12 6q-10 6 -19 14zM208 425l2 -1l80 28q-13 4 -19 17l-61 -22q0 -16 -2 -22zM147 702q8 12 19 20l-47 -17q13 0 28 -3zM20 600 v-88q0 -39 21 -73l106 37q-21 36 -21 76v88q0 31 17 56q-13 3 -25 3q-41 0 -69.5 -29t-28.5 -70zM45 433q30 -45 79 -61l30 11q26 26 66 29l-10 5l-11 -4q-5 -3 -11 -3q-34 0 -34 56l-3 5zM125 365q-36 3 -64.5 -15t-38.5 -52l106 37q4 22 17 38l-20 -7v-1zM20 286v-107 q0 -44 28 -83l106 37q-28 41 -28 86v109l-105 -37zM52 90q37 -48 89 -59l81 -17q14 -3 26 -3q46 0 78 38q-80 17 -94 22q-44 16 -74 57zM333 48q-8 -11 -19 -20l46 17q-13 0 -27 3zM460 150v89q0 38 -21 72l-106 -38q21 -35 21 -74v-89q0 -31 -17 -57q12 -2 23 -2 q41 0 70.5 29t29.5 70zM435 317q-32 46 -83 63l-24 -9q-28 -30 -71 -31q8 -4 17 -9q11 4 14 4q35 0 35 -47q4 -5 6 -9zM365 386q55 0 82 45l-103 -37q-3 -7 -8 -13l17 6q6 -1 12 -1zM460 465v107q0 34 -17 65l-106 -38q17 -32 17 -67v-105q0 -9 -6 -25l104 37q8 17 8 26z " />
<glyph unicode="9" horiz-adv-x="514" d="M230 753q14 0 28 -3l81 -17q53 -11 90.5 -56.5t37.5 -99.5v-425q0 -80 -72 -101l1 -1l-114 -41l-1 1q-14 -4 -30 -4q-14 0 -109 20q-54 11 -91 56t-37 100v65l2 -1v1l48 17q-50 46 -50 112v231q0 76 67 100v0l114 41v-1q16 6 35 6zM430 665q-37 49 -92 61l-82 18 q-14 3 -26 3q-50 0 -78 -39q80 -18 90 -21q36 -12 72 -50q2 -3 8 -10zM333 57q14 23 14 52v427q0 39 -21 73v-234q0 -21 -11 -27v0h-1l-3 -1q-126 -42 -121 -42h-2q18 -14 40 -19l98 -21v-80q0 -25 -18 -31l-106 -37q-5 -2 -12 -4q-3 0 -7 1q27 -27 69 -40q2 -1 81 -17z M135 221l24 -5l23 8l-47 10v-13zM128 242v38l-51 -18q18 -13 51 -20zM304 161q16 0 16 22v74l-44 -16v-45q0 -35 28 -35zM199 122v1q6 5 7 18l-36 -13q6 -8 20 -8q5 0 9 2zM162 210v-57q0 -11 4 -19l40 14v71l-12 3zM212 143q0 -10 -2 -17l83 30q-10 3 -16 10zM274 172 q-5 10 -5 67l-57 -20v-69zM210 225l59 21v2l-63 -22zM194 228l67 24l-126 27v-38zM155 210l-20 4q2 -34 20 -65v61zM135 417q0 -39 20 -74v231q0 22 12 29v0l114 41v-1q4 3 10 3q3 0 7 -1q-28 27 -69 40q-2 0 -81 17q-13 -23 -13 -54v-231zM304 352q16 0 16 22v231 q0 10 -3 17l-41 -14v-222q0 -34 28 -34zM212 339q0 -14 -3 -21l85 29q-13 4 -19 14zM164 331l1 -2l41 15v219q0 35 -29 35q-15 0 -15 -22v-232q0 -7 2 -13zM313 628q-9 11 -22 11q-15 0 -15 -24zM269 612q0 15 3 22l-85 -31q12 -3 19 -13zM209 584q3 -9 3 -21v-217l60 21 q-3 9 -3 19v219zM169 324q10 -12 21 -12q16 0 16 22v3zM164 730l-49 -18q15 1 30 -3q8 12 19 21zM21 607v-231q0 -40 22 -75l107 38q-22 36 -22 78v231q0 31 14 55q-14 3 -26 3q-43 0 -69 -28t-26 -71zM46 295q11 -16 25 -28l57 20q1 1 2 1v-1l146 -31v-8l36 13l-85 19 q-36 8 -53 29q-6 4 -20 24zM70 259l-43 -15l101 -21v13q-38 8 -58 23zM21 182q0 -57 37 -96l107 38q-34 37 -37 92l-107 23v-57zM62 80q35 -38 82 -48l81 -17q14 -3 26 -3q50 0 78 39q-77 17 -87 20q-43 14 -72 48zM316 28l51 18q-15 0 -31 4q-8 -12 -20 -22zM461 152v425 q0 44 -27 82l-108 -38q27 -40 27 -85v-425q0 -31 -13 -55q13 -3 25 -3q42 0 69 28.5t27 70.5z" />
<glyph unicode=":" d="M448 508l219 -59l-177 -114l65 -273l-6 -3l-127 153l45 -192l-5 -3l-163 195l-93 -61l1 -3q-43 -18 -94 -44l3 9l-1 1h1l66 238l-175 214l86 39l-2 2l5 -1h1l145 -38l53 183l1 -4l84 38l2 8zM365 464l203 -55l82 38l-202 54zM409 238l-14 58l168 108l-207 56l-29 122 l-11 -40h-1v-1l-86 -38l-1 -3l-49 12l98 -116l-2 -5l-58 -210l74 49q37 15 88 43zM332 242l-36 -17l4 -4zM232 511l75 34l-61 15zM360 469l82 37l-60 261l-51 -172zM378 777l-81 -36l31 -133zM294 725l-46 -158l63 -17l13 45zM240 562l-130 34l62 -75l52 -13zM98 600 l-84 -38l147 -38zM22 553l164 -196l83 38l-101 120zM189 352l-65 -232l84 55l59 212zM206 165l-53 -34l49 22zM212 162l83 55l-4 5l-77 -51zM458 32l-46 191l-33 40q-5 -2 -75 -47zM545 74l-60 255l-82 -37l15 -66zM482 338l135 87l-40 -18l2 -1l-143 -92l47 22zM465 17 l90 40l2 -6l-90 -40z" />
<glyph unicode=";" d="M448 508l219 -59l-177 -114l65 -273l-6 -3l-127 153l45 -192l-5 -3l-163 195l-93 -61l1 -3q-43 -18 -94 -44l3 9l-1 1h1l66 238l-175 214l86 39l-2 2l5 -1h1l145 -38l53 183l1 -4l84 38l2 8zM365 464l203 -55l82 38l-202 54zM409 238l-14 58l168 108l-207 56l-29 122 l-11 -40h-1v-1l-86 -38l-1 -3l-49 12l98 -116l-2 -5l-58 -210l74 49q37 15 88 43zM332 242l-36 -17l4 -4zM232 511l75 34l-61 15zM360 469l82 37l-60 261l-51 -172zM378 777l-81 -36l31 -133zM294 725l-46 -158l63 -17l13 45zM240 562l-130 34l62 -75l52 -13zM98 600 l-84 -38l147 -38zM22 553l164 -196l83 38l-101 120zM189 352l-65 -232l84 55l59 212zM206 165l-53 -34l49 22zM212 162l83 55l-4 5l-77 -51zM458 32l-46 191l-33 40q-5 -2 -75 -47zM545 74l-60 255l-82 -37l15 -66zM482 338l135 87l-40 -18l2 -1l-143 -92l47 22zM465 17 l90 40l2 -6l-90 -40z" />
<glyph unicode="&#x3c;" d="M448 508l219 -59l-177 -114l65 -273l-6 -3l-127 153l45 -192l-5 -3l-163 195l-93 -61l1 -3q-43 -18 -94 -44l3 9l-1 1h1l66 238l-175 214l86 39l-2 2l5 -1h1l145 -38l53 183l1 -4l84 38l2 8zM365 464l203 -55l82 38l-202 54zM409 238l-14 58l168 108l-207 56l-29 122 l-11 -40h-1v-1l-86 -38l-1 -3l-49 12l98 -116l-2 -5l-58 -210l74 49q37 15 88 43zM332 242l-36 -17l4 -4zM232 511l75 34l-61 15zM360 469l82 37l-60 261l-51 -172zM378 777l-81 -36l31 -133zM294 725l-46 -158l63 -17l13 45zM240 562l-130 34l62 -75l52 -13zM98 600 l-84 -38l147 -38zM22 553l164 -196l83 38l-101 120zM189 352l-65 -232l84 55l59 212zM206 165l-53 -34l49 22zM212 162l83 55l-4 5l-77 -51zM458 32l-46 191l-33 40q-5 -2 -75 -47zM545 74l-60 255l-82 -37l15 -66zM482 338l135 87l-40 -18l2 -1l-143 -92l47 22zM465 17 l90 40l2 -6l-90 -40z" />
<glyph unicode="=" d="M448 508l219 -59l-177 -114l65 -273l-6 -3l-127 153l45 -192l-5 -3l-163 195l-93 -61l1 -3q-43 -18 -94 -44l3 9l-1 1h1l66 238l-175 214l86 39l-2 2l5 -1h1l145 -38l53 183l1 -4l84 38l2 8zM365 464l203 -55l82 38l-202 54zM409 238l-14 58l168 108l-207 56l-29 122 l-11 -40h-1v-1l-86 -38l-1 -3l-49 12l98 -116l-2 -5l-58 -210l74 49q37 15 88 43zM332 242l-36 -17l4 -4zM232 511l75 34l-61 15zM360 469l82 37l-60 261l-51 -172zM378 777l-81 -36l31 -133zM294 725l-46 -158l63 -17l13 45zM240 562l-130 34l62 -75l52 -13zM98 600 l-84 -38l147 -38zM22 553l164 -196l83 38l-101 120zM189 352l-65 -232l84 55l59 212zM206 165l-53 -34l49 22zM212 162l83 55l-4 5l-77 -51zM458 32l-46 191l-33 40q-5 -2 -75 -47zM545 74l-60 255l-82 -37l15 -66zM482 338l135 87l-40 -18l2 -1l-143 -92l47 22zM465 17 l90 40l2 -6l-90 -40z" />
<glyph unicode="&#x3e;" d="M448 508l219 -59l-177 -114l65 -273l-6 -3l-127 153l45 -192l-5 -3l-163 195l-93 -61l1 -3q-43 -18 -94 -44l3 9l-1 1h1l66 238l-175 214l86 39l-2 2l5 -1h1l145 -38l53 183l1 -4l84 38l2 8zM365 464l203 -55l82 38l-202 54zM409 238l-14 58l168 108l-207 56l-29 122 l-11 -40h-1v-1l-86 -38l-1 -3l-49 12l98 -116l-2 -5l-58 -210l74 49q37 15 88 43zM332 242l-36 -17l4 -4zM232 511l75 34l-61 15zM360 469l82 37l-60 261l-51 -172zM378 777l-81 -36l31 -133zM294 725l-46 -158l63 -17l13 45zM240 562l-130 34l62 -75l52 -13zM98 600 l-84 -38l147 -38zM22 553l164 -196l83 38l-101 120zM189 352l-65 -232l84 55l59 212zM206 165l-53 -34l49 22zM212 162l83 55l-4 5l-77 -51zM458 32l-46 191l-33 40q-5 -2 -75 -47zM545 74l-60 255l-82 -37l15 -66zM482 338l135 87l-40 -18l2 -1l-143 -92l47 22zM465 17 l90 40l2 -6l-90 -40z" />
<glyph unicode="?" horiz-adv-x="469" d="M196 741q12 0 26 -3l81 -17q53 -11 90.5 -56.5t37.5 -99.5v-165q0 -59 -47 -82v-1l-84 -38q0 -48 1 -49l-1 -1v1l-47 -21q52 -26 52 -81q0 -41 -34 -56v-1l-82 -37q-18 -8 -30 -8q-36 0 -63 27.5t-27 63.5q0 39 37 56l57 26l-99 20v83q0 68 56 94l70 32q2 1 5 3v33 l-44 -20v-2l-147 31v121q0 71 59 97v1l81 37q26 12 52 12zM386 663q-35 40 -84 51l-82 18q-14 3 -26 3q-21 0 -39 -8v0q-22 -10 -37 -28q2 0 97 -20q52 -11 88 -53zM212 279v-24l82 -17v38q-15 -6 -31 -6q-10 0 -51 9zM220 284q34 -8 43 -8q17 0 31 7v34zM300 287 q17 11 26 28l-26 5v-33zM329 321q7 16 7 38v165q0 52 -36 95t-87 54l-81 17q-11 2 -18 3q-16 -24 -16 -57v-116l47 -10v42q0 22 12 28l-1 1l85 38q3 5 14 5q17 0 27 -13v1l1 -1q7 -10 7 -28v-158h-1l-87 -39v-2l-33 7q-10 -21 -10 -48v-77l46 -10v27l4 3l85 38v1l3 3z M145 400q10 0 20 -2q5 9 11 16zM202 426v-33l77 34q-37 8 -45 8q-17 0 -31 -7l1 -1zM195 423q-10 -4 -23 -26l23 -5v31zM233 491v91l-36 -16q5 -10 5 -68zM228 486l-26 5v-17zM195 542q0 34 -28 34q-16 0 -16 -24v-43l44 -10v43zM193 571l40 18q0 14 2 20l-62 -27 q12 -1 20 -11zM239 595v-3l37 17q-8 8 -21 8q-4 0 -7 -1v-1q-9 -3 -9 -20zM121 711l-27 -12q8 1 17 1q5 6 10 11zM107 693q-43 1 -70 -27.5t-27 -71.5v-113l82 37v118q0 33 15 57zM17 477l128 -27v54l-48 10zM151 451l44 20v22l-44 9v-51zM202 467v-32q15 7 32 7q9 0 50 -9 v150q0 12 -4 20l-41 -18v-99q0 -1 1 -2l-1 -1v1zM144 394q-34 0 -55 -30q-18 -26 -18 -62v-74l82 37v78q0 28 9 49q-9 2 -18 2zM76 224l97 -21q10 6 32 14v33l-48 10zM212 211v-14l25 11q-11 3 -19 3h-6zM197 207q-6 -3 -13 -6l21 -5v15q-4 -1 -8 -3v-1zM168 194l-38 -17 q14 -1 29 -7q2 14 9 24zM127 170q-23 0 -37 -15t-14 -38q0 -21 10 -39l83 38q-12 21 -12 42l1 5q-16 7 -31 7zM210 87q0 48 -46 73v-2q0 -49 46 -75v4zM89 73q26 -41 70 -41q11 0 20 4v1q26 11 30 39q-22 11 -37 34zM205 48l42 19q-16 0 -31 6q-3 -14 -11 -25zM247 74 q23 0 37 15.5t14 38.5q0 19 -9 36l-83 -38q12 -20 11 -39l-1 -7q16 -6 31 -6zM286 169q-15 25 -41 36l-33 -15v-2l-34 7q-11 -11 -13 -28q23 -11 38 -35zM246 212l43 20l-77 16v-30q16 1 34 -6zM320 295l37 17q-12 -1 -24 1q-5 -10 -13 -18zM425 400v165q0 50 -35 93 l-83 -37q36 -45 36 -97v-165q0 -22 -7 -40q8 -1 16 -1q33 0 53 24t20 58z" />
<glyph unicode="@" d="M448 508l219 -59l-177 -114l65 -273l-6 -3l-127 153l45 -192l-5 -3l-163 195l-93 -61l1 -3q-43 -18 -94 -44l3 9l-1 1h1l66 238l-175 214l86 39l-2 2l5 -1h1l145 -38l53 183l1 -4l84 38l2 8zM365 464l203 -55l82 38l-202 54zM409 238l-14 58l168 108l-207 56l-29 122 l-11 -40h-1v-1l-86 -38l-1 -3l-49 12l98 -116l-2 -5l-58 -210l74 49q37 15 88 43zM332 242l-36 -17l4 -4zM232 511l75 34l-61 15zM360 469l82 37l-60 261l-51 -172zM378 777l-81 -36l31 -133zM294 725l-46 -158l63 -17l13 45zM240 562l-130 34l62 -75l52 -13zM98 600 l-84 -38l147 -38zM22 553l164 -196l83 38l-101 120zM189 352l-65 -232l84 55l59 212zM206 165l-53 -34l49 22zM212 162l83 55l-4 5l-77 -51zM458 32l-46 191l-33 40q-5 -2 -75 -47zM545 74l-60 255l-82 -37l15 -66zM482 338l135 87l-40 -18l2 -1l-143 -92l47 22zM465 17 l90 40l2 -6l-90 -40z" />
<glyph unicode="A" horiz-adv-x="582" d="M424 756l120 -703l-4 1l1 -1l-114 -40l-2 6l105 37l-117 25l12 -69l-144 30l-10 75l-1 -5l-7 1v-1l-112 -40v-2l-141 30l125 651l5 -1l-1 3l114 40l1 -1zM259 784l-11 -57l57 -12l106 37zM281 226l105 -23l-86 506l-53 11l-30 -156l91 45v2l7 -2l28 -277h-2l-92 -48l-1 3 v-3l-63 13l25 228l-73 -379l19 -4l6 42l-1 3l119 42zM378 199l-91 19l-9 -55zM288 350l48 -10l-24 238zM331 335l-48 10l-39 -20l4 -34zM281 351l26 250l-87 -43l23 -226zM241 292l-3 30l-40 -21zM237 329l-20 201l-24 -224zM253 786l-106 -38l95 -20zM140 743l-121 -635 l111 40l110 574zM18 105h1l-1 3v-3zM145 78l10 58l-25 5l-106 -37zM153 80l100 35l-92 20zM264 119l4 21l-3 16l-97 20l-6 -35zM168 183l103 -22l10 61zM287 48l3 -1l-1 2l111 40l-15 105l-108 -38l-3 -18zM417 20l-11 63h-2l-106 -37zM412 88l124 -26l-118 686l-112 -40z " />
<glyph unicode="B" horiz-adv-x="512" d="M127 777l213 -45q52 -11 89.5 -56t37.5 -98v-88q0 -41 -23 -68v-1l-1 -1q-32 -32 -74 -33q43 -19 70.5 -58.5t27.5 -85.5v-88q0 -55 -47 -88q-9 -4 -34 -13l-89 -33q-20 -9 -44 -9q-12 0 -27 3l-216 44v679l3 -1l-1 2l114 40zM130 770v-58l96 -20q57 -12 97 -65l-2 3 l106 39q-33 45 -89 57zM161 424l46 17v116q0 22 -13 30q-6 3 -33 9v-172zM206 434l-37 -14q19 -4 22 -4q14 0 15 18zM162 422l-1 2v-2h1zM168 601q19 -4 23 -6q11 -4 17 -14l59 22v33zM211 575q2 -8 2 -18v-114l54 19v134zM213 436q0 -10 -4 -16l85 32l-23 4zM276 462 q25 -5 28 -5q16 0 16 22v120q0 8 -3 16l-43 -17zM274 605l40 15q-6 9 -40 16v-31zM130 705l1 -601l203 -41q14 22 14 52v88q0 38 -22 72v-82q0 -23 -14 -28l1 -2l-107 -37l-1 2q-3 -5 -14 -5q-4 0 -37 7v188l5 -1l81 29l-3 1l1 7l5 -1v1l82 30q23 26 23 65v88q0 39 -23 76 q1 -7 1 -15v-118q0 -21 -11 -27v0l-112 -42v2q-5 -3 -12 -3q-4 0 -37 7v187l2 -1l111 40v1h3q14 -2 39 -10q-35 41 -84 51zM161 137l46 16v119q0 22 -13 29q-6 4 -33 9v-173zM206 146l-36 -13q18 -4 21 -4q13 0 15 17zM203 302l64 24v8q-8 5 -17 9l-79 -28q12 -2 32 -13z M267 347q-3 0 -9 -1q5 -3 9 -5v6zM267 356zM267 319l-60 -22q6 -10 6 -25v-117l54 19v145zM213 148q-1 -8 -3 -14l86 30l-24 5zM274 176q27 -6 30 -6q16 0 16 23v92q-16 23 -38 39l-8 -3v-145zM274 328l1 1l-1 1v-2zM289 327q17 -13 31 -31v17q0 15 -7 23zM283 332l25 9 q-5 4 -28 9l-6 -2v-11zM273 358l7 -2q18 5 33 17zM123 771l-102 -36l102 -21v57zM17 730v-664l106 38v603zM17 65zM26 62l201 -41q15 -3 26 -3q50 0 77 39l-202 41zM321 36l42 16q-12 1 -26 3q-6 -10 -16 -19zM461 243q0 36 -19 68l2 -4l-106 -38q16 -32 16 -66v-88 q0 -30 -13 -54q13 -2 25 -2q14 0 51 13q2 1 8 6q36 28 36 77v88zM441 313q-31 54 -88 74l-26 -10q-15 -16 -34 -23q25 -6 31 -24q2 -6 2 -43q5 -6 9 -12zM371 394q33 1 56 21zM461 578q0 45 -30 85l-106 -39q29 -41 29 -87v-88q0 -35 -17 -60l14 5h1l2 1l1 -1l84 32 q22 26 22 64v88z" />
<glyph unicode="C" horiz-adv-x="500" d="M461 581v-104h-1v-1l-111 -41l-80 17v-165l45 17l1 -1l146 -31v-115q0 -67 -58 -93v-2l-111 -41q-21 -9 -45 -9q-13 0 -109 20q-53 11 -90.5 55t-37.5 98v424q0 73 59 96l117 45v-1q17 7 37 7q14 0 109 -20q61 -13 95 -62t34 -93zM419 673q-26 36 -77 53q-9 3 -92 21 q-14 3 -27 3q-51 0 -79 -41q84 -17 95 -21q45 -16 76 -56l-1 2zM269 613l36 13q-8 9 -21 9q-15 0 -15 -22zM309 621l-40 -15v-109l44 17v89q0 10 -4 18zM156 731l-47 -18q14 1 28 -2q8 11 19 20zM45 102l105 39q-29 41 -29 87v424q0 30 13 53q-12 2 -23 2q-42 0 -68 -28 t-26 -70v-424q0 -44 28 -83zM49 97q36 -48 91 -59l81 -17q14 -3 26 -3q51 0 79 40q-84 18 -96 22q-43 15 -75 56zM285 162q-11 4 -16 12l-61 -22q0 -13 -2 -19zM269 201q0 -34 28 -34l11 4q5 5 5 19v41l-44 9v-39zM208 159l58 21q-4 9 -4 62l-54 11v-94zM212 259l50 -11v30z M204 581q4 -9 4 -22v-84l54 20v108zM262 488l-48 -18l48 -10v28zM262 610q0 13 3 19l-84 -31q12 -3 19 -11zM202 466v93q0 34 -30 34q-14 0 -14 -22v-414q0 -9 2 -16l42 16v104h2l-1 2l59 22v168zM198 130q4 6 4 17v3l-39 -15q9 -11 23 -11q3 1 12 6zM315 36l48 18 q-14 0 -30 3q-7 -11 -18 -21zM454 157v106l-105 -39v-109q0 -30 -12 -52q11 -2 22 -2q41 0 68 27.5t27 68.5zM320 296v-60l27 -6l102 38zM320 229q0 -58 -9 -65q-4 -1 -12 -4l-97 -36q-5 -6 -16 -6h-6q30 -28 71 -37l79 -17q13 22 13 51v110zM313 297l-44 -17v-33l44 -9v59z M165 599q115 43 119 43q9 0 18 -5q-30 33 -73 47q-4 2 -88 20q-13 -23 -13 -52v-424q0 -40 23 -76v418q0 24 14 28v1zM343 443v59l-27 6l-47 -18v-32zM343 509v30q0 41 -25 78q2 -7 2 -103zM349 442l101 37l-101 22v-59zM454 485v96q0 46 -31 87l-106 -39q22 -29 28 -58 q4 -19 4 -64z" />
<glyph unicode="D" horiz-adv-x="517" d="M433 677q26 -32 33 -53q5 -15 5 -45v-424q0 -55 -38 -84q-9 -7 -43 -19l-113 -40v1q-12 -3 -24 -3q-14 0 -28 3l-215 46v680h3l113 40v1l217 -46q51 -11 90 -57zM437 661q-38 54 -96 66l-208 44v-58l93 -20q62 -13 101 -71zM126 105v603l-109 23v-665zM133 706v-602 l202 -42q13 22 13 50v429q0 33 -19 66q1 -4 1 -8v-406q0 -24 -14 -29v0l-114 -41l-1 2q-4 -3 -9 -3q-4 0 -36 7v476l3 -1l112 40l1 -4v5q12 -2 35 -8q-35 40 -82 50zM272 602v35l-101 -35q19 -4 23 -6q10 -5 15 -16zM272 176v419l-60 -21q1 -7 1 -15v-404zM162 137l45 16 v406q0 21 -13 29q-5 3 -32 9v-460zM206 146l-35 -13q18 -4 21 -4q12 0 14 17zM213 148q0 -9 -3 -15l87 31l-24 5zM279 175q26 -6 29 -6q15 0 15 23v408q0 7 -2 13l-42 -15v-423zM279 605l40 14q-6 11 -40 18v-32zM126 772l-100 -36l100 -22v58zM26 62l201 -43q14 -3 28 -3 q48 0 76 40l-202 43v-1zM338 54q-8 -11 -18 -20l46 16q-13 1 -28 4zM464 155v424q0 40 -23 76l-110 -39q23 -37 23 -77v-425q0 -30 -13 -54q15 -3 28 -3q3 0 10 1t10 1q35 6 55 32.5t20 63.5z" />
<glyph unicode="E" horiz-adv-x="453" d="M404 609l3 -6l-3 -1v-2l-4 1l-106 -38v-3l-26 5v-95l118 -25q0 -7 1 -9h-1v-117l-6 1l-104 -37v-4l-8 1v-72l136 -29v-126h-1v-1l-109 -38v-1h-2l-3 -1v2l-279 59v674l2 -1l109 39v2l3 -1l2 1v-1l278 -59v-118zM159 430l117 -25v-1l103 36l-117 25v1zM267 636l20 -4v49 l-160 34l1 -597l159 -34v46h-1l-1 4l-134 28v150l2 -1v2l114 41l1 -3l1 -1v50l-118 25v172h2l109 39v1h5v-1zM262 629l-97 -35l97 -20v55zM265 202l-100 -36l127 -27l101 36zM398 170l-104 -37v-50l104 -22v109zM268 287l1 1v56h-1v-57zM262 288v57l-100 -35zM17 80l104 37 v599l-104 23v-659zM127 722l167 -36l101 36l-268 57v-57zM294 679v-49l104 -22v108zM121 778l-97 -34l97 -21v55zM26 76l261 -55v57l-161 34zM294 20l98 35l-98 21v-56zM262 208v74l-104 22v-133zM276 290l92 33l-92 19v-52zM380 327v107l-104 -37v-48zM262 473v94l-104 22 v-153zM268 572l19 -4v57l-19 4v-57zM294 570l94 34l-94 20v-54z" />
<glyph unicode="F" horiz-adv-x="451" d="M415 698v-126l-6 1v-1l-110 -39v-2l-28 5v-89l119 -25v-127l-3 1l-112 -39l-1 4v-7h-3v-200h-3l-114 -40v-2l-144 31v675l5 -1l-1 1l112 40v2zM264 545v58l-102 -37zM264 611l28 -6v47l-159 33v-595l15 -4v201h2l114 41v1l3 -1v47l-119 25v169h2l114 41v1zM270 441 l-105 -38l103 -22l105 38zM264 263v58l-102 -37zM299 650v-46l109 -24v109zM403 694l-270 58v-60l165 -35zM126 751l-102 -36l102 -21v57zM17 710v-662h1l-1 2l109 38v599zM27 46l121 -26v60l-16 3zM154 21l101 36l-101 21v-57zM264 62v194l-110 23v-194zM274 263l101 36 l-101 21v-57zM384 303v113l-2 1l1 -2l-109 -39v-49zM264 446v92l-110 23v-155l2 -1l-1 2zM271 543l21 -4v59l-21 5v-60zM299 540l99 36l-99 21v-57z" />
<glyph unicode="G" horiz-adv-x="507" d="M225 771q15 0 108 -20q53 -11 90.5 -57t37.5 -100v-104v-1h-1l-86 -31l87 -18v-272q0 -69 -58 -96l1 -2l-113 -40q-28 -10 -45 -10q-14 0 -28 3l-81 17q-53 11 -90 56.5t-37 99.5v427q0 73 64 98l-1 1l105 38q30 11 47 11zM454 497v97q0 47 -32 89l-108 -38 q22 -29 29 -59q5 -22 5 -66zM348 457v-1l2 1h-2zM328 73q13 22 13 50v269l-21 4v-196q0 -16 -7 -24l1 -1q-2 -1 -13 -5l-100 -35q-5 -8 -15 -8q-3 0 -6 1q25 -24 70 -37q14 -5 78 -18zM143 718q-13 -23 -13 -50v-430q0 -39 21 -74v418q0 23 13 29l-1 2q120 42 123 42 q7 0 15 -3q-29 33 -72 47q-6 1 -86 19zM271 507l42 15v94q0 7 -2 14l-40 -14v-109zM264 463v1l-64 14v94q0 34 -27 34q-15 0 -15 -22v-418q0 -6 1 -12l41 14v198l-21 5v62l5 -1l-1 2zM162 148q11 -14 24 -14q14 0 14 22v5zM207 164q0 -15 -2 -21l82 29q-12 4 -17 14z M207 171l60 21q-3 8 -3 18v176l-57 -21v-194zM205 372l59 21v9l-75 -27zM185 425v-44l79 27zM271 404v-9l20 7l-15 4zM192 430l72 -15v41zM279 647h1q-9 -3 -9 -21v-3l37 13q-7 12 -22 12q-4 0 -7 -1zM264 621q0 14 3 21l-87 -31q13 -1 20 -13zM216 481l48 -10v27zM208 482 v3l56 20v109l-61 -22q4 -8 4 -20v-89zM313 200v198l-9 2l-33 -12v-178q0 -29 22 -33q3 0 6 -1l8 3q6 6 6 21zM303 407l7 2l-15 4l-7 -3zM292 418v40l-13 3l-8 -3v-44l4 -1zM290 465h2v1zM298 468v-5l43 -9v4zM292 476l49 -11v49l-19 4l-51 -18v-31l7 -1l14 5v3zM322 525 l19 -4v31q0 39 -23 76q2 -7 2 -14v-89h2zM418 689q-36 44 -87 55l-81 17q-14 3 -25 3q-19 0 -36 -7v0q-25 -8 -42 -34q78 -16 90 -20q43 -15 73 -52zM157 745l-48 -17q15 0 31 -3q7 11 17 20zM17 623v-427q0 -48 31 -90l108 39l-1 2q-32 49 -32 91v427q0 30 13 54 q-13 3 -25 3q-42 0 -68 -28.5t-26 -70.5zM52 101q24 -34 76 -51q11 -3 92 -21q14 -3 26 -3q51 0 79 41q-76 16 -91 21q-45 16 -74 51zM313 45l51 18q-16 -1 -32 2q-8 -11 -19 -20zM360 69q42 0 68 28t26 71v261l-106 -38v-266q0 -30 -13 -53q13 -3 25 -3zM451 435l-89 19 l-14 -5v-3l-50 11v-38l22 -5q-1 -6 1 -8h-1v-3l26 -5zM361 461l87 31l-100 21v-49z" />
<glyph unicode="H" horiz-adv-x="521" d="M322 748v1l147 -31v-676l-3 1v-1l-113 -40v-2l-148 31v30l-47 -17v-3l-148 32v675h3v1l114 40v1l147 -31v-28zM322 741l-48 -17v-32l48 -10v59zM353 669v-595l110 -24v658zM346 75v595l-18 4v-194l-2 1l1 -2l-114 -40l-1 2v-3l-61 13v261l-18 3v-595l18 -4v222l3 -1v2 l114 40v1l60 -13v-288zM212 104l56 -12v247l-56 -20v-215zM259 87l-47 10v-27zM158 330v-215l47 -10v215zM210 325l58 21v27l-105 -38zM316 363l-42 9v-24zM127 122v595l-110 23v-658zM212 699v-220l56 20v188zM219 704l49 -10v27zM270 492l-58 -20v-27l105 38zM158 456z M164 455l41 -9v23zM322 488v187l-48 10v-187zM209 706l-1 1l60 21v23l-110 -39v-253l47 17v231zM260 755l-127 27v-60l23 -5v1zM127 782l-104 -36l104 -23v59zM17 78zM21 77l130 -27v60l-24 5zM158 51l47 17v30l-47 10v-57zM269 85l1 -1l-58 -21v-24l110 39v280l-48 -17 v-257zM220 35l126 -27v60l-20 5zM353 9l102 36l-102 22v-58zM458 713l-130 28v-60l24 -5z" />
<glyph unicode="I" horiz-adv-x="327" d="M125 770l148 -32v-675h-2v-1l-113 -40v-1l-148 31l1 677l114 40v1zM125 762l-104 -37l104 -22v59zM158 691v-597l108 -23v659zM151 95v596l-19 4v-596zM125 100v596l-108 23v-658zM17 57zM22 56l129 -27v60l-23 5zM158 29l102 36l-102 22v-58zM259 734l-127 28v-60l22 -5 z" />
<glyph unicode="J" horiz-adv-x="518" d="M318 757v3l147 -31v-552q0 -63 -49 -92v-1l-114 -40v0q-24 -15 -54 -15q-16 0 -109 20q-54 12 -91.5 57t-37.5 100v117l4 -1v1l112 40v2l76 -16v369h1v2l114 40zM318 754l-106 -38l106 -23v61zM208 710v-362l66 -14v-113q0 -33 23 -35l17 6q4 7 4 18v477zM133 248 q0 -36 18 -69v107l-18 4v-42zM158 287v-110q0 -5 1 -11l3 -4l40 14v126zM267 326l-59 -21v-127l62 22q-3 9 -3 21v105zM208 312l52 18l-52 11v-29zM186 143q16 0 16 25v1l-36 -13q5 -6 10 -9.5t10 -3.5zM208 171q0 -11 -1 -17l80 29q-9 3 -14 11zM204 146q-5 -9 -18 -9h-2 q31 -30 68 -38q2 -1 78 -17q13 23 13 51v548l-19 4v-475q0 -31 -22 -31q-2 0 -4 1zM202 342l-69 15v-60l21 -5l48 17v33zM126 356l-102 -36l102 -22v58zM17 206q0 -56 41 -101l108 38q-5 3 -13 21q-5 6 -10 16q-17 33 -17 68v43l-109 24v-109zM63 99q32 -33 77 -43l82 -18 q14 -3 26 -3q51 0 78 41l-83 19q-41 13 -70 43zM361 71q-12 1 -28 4q-6 -10 -16 -19zM363 78q43 0 69.5 28t26.5 71v543l-110 -39v-546q0 -31 -12 -54q13 -3 26 -3zM453 725l-129 27v-60l22 -5z" />
<glyph unicode="K" horiz-adv-x="521" d="M320 748v1l151 -32v-219q0 -44 -27.5 -73.5t-71.5 -30.5q43 -19 71 -59.5t28 -86.5v-207l-4 1l-113 -41v-1l-151 32v26l-42 -15v-2l-151 33v675h1l114 41l1 -3v3l151 -32v-25zM320 741l-43 -15v-34l43 -9v58zM323 390q25 26 25 67v214l-22 4v-189q0 -22 -10 -27l1 -1 l-114 -40l-1 2q-4 -5 -13 -5q-3 0 -35 7v290l-21 4v-596l21 -5v207l2 -1l86 30l-5 2l1 6h2v1zM348 74v133q0 38 -22 74v-202zM320 302v15q0 16 -7 24l-24 -8q17 -13 31 -31zM283 338l25 8q-4 3 -31 9v-14zM271 91v235l-68 -23q7 -10 7 -27v-173zM263 86l-53 11v-30zM161 314 v-200l42 -9v171q0 21 -11 29q-5 3 -31 9zM201 305l-1 3l71 25v5q-9 5 -20 10l-82 -29q15 -4 17 -4q10 -4 15 -10zM271 345v9q-3 0 -12 -3zM271 363l4 -1q19 4 35 16l-54 -19q9 1 14 2q0 -1 1 0v2zM126 120v598l-109 23v-660zM210 700v-253l61 22v218zM217 705l54 -11v30z M272 462l-62 -22q-1 -8 -3 -14l87 31zM189 421q12 0 14 17l-35 -13q18 -4 21 -4zM320 485v191l-43 10v-218q26 -6 28 -6q15 0 15 23zM206 707v1l65 23v19l-110 -39v-281l42 15v263zM262 754l-129 28v-59l25 -6zM126 783l-103 -37l103 -22v59zM25 77l129 -27v59l-25 5z M161 49l42 16v33l-42 9v-58zM275 83l-65 -23v-21l110 39v213q-17 23 -38 39l-5 -1v-247zM220 36l128 -28v59l-24 6zM354 8l102 36l-102 22v-58zM464 248q0 48 -32 89.5t-78 56.5l-27 -10q-17 -17 -39 -25q29 -6 35 -22q3 -8 3 -44q28 -41 28 -86v-134l110 -24v199zM355 400 q47 -4 78 23.5t31 74.5v212l-110 -39v-214q0 -37 -19 -63l19 7v-2zM455 714l-129 27v-59l25 -5z" />
<glyph unicode="L" horiz-adv-x="433" d="M404 46l-110 -39v-2l-284 60v679h1l-1 1l110 39v1h2l2 1v-2l144 -30l1 -553l135 -28v-127zM17 75l103 36v603l-103 22v-661zM127 112l160 -34v48l-136 29v552l-24 5v-600zM266 195l-103 -36l127 -27l102 36zM294 126v-50l103 -22v109zM392 49l-98 21v-56zM158 164l103 37 v544l-103 -37v-544zM256 750l-129 27v-58l26 -6zM120 777l-100 -35l100 -22v57zM21 69l266 -56v58l-163 35z" />
<glyph unicode="M" horiz-adv-x="719" d="M673 50h-1l-103 -37v-2l-139 33v45l-81 -29l-1 -2l-118 25l-10 50l-79 -28v-3l-131 28v627h1l103 37v2l216 -46l15 -98l6 33l2 -1v1l102 36l1 2l217 -46v-627zM448 104l88 437l-97 -35l-3 -400zM440 99l-4 1v-2zM430 108l3 370l-72 -356zM543 548l-3 -461l23 -5v551 l-113 24l-56 -317h-1l1 -1l-90 -32l36 -180l15 -3l78 386h2v1l102 37v1zM259 502l28 -181l4 20zM294 325l-3 -16l6 2zM297 341l6 -28l85 30l-43 272zM569 634v-553l98 -24v612zM661 673l-201 43l-9 -53l114 -24zM454 714l-91 -32l82 -17zM356 677l-8 -44l43 -274l53 300z M342 633l-17 110l-99 -35l18 -110h2l48 -240l32 183q2 9 11 46q5 22 5 46zM240 148l-1 443l-97 -34l81 -405zM233 143l-9 2l1 -4zM114 173v556l-98 21v-612zM120 727v-553l15 -4v389h1l-1 2l103 36l-17 109zM141 529v-360l75 -16zM317 746l-197 42v-54l101 -22zM114 788 l-93 -33l93 -20v53zM22 134l113 -24v54l-17 4zM141 111l78 28l-1 8l-77 16v-52zM226 135l9 -44l99 35l-36 179l-8 -3h-6l-38 244v-405h-2zM242 87l101 -22l11 53l-16 3zM350 67l80 29v5l-70 15zM452 97l-16 -6v-38l98 35l3 429zM440 48l123 -29v57l-27 6zM569 20l92 33 l-92 21v-54z" />
<glyph unicode="N" horiz-adv-x="551" d="M363 743l1 -1l136 -29v-673h-1l-110 -39v-1h-3v1l-123 26l-21 58l-92 -33v-1h-3l-137 30v673h1l110 38v2l2 -1h1l123 -26l20 -58l94 33v1l1 -1zM361 735l-91 -32l1 -5l90 -19v56zM493 704l-104 -37v-597l104 -22v656zM382 668l-15 3v-245l1 -1l-104 -37l115 -316h3v596z M255 99l-1 287l-4 -1l-98 -34l91 -250zM248 93l-3 1l1 -1h2zM17 88l104 37v599l-104 22v-658zM127 126l17 -4l1 233l103 37l-117 329l-4 1v-596zM261 395v-1l98 35l-93 264l-10 2v-300h5zM262 700h2l-1 1zM150 336v-215l85 -18zM361 445v228l-87 18zM261 707l-18 52 l-105 -37l112 -317v298zM234 763l-107 23v-57l7 -2zM121 785l-97 -34l97 -21v55zM26 84l118 -25v57l-18 3zM150 59l90 32l-2 5l-88 18v-55zM248 87l19 -53l105 38l-111 304v-285h-1zM276 31l106 -23v57l-6 1zM389 8l98 35l-98 20v-55zM487 709l-120 26v-57l20 -4z" />
<glyph unicode="O" horiz-adv-x="501" d="M438 656q17 -31 17 -66v-423q0 -69 -60 -95v-2l-113 -40v1q-18 -7 -38 -7q-12 0 -26 3l-82 17q-52 11 -89 55.5t-37 97.5v423q0 80 72 101v0l94 33q31 11 44 11t27 -3l82 -18q70 -15 109 -88zM414 683q-26 36 -76 52q-1 0 -92 20q-14 3 -25 3q-13 0 -24 -3v0 q-36 -12 -52 -35q80 -17 91 -21q47 -16 74 -53zM324 74q14 22 14 53v423q0 51 -35 94.5t-85 53.5l-77 16q-14 -23 -14 -54v-423q0 -41 24 -78q-1 6 -1 12v407q0 27 17 30h-1q38 13 113 41l1 -1q35 2 35 -40v-408q0 -17 -7 -25v-1l-111 -39q-4 -5 -13 -5q-5 0 -12 3 q28 -29 70 -42q13 -2 82 -17zM156 580v-411q0 -8 3 -15l40 14v401q0 11 -4 19l-1 -1l-2 6q-8 9 -21 9q-15 0 -15 -22zM281 641q-14 0 -15 -21l36 12q-8 9 -21 9zM294 177q15 0 15 22v410q0 10 -4 18l-39 -14v-404q0 -32 28 -32zM193 140q6 6 6 20v1l-37 -13q7 -11 22 -11 q7 0 9 3zM205 164q0 -14 -2 -20l80 28q-11 4 -17 13zM205 171l58 20q-3 8 -3 19v401l-59 -21q4 -9 4 -22v-397zM260 618q0 11 3 18l-82 -29q11 -3 17 -12zM154 740l-42 -15q13 0 26 -3q7 10 16 18zM17 197q0 -47 32 -89l104 37q-33 43 -33 92v423q0 32 14 56q-12 2 -24 2 q-42 0 -67.5 -28t-25.5 -70v-423zM53 103q37 -43 84 -53l82 -17q14 -3 26 -3q47 0 75 38q-83 18 -90 20q-43 14 -73 52zM308 46l50 18q-17 -1 -31 3q-8 -12 -19 -21zM448 167v423q0 47 -30 88l-104 -37q31 -43 31 -91v-423q0 -31 -14 -55q12 -2 24 -2q41 0 67 28t26 69z" />
<glyph unicode="P" horiz-adv-x="492" d="M127 759l206 -44q52 -11 89 -56t37 -98v-162q0 -78 -67 -100l1 -1l-113 -40l-1 1l-10 -3v-195l-4 -3v-1l-113 -40v1l-142 30v668l4 3zM423 647q-36 50 -91 62l-203 43v-58l91 -19q58 -12 97 -66zM340 353v168q0 39 -22 74q2 -7 2 -13v-146q0 -24 -18 -30 q-112 -40 -117 -40q-3 0 -35 7l2 213q1 0 2 1v-1l113 41q12 -2 34 -9q-35 41 -82 51l-90 19v-595l21 -4v186l4 3l1 -1l112 41l60 -13q13 22 13 48zM263 262v47l-96 -34q68 -15 80 -15q8 0 16 2zM123 689l-106 23v-658l106 38v597zM25 716l98 -20v55zM128 87l-101 -36 l123 -26v57zM313 434v149q0 7 -2 13l-42 -15l1 -163q25 -5 28 -5q15 0 15 21zM193 375v0h1q4 3 6 12l-33 -11q16 -4 18 -4q5 0 8 3zM263 586v32l-96 -34q16 -3 20 -5q10 -5 15 -15zM263 417v162l-59 -21q3 -7 3 -16v-145zM200 542q0 21 -12 28q-5 4 -32 9v-200l44 16v147z M156 379v-1h1zM206 390q0 -7 -2 -11l83 29l-19 4zM269 588l40 14q-6 10 -40 18v-32zM156 26l98 34l-98 21v-55zM263 65v190q-8 -1 -16 -1q-12 0 -91 17v-183zM269 311v-48q34 8 54 36zM310 276l52 18q-14 0 -32 4q-10 -15 -20 -22zM453 396v165q0 42 -26 80l-106 -38 q26 -39 26 -82v-162q0 -33 -13 -55q14 -3 27 -3q41 0 66.5 27t25.5 68z" />
<glyph unicode="Q" horiz-adv-x="504" d="M458 617v-391q0 -70 -58 -95v-1l-59 -21v-62l-3 -2l-1 -1l-113 -40l-97 21v80q-50 13 -83.5 56.5t-33.5 94.5v391q0 72 63 96v1l113 40v-1q18 7 37 7q13 0 108 -20q53 -11 90 -55.5t37 -97.5zM420 704q-36 48 -91 60l-80 17q-14 3 -26 3q-48 0 -76 -39q79 -17 93 -22 q44 -16 74 -57zM338 184v393q0 40 -23 76q3 -8 3 -19v-376q0 -29 -21 -29h-5l-92 -32q-5 -8 -16 -8q-5 0 -8 1q30 -30 70 -41v-52l71 25q9 10 13 21v2h1q7 19 7 39zM334 114v7l-13 -5l-11 -11zM246 88q40 1 61 23l-61 -21v-2zM240 70v12q-6 1 -12 1v0v-18zM240 143l-106 -38 v-73l87 31v24l4 3h2l13 4v49zM163 624q-7 -5 -7 -20v-376q0 -8 3 -15l40 14v367q0 28 -22 32q-5 2 -6 1zM276 665v-1h-1q-6 -5 -6 -20v-1l37 13q-7 11 -22 11q-5 0 -8 -2zM263 641q0 13 2 20l-82 -30q11 -3 16 -13zM202 613q3 -9 3 -19v-364l60 21q-2 8 -2 17v366zM161 207 q8 -12 23 -12t15 21v4zM205 223q0 -13 -1 -18l78 28q-9 4 -14 12zM291 236l17 6q3 6 3 16v376q0 9 -2 16l-40 -14v-368q0 -27 22 -32zM284 674q12 0 21 -8q-28 37 -72 53q-13 5 -90 20q-14 -22 -14 -50v-393q0 -38 21 -73v381q0 19 9 26q4 1 10 3l103 37q11 4 12 4zM160 768 l-51 -18q14 0 31 -3q8 12 20 21zM17 647v-391q0 -43 26 -81l106 37q-26 40 -26 84v390q0 31 13 55q-12 3 -26 3q-41 0 -67 -28t-26 -69zM47 169q33 -45 83 -59l103 37q-48 16 -80 60zM142 28l79 -17v45zM228 12l96 35l-81 17l-15 -5v-47zM334 51v56l-47 -17q-19 -8 -41 -8 v-12zM341 116l17 6q-9 0 -17 1v-7zM358 128q57 0 82 49l-104 -37q-3 -7 -8 -14l8 2l2 2q11 -2 20 -2zM451 226v391q0 43 -27 82l-106 -38q27 -40 27 -84v-391q0 -20 -6 -38l104 37v-1q8 19 8 42z" />
<glyph unicode="R" horiz-adv-x="511" d="M124 790l211 -45q53 -11 91 -59.5t38 -102.5v-90q0 -43 -27.5 -72t-70.5 -31q43 -19 70.5 -58.5t27.5 -85.5v-201l-114 -40l-149 32v25l-41 -14v-2l-150 33v671zM410 694q-34 36 -77 45l-204 43v-57l93 -20q46 -10 82 -49zM319 386q26 26 26 67v90q0 52 -37 98.5 t-88 57.5l-91 19v-594l25 -5l1 201l81 30l1 5l-1 1l1 1h1zM345 206q0 40 -25 78v-202l25 -5v129zM314 315q0 12 -4 20l-20 -7q13 -11 24 -25v12zM283 332l23 8q-5 6 -33 12v-13q5 -3 10 -7zM267 94v225l-64 -22q5 -9 5 -22v-168zM258 89l-50 11v-29zM160 312v-195l41 -9v167 q0 21 -11 28q-5 4 -30 9zM201 302l-1 1l67 23v10q-10 6 -20 10l-82 -29q17 -3 20 -4q10 -4 16 -11zM273 332v-3l3 1zM267 343v8q-4 0 -12 -2q6 -2 12 -6zM268 360l4 -1q19 4 34 15l-38 -13v-1zM17 86l106 37v597l-106 22v-656zM123 783l-100 -35l100 -22v57zM26 82l128 -28 v58l-27 6zM160 55l41 14v33l-41 9v-56zM270 87l-62 -23v-19l106 38v210q-10 16 -31 32l-10 -3v-236zM215 41l130 -28v58l-28 6zM351 12l101 36l-101 21v-57zM458 53v193q0 33 -17 64l-106 -38q16 -32 16 -66v-130zM438 316q-31 55 -87 74l-28 -10q-16 -16 -38 -24 q11 -2 28 -13h1q6 -21 6 -48q7 -9 12 -17zM458 493v90q0 56 -43 105l-107 -38q43 -50 43 -107v-90q0 -37 -20 -63l19 6v1q45 -4 76.5 23.5t31.5 72.5zM267 649q33 -7 39 -11q14 -9 14 -34v-121q0 -21 -8 -26q-2 -1 -10 -4l-103 -36q-3 -4 -12 -4q-3 0 -33 6v190l2 -1l111 39 v2zM310 625q-6 9 -37 16v-29zM267 640l-99 -34q17 -4 20 -5q10 -5 15 -14l64 22v31zM271 458l-64 -22q0 -6 -2 -10l82 29zM267 464v138l-62 -21q3 -8 3 -18v-120zM160 601v-175l41 14v123q0 22 -10 29q-6 3 -31 9zM170 422q15 -3 17 -3q11 0 13 14zM314 482v123q0 7 -2 14 l-39 -14v-140q26 -6 27 -5l8 2q6 6 6 20z" />
<glyph unicode="S" horiz-adv-x="505" d="M437 668v-1q23 -43 23 -78v-122l-74 -26q34 -17 54 -53t20 -75v-143q0 -67 -56 -95v-1l-113 -40q-28 -10 -44 -10q-9 0 -28 4l-81 17q-52 11 -90 56t-38 98v105h1l85 30q-37 12 -61.5 47t-24.5 74v164q0 78 72 99v0l96 34q31 11 46 11q14 0 108 -20q66 -14 104 -75h1z M430 666q-36 56 -99 70l-81 18q-9 2 -26 2q-14 0 -27 -3v-1q-34 -11 -51 -35l18 -4q71 -15 83 -20q45 -18 76 -65zM341 499v49q0 41 -24 78q3 -8 3 -19v-103zM348 445v-11l19 7zM341 272q0 40 -21 75v-145q0 -22 -9 -25l1 -1l-113 -40q-2 -5 -13 -5q-5 0 -8 1q10 -9 21 -17 q1 1 1 0q24 -17 52 -23l76 -16q13 23 13 53v143zM129 272v-32q0 -38 22 -73q-1 3 -1 100zM122 334v2l-4 -1zM164 148q7 -10 22 -10t15 22v1zM157 266v-96q0 -9 3 -17l41 15v114zM267 191q-4 9 -4 21v92l-55 -20v-114zM208 163q0 -12 -3 -18l83 29q-11 4 -18 12zM299 179 q14 0 14 21v150l-80 -29l36 -7v-102q0 -11 4 -18h1q3 -15 25 -15zM259 309l-37 8l-14 -5v-21zM201 317l8 3l-80 17v-5zM201 310l-72 16v-47l27 -6l45 16v21zM129 496q0 -36 21 -67v148q0 18 9 25v1l112 40q3 5 14 5t21 -7q-30 40 -73 51q-17 4 -91 19q-13 -22 -13 -51v-164z M269 488l44 16v104q0 10 -3 17l-41 -15v-122zM274 637q-5 -6 -5 -19v-1l38 14q-8 10 -22 10q-5 0 -9 -2q0 -1 -2 -2zM263 615q0 12 2 19l-82 -29q12 -4 18 -12zM204 587q4 -9 4 -21v-100l55 20v122zM157 579v-148l63 22l-19 4v109q0 34 -29 34q-15 0 -15 -21zM213 461l19 -3 l31 11v10zM266 463l-22 -8l97 -21v13zM269 469l72 -15v39l-25 5l-47 -17v-12zM156 738l-45 -16q14 0 28 -3q7 10 17 19zM17 619v-164q0 -35 20 -66l107 38q-22 33 -22 69v164q0 30 13 53q-12 2 -24 2q-41 0 -67.5 -27.5t-26.5 -68.5zM41 384q27 -37 65 -47l16 6v2l99 -21 l83 30l-84 17q-42 8 -72 51zM156 421q23 -34 66 -43l89 -19q-28 36 -63 43zM107 331l-84 -30l99 -21v47q-5 1 -15 4zM17 199q0 -76 69 -125v1l106 38q-70 51 -70 127v33l-105 23v-97zM92 70q21 -14 47 -19l81 -17q14 -3 27 -3q49 0 77 39q-22 4 -65 13q-35 7 -61 25zM314 49 l46 17q-5 0 -14.5 1.5t-14.5 1.5q-7 -11 -17 -20zM454 170v143q0 37 -18 69l-107 -38q19 -34 19 -72v-143q0 -31 -13 -54q12 -3 24 -3q42 0 68.5 28t26.5 70zM432 388q-23 36 -55 50l-29 -11v-1l-116 25l-69 -25l87 -18q44 -9 76 -58zM377 445l71 25l-100 21v-39 q10 -2 29 -7zM454 475v114q0 38 -20 71l-107 -38q17 -28 20 -60q1 -10 1 -64z" />
<glyph unicode="T" horiz-adv-x="510" d="M124 779l351 -74v-126h-2l-101 -36v-489h-3l-109 -38v-3l-4 1h-1l-142 31v547l-103 21v126h1zM122 772l-99 -35l99 -22v57zM363 659v-52l2 1v1l2 -1l101 -21v110zM363 600v-53l2 1v53zM356 605v54l-227 48v-48l102 -22v-547l22 -4v482h1zM356 598l-90 -32l90 -19v51z M119 590v-538l106 37v538zM229 84l-101 -36l125 -26v57zM122 659v50l-105 22v-109zM23 617l96 -20l101 36l-96 20zM260 23l96 34l-96 21v-55zM365 62v479l-2 -1v-2l-3 1l-100 21v-476zM372 550l89 32l-89 19v-51zM460 701l-331 70v-57l230 -49z" />
<glyph unicode="U" horiz-adv-x="510" d="M315 730v-1l145 -31v-544q0 -72 -63 -97v-1l-114 -41v1q-17 -7 -36 -7q-13 0 -27 3l-82 17q-62 13 -102 73h-1v2q-25 46 -25 79v546h1l112 40v1l146 -31v-25zM314 723l-45 -16v-33l45 -9v58zM328 60q14 23 14 53v539l-22 5v-470q0 -22 -10 -26v-1l-111 -39q-2 -5 -13 -5 q-5 0 -8 1q30 -30 70 -39q2 -1 80 -18zM129 224q0 -38 22 -73v542l-22 4v-473zM208 681v-524l58 21q-3 8 -3 20v471zM212 686l51 -11v30zM269 172l-61 -22q0 -14 -3 -20l83 29q-13 3 -19 13zM201 145v3l-38 -14q8 -11 23 -11q9 1 9 3v0q6 6 6 19zM313 185l1 473l-45 9v-469 q0 -34 29 -34q15 0 15 21zM202 688v2l61 21v19l-106 -37v-538q0 -8 3 -15l41 15zM256 735l-127 27v-58l25 -5zM123 762l-100 -36l100 -21v57zM17 721v-538q0 -38 21 -73l107 38q-22 36 -22 76v475zM42 104q37 -54 98 -68l81 -18q13 -3 26 -3q49 0 77 40q-82 17 -100 24 q-45 18 -75 63zM312 33l50 17q-16 0 -31 3q-8 -11 -19 -20zM359 57q42 0 68.5 27.5t26.5 69.5v536l-106 -38v-539q0 -31 -13 -54q13 -2 24 -2zM447 694l-127 27v-58l25 -5z" />
<glyph unicode="V" horiz-adv-x="591" d="M451 41l-114 -41l-206 44l-121 702l2 -1v1l111 40v1l161 -34l12 -78l2 9h2l-1 1l111 40v1l3 -1l152 -32zM250 91l93 -20l101 576l-37 7l-56 -411h-3v-1l-110 -40q-2 0 -3 -1v1h-3q-30 247 -67 504l-22 5zM296 628l-57 -418l105 37zM451 647l-101 -578l95 -20l111 635z M552 689l-136 29l-8 -57l40 -9zM409 717l-99 -35l92 -20zM303 677l-3 -24q0 -1 1 -8l30 -185q17 -111 17 -186v-5l53 387zM293 653q-7 42 -14 92l-107 -38l16 -103l30 -185q17 -110 17 -187v-5zM271 749l-140 30l11 -61l26 -6zM124 779l-102 -36l113 -24zM18 737l118 -686 l107 38l-107 623zM145 48l187 -40l10 56l-93 20zM349 63l-10 -54l99 35z" />
<glyph unicode="W" horiz-adv-x="819" d="M649 674v1l143 -30l-107 -610h-1v-1l-106 -38l-1 3l-1 -3l-190 40l-6 41l-67 -24l-1 3v-4l-191 40l-111 656h2v1l106 38l1 -4v5l147 -32l10 -64h1v1l106 39l150 -32l10 -65h2v1zM648 667l-95 -34l88 -19zM546 628l-1 -8l3 -21l27 -178q19 -131 16 -175l49 362zM500 80 l82 -17l94 538l-30 6l-52 -385h-2v-1l-106 -37zM587 226l-45 372l-56 -408zM539 620l-11 71l-102 -36l14 -95q22 -149 30 -229q1 -26 8 -91l5 -31zM415 98l35 289l-101 -36l34 -246zM408 94l-24 5l2 -13zM376 107l-30 224l-26 -212zM451 395h2q-14 126 -34 260l-39 9 l-52 -386q-1 1 -108 -37v1l-1 -3h-1l17 -102l79 -17l29 235h3v1l105 38v1zM202 333q-22 185 -50 379l-15 3zM321 283l-46 374l-55 -410zM522 696l-134 28l-8 -54l44 -9zM382 724l-97 -34l89 -19zM279 685l-1 -7q1 -4 4 -23l28 -174q15 -107 15 -174v-4l49 362zM272 678 l-11 70l-103 -36l15 -96l28 -174q16 -106 16 -174l-1 -5zM255 752l-129 28l10 -58l20 -5zM120 781l-99 -35l108 -23zM18 741l108 -641l103 36l-98 581zM133 96l173 -37l7 55l-81 17zM312 60l68 23l-3 17l-58 13zM386 79l6 -38h2l-2 4l102 36l-14 102h-1q-7 62 -24 187 l-35 -279h-1zM397 40l174 -37l10 54l-85 18zM578 3l96 34l-87 19zM680 42l104 595l-102 -36l-94 -539zM778 641l-123 26l-8 -54l33 -7z" />
<glyph unicode="X" horiz-adv-x="581" d="M394 740l151 -32l-135 -322l123 -346l-3 1l-109 -39l1 -2l-155 33l-13 48l-77 -27l-1 -2l-153 33l122 293l-134 380l111 39v1l1 -1l1 1l1 -1l151 -32l18 -60zM430 669l100 35l-134 29l-20 -53zM321 265l-29 82l132 316l-50 11l-43 -115h-1l-104 -37l38 -105l-121 -288 l45 -9l30 108h1v1zM326 251l-3 8l-102 -37l33 -116l29 -6zM273 95l-17 4l2 -9zM246 107l-27 99l-24 -88zM223 531l1 -2l104 37l-37 125l-7 2zM298 690l33 -111l36 96zM388 731l-92 -33v-1l74 -16zM288 702l-17 56l-105 -38q16 -61 54 -179l60 159h1zM173 672l-14 47l-3 1z M262 761l-130 28l22 -62l7 -1zM124 791l-101 -36l123 -26zM20 749l130 -367l106 38l-36 100h-1v-1q-1 3 -3 7h1q-7 23 -68 196zM151 376l-118 -283l104 37l118 282zM38 88l134 -28l15 54l-48 10zM179 62l73 26l-4 12l-55 12zM260 84l12 -44l106 37q-15 55 -49 163l-41 -148 l-3 1zM374 114l10 -36h3zM282 36l130 -27l-22 61l-8 2zM419 8l99 35l-121 26zM523 49l-118 333l-105 -38l27 -77l3 1l1 2l18 -66l46 -128zM404 388l130 311l-103 -37l-130 -311z" />
<glyph unicode="Y" horiz-adv-x="574" d="M543 693l-134 -326v-318l-113 -40v1l-153 33v316l-131 384l108 39v1l2 -1l2 1l1 -1l149 -32l18 -61l98 36zM150 51l103 36v307l-103 -37v-306zM260 88l32 -7l1 248q-1 1 0 1l131 318l-52 11l-42 -114q0 -1 -1 -1v-2l-1 2l-105 -38l37 -106v-312zM188 607l-29 97l-5 2z M284 678l-61 -165l103 37l-37 127zM296 675l33 -112l37 97zM299 325v-246l103 -22v305zM403 369l129 314l-101 -36l-130 -314zM529 689l-135 29l-19 -53l54 -11zM386 716l-92 -33v-1l74 -15zM281 685l5 2l-16 55l-104 -37l53 -182l61 162h1zM262 746l-132 28l21 -61l11 -3z M123 775l-100 -35l121 -26zM20 734l128 -371l104 37l-106 307zM157 46l135 -28v56l-35 8zM299 73v-56l98 35z" />
<glyph unicode="Z" horiz-adv-x="487" d="M446 47h-2l-111 -39l-300 65v95l138 423l-161 34v125h1l112 39l307 -65v-115l-145 -400l161 -34v-128zM128 669l164 -34l-141 -429v-89l177 -38v52l-164 34l148 406v108l-184 39v-49zM122 670v50l-106 22v-110zM334 129v-51l106 -23v112zM433 171l-152 33l-100 -35 l153 -33zM278 210l143 393l-104 -37l-143 -393zM424 716l-106 -38v-105l106 37v106zM416 720l-288 61v-56l189 -40zM122 782l-98 -35l98 -21v56zM25 629l154 -33l100 35l-155 33zM177 588l-136 -416l104 37l137 416zM39 80l106 37v85l-106 -38v-84zM48 76l280 -60v56 l-181 40zM334 15l98 35l-98 21v-56z" />
<glyph unicode="[" d="M448 508l219 -59l-177 -114l65 -273l-6 -3l-127 153l45 -192l-5 -3l-163 195l-93 -61l1 -3q-43 -18 -94 -44l3 9l-1 1h1l66 238l-175 214l86 39l-2 2l5 -1h1l145 -38l53 183l1 -4l84 38l2 8zM365 464l203 -55l82 38l-202 54zM409 238l-14 58l168 108l-207 56l-29 122 l-11 -40h-1v-1l-86 -38l-1 -3l-49 12l98 -116l-2 -5l-58 -210l74 49q37 15 88 43zM332 242l-36 -17l4 -4zM232 511l75 34l-61 15zM360 469l82 37l-60 261l-51 -172zM378 777l-81 -36l31 -133zM294 725l-46 -158l63 -17l13 45zM240 562l-130 34l62 -75l52 -13zM98 600 l-84 -38l147 -38zM22 553l164 -196l83 38l-101 120zM189 352l-65 -232l84 55l59 212zM206 165l-53 -34l49 22zM212 162l83 55l-4 5l-77 -51zM458 32l-46 191l-33 40q-5 -2 -75 -47zM545 74l-60 255l-82 -37l15 -66zM482 338l135 87l-40 -18l2 -1l-143 -92l47 22zM465 17 l90 40l2 -6l-90 -40z" />
<glyph unicode="\" d="M448 508l219 -59l-177 -114l65 -273l-6 -3l-127 153l45 -192l-5 -3l-163 195l-93 -61l1 -3q-43 -18 -94 -44l3 9l-1 1h1l66 238l-175 214l86 39l-2 2l5 -1h1l145 -38l53 183l1 -4l84 38l2 8zM365 464l203 -55l82 38l-202 54zM409 238l-14 58l168 108l-207 56l-29 122 l-11 -40h-1v-1l-86 -38l-1 -3l-49 12l98 -116l-2 -5l-58 -210l74 49q37 15 88 43zM332 242l-36 -17l4 -4zM232 511l75 34l-61 15zM360 469l82 37l-60 261l-51 -172zM378 777l-81 -36l31 -133zM294 725l-46 -158l63 -17l13 45zM240 562l-130 34l62 -75l52 -13zM98 600 l-84 -38l147 -38zM22 553l164 -196l83 38l-101 120zM189 352l-65 -232l84 55l59 212zM206 165l-53 -34l49 22zM212 162l83 55l-4 5l-77 -51zM458 32l-46 191l-33 40q-5 -2 -75 -47zM545 74l-60 255l-82 -37l15 -66zM482 338l135 87l-40 -18l2 -1l-143 -92l47 22zM465 17 l90 40l2 -6l-90 -40z" />
<glyph unicode="]" d="M448 508l219 -59l-177 -114l65 -273l-6 -3l-127 153l45 -192l-5 -3l-163 195l-93 -61l1 -3q-43 -18 -94 -44l3 9l-1 1h1l66 238l-175 214l86 39l-2 2l5 -1h1l145 -38l53 183l1 -4l84 38l2 8zM365 464l203 -55l82 38l-202 54zM409 238l-14 58l168 108l-207 56l-29 122 l-11 -40h-1v-1l-86 -38l-1 -3l-49 12l98 -116l-2 -5l-58 -210l74 49q37 15 88 43zM332 242l-36 -17l4 -4zM232 511l75 34l-61 15zM360 469l82 37l-60 261l-51 -172zM378 777l-81 -36l31 -133zM294 725l-46 -158l63 -17l13 45zM240 562l-130 34l62 -75l52 -13zM98 600 l-84 -38l147 -38zM22 553l164 -196l83 38l-101 120zM189 352l-65 -232l84 55l59 212zM206 165l-53 -34l49 22zM212 162l83 55l-4 5l-77 -51zM458 32l-46 191l-33 40q-5 -2 -75 -47zM545 74l-60 255l-82 -37l15 -66zM482 338l135 87l-40 -18l2 -1l-143 -92l47 22zM465 17 l90 40l2 -6l-90 -40z" />
<glyph unicode="^" d="M448 508l219 -59l-177 -114l65 -273l-6 -3l-127 153l45 -192l-5 -3l-163 195l-93 -61l1 -3q-43 -18 -94 -44l3 9l-1 1h1l66 238l-175 214l86 39l-2 2l5 -1h1l145 -38l53 183l1 -4l84 38l2 8zM365 464l203 -55l82 38l-202 54zM409 238l-14 58l168 108l-207 56l-29 122 l-11 -40h-1v-1l-86 -38l-1 -3l-49 12l98 -116l-2 -5l-58 -210l74 49q37 15 88 43zM332 242l-36 -17l4 -4zM232 511l75 34l-61 15zM360 469l82 37l-60 261l-51 -172zM378 777l-81 -36l31 -133zM294 725l-46 -158l63 -17l13 45zM240 562l-130 34l62 -75l52 -13zM98 600 l-84 -38l147 -38zM22 553l164 -196l83 38l-101 120zM189 352l-65 -232l84 55l59 212zM206 165l-53 -34l49 22zM212 162l83 55l-4 5l-77 -51zM458 32l-46 191l-33 40q-5 -2 -75 -47zM545 74l-60 255l-82 -37l15 -66zM482 338l135 87l-40 -18l2 -1l-143 -92l47 22zM465 17 l90 40l2 -6l-90 -40z" />
<glyph unicode="_" d="M448 508l219 -59l-177 -114l65 -273l-6 -3l-127 153l45 -192l-5 -3l-163 195l-93 -61l1 -3q-43 -18 -94 -44l3 9l-1 1h1l66 238l-175 214l86 39l-2 2l5 -1h1l145 -38l53 183l1 -4l84 38l2 8zM365 464l203 -55l82 38l-202 54zM409 238l-14 58l168 108l-207 56l-29 122 l-11 -40h-1v-1l-86 -38l-1 -3l-49 12l98 -116l-2 -5l-58 -210l74 49q37 15 88 43zM332 242l-36 -17l4 -4zM232 511l75 34l-61 15zM360 469l82 37l-60 261l-51 -172zM378 777l-81 -36l31 -133zM294 725l-46 -158l63 -17l13 45zM240 562l-130 34l62 -75l52 -13zM98 600 l-84 -38l147 -38zM22 553l164 -196l83 38l-101 120zM189 352l-65 -232l84 55l59 212zM206 165l-53 -34l49 22zM212 162l83 55l-4 5l-77 -51zM458 32l-46 191l-33 40q-5 -2 -75 -47zM545 74l-60 255l-82 -37l15 -66zM482 338l135 87l-40 -18l2 -1l-143 -92l47 22zM465 17 l90 40l2 -6l-90 -40z" />
<glyph unicode="`" d="M448 508l219 -59l-177 -114l65 -273l-6 -3l-127 153l45 -192l-5 -3l-163 195l-93 -61l1 -3q-43 -18 -94 -44l3 9l-1 1h1l66 238l-175 214l86 39l-2 2l5 -1h1l145 -38l53 183l1 -4l84 38l2 8zM365 464l203 -55l82 38l-202 54zM409 238l-14 58l168 108l-207 56l-29 122 l-11 -40h-1v-1l-86 -38l-1 -3l-49 12l98 -116l-2 -5l-58 -210l74 49q37 15 88 43zM332 242l-36 -17l4 -4zM232 511l75 34l-61 15zM360 469l82 37l-60 261l-51 -172zM378 777l-81 -36l31 -133zM294 725l-46 -158l63 -17l13 45zM240 562l-130 34l62 -75l52 -13zM98 600 l-84 -38l147 -38zM22 553l164 -196l83 38l-101 120zM189 352l-65 -232l84 55l59 212zM206 165l-53 -34l49 22zM212 162l83 55l-4 5l-77 -51zM458 32l-46 191l-33 40q-5 -2 -75 -47zM545 74l-60 255l-82 -37l15 -66zM482 338l135 87l-40 -18l2 -1l-143 -92l47 22zM465 17 l90 40l2 -6l-90 -40z" />
<glyph unicode="a" horiz-adv-x="582" d="M424 756l120 -703l-4 1l1 -1l-114 -40l-2 6l105 37l-117 25l12 -69l-144 30l-10 75l-1 -5l-7 1v-1l-112 -40v-2l-141 30l125 651l5 -1l-1 3l114 40l1 -1zM259 784l-11 -57l57 -12l106 37zM281 226l105 -23l-86 506l-53 11l-30 -156l91 45v2l7 -2l28 -277h-2l-92 -48l-1 3 v-3l-63 13l25 228l-73 -379l19 -4l6 42l-1 3l119 42zM378 199l-91 19l-9 -55zM288 350l48 -10l-24 238zM331 335l-48 10l-39 -20l4 -34zM281 351l26 250l-87 -43l23 -226zM241 292l-3 30l-40 -21zM237 329l-20 201l-24 -224zM253 786l-106 -38l95 -20zM140 743l-121 -635 l111 40l110 574zM18 105h1l-1 3v-3zM145 78l10 58l-25 5l-106 -37zM153 80l100 35l-92 20zM264 119l4 21l-3 16l-97 20l-6 -35zM168 183l103 -22l10 61zM287 48l3 -1l-1 2l111 40l-15 105l-108 -38l-3 -18zM417 20l-11 63h-2l-106 -37zM412 88l124 -26l-118 686l-112 -40z " />
<glyph unicode="b" horiz-adv-x="512" d="M127 777l213 -45q52 -11 89.5 -56t37.5 -98v-88q0 -41 -23 -68v-1l-1 -1q-32 -32 -74 -33q43 -19 70.5 -58.5t27.5 -85.5v-88q0 -55 -47 -88q-9 -4 -34 -13l-89 -33q-20 -9 -44 -9q-12 0 -27 3l-216 44v679l3 -1l-1 2l114 40zM130 770v-58l96 -20q57 -12 97 -65l-2 3 l106 39q-33 45 -89 57zM161 424l46 17v116q0 22 -13 30q-6 3 -33 9v-172zM206 434l-37 -14q19 -4 22 -4q14 0 15 18zM162 422l-1 2v-2h1zM168 601q19 -4 23 -6q11 -4 17 -14l59 22v33zM211 575q2 -8 2 -18v-114l54 19v134zM213 436q0 -10 -4 -16l85 32l-23 4zM276 462 q25 -5 28 -5q16 0 16 22v120q0 8 -3 16l-43 -17zM274 605l40 15q-6 9 -40 16v-31zM130 705l1 -601l203 -41q14 22 14 52v88q0 38 -22 72v-82q0 -23 -14 -28l1 -2l-107 -37l-1 2q-3 -5 -14 -5q-4 0 -37 7v188l5 -1l81 29l-3 1l1 7l5 -1v1l82 30q23 26 23 65v88q0 39 -23 76 q1 -7 1 -15v-118q0 -21 -11 -27v0l-112 -42v2q-5 -3 -12 -3q-4 0 -37 7v187l2 -1l111 40v1h3q14 -2 39 -10q-35 41 -84 51zM161 137l46 16v119q0 22 -13 29q-6 4 -33 9v-173zM206 146l-36 -13q18 -4 21 -4q13 0 15 17zM203 302l64 24v8q-8 5 -17 9l-79 -28q12 -2 32 -13z M267 347q-3 0 -9 -1q5 -3 9 -5v6zM267 356zM267 319l-60 -22q6 -10 6 -25v-117l54 19v145zM213 148q-1 -8 -3 -14l86 30l-24 5zM274 176q27 -6 30 -6q16 0 16 23v92q-16 23 -38 39l-8 -3v-145zM274 328l1 1l-1 1v-2zM289 327q17 -13 31 -31v17q0 15 -7 23zM283 332l25 9 q-5 4 -28 9l-6 -2v-11zM273 358l7 -2q18 5 33 17zM123 771l-102 -36l102 -21v57zM17 730v-664l106 38v603zM17 65zM26 62l201 -41q15 -3 26 -3q50 0 77 39l-202 41zM321 36l42 16q-12 1 -26 3q-6 -10 -16 -19zM461 243q0 36 -19 68l2 -4l-106 -38q16 -32 16 -66v-88 q0 -30 -13 -54q13 -2 25 -2q14 0 51 13q2 1 8 6q36 28 36 77v88zM441 313q-31 54 -88 74l-26 -10q-15 -16 -34 -23q25 -6 31 -24q2 -6 2 -43q5 -6 9 -12zM371 394q33 1 56 21zM461 578q0 45 -30 85l-106 -39q29 -41 29 -87v-88q0 -35 -17 -60l14 5h1l2 1l1 -1l84 32 q22 26 22 64v88z" />
<glyph unicode="c" horiz-adv-x="500" d="M461 581v-104h-1v-1l-111 -41l-80 17v-165l45 17l1 -1l146 -31v-115q0 -67 -58 -93v-2l-111 -41q-21 -9 -45 -9q-13 0 -109 20q-53 11 -90.5 55t-37.5 98v424q0 73 59 96l117 45v-1q17 7 37 7q14 0 109 -20q61 -13 95 -62t34 -93zM419 673q-26 36 -77 53q-9 3 -92 21 q-14 3 -27 3q-51 0 -79 -41q84 -17 95 -21q45 -16 76 -56l-1 2zM269 613l36 13q-8 9 -21 9q-15 0 -15 -22zM309 621l-40 -15v-109l44 17v89q0 10 -4 18zM156 731l-47 -18q14 1 28 -2q8 11 19 20zM45 102l105 39q-29 41 -29 87v424q0 30 13 53q-12 2 -23 2q-42 0 -68 -28 t-26 -70v-424q0 -44 28 -83zM49 97q36 -48 91 -59l81 -17q14 -3 26 -3q51 0 79 40q-84 18 -96 22q-43 15 -75 56zM285 162q-11 4 -16 12l-61 -22q0 -13 -2 -19zM269 201q0 -34 28 -34l11 4q5 5 5 19v41l-44 9v-39zM208 159l58 21q-4 9 -4 62l-54 11v-94zM212 259l50 -11v30z M204 581q4 -9 4 -22v-84l54 20v108zM262 488l-48 -18l48 -10v28zM262 610q0 13 3 19l-84 -31q12 -3 19 -11zM202 466v93q0 34 -30 34q-14 0 -14 -22v-414q0 -9 2 -16l42 16v104h2l-1 2l59 22v168zM198 130q4 6 4 17v3l-39 -15q9 -11 23 -11q3 1 12 6zM315 36l48 18 q-14 0 -30 3q-7 -11 -18 -21zM454 157v106l-105 -39v-109q0 -30 -12 -52q11 -2 22 -2q41 0 68 27.5t27 68.5zM320 296v-60l27 -6l102 38zM320 229q0 -58 -9 -65q-4 -1 -12 -4l-97 -36q-5 -6 -16 -6h-6q30 -28 71 -37l79 -17q13 22 13 51v110zM313 297l-44 -17v-33l44 -9v59z M165 599q115 43 119 43q9 0 18 -5q-30 33 -73 47q-4 2 -88 20q-13 -23 -13 -52v-424q0 -40 23 -76v418q0 24 14 28v1zM343 443v59l-27 6l-47 -18v-32zM343 509v30q0 41 -25 78q2 -7 2 -103zM349 442l101 37l-101 22v-59zM454 485v96q0 46 -31 87l-106 -39q22 -29 28 -58 q4 -19 4 -64z" />
<glyph unicode="d" horiz-adv-x="517" d="M433 677q26 -32 33 -53q5 -15 5 -45v-424q0 -55 -38 -84q-9 -7 -43 -19l-113 -40v1q-12 -3 -24 -3q-14 0 -28 3l-215 46v680h3l113 40v1l217 -46q51 -11 90 -57zM437 661q-38 54 -96 66l-208 44v-58l93 -20q62 -13 101 -71zM126 105v603l-109 23v-665zM133 706v-602 l202 -42q13 22 13 50v429q0 33 -19 66q1 -4 1 -8v-406q0 -24 -14 -29v0l-114 -41l-1 2q-4 -3 -9 -3q-4 0 -36 7v476l3 -1l112 40l1 -4v5q12 -2 35 -8q-35 40 -82 50zM272 602v35l-101 -35q19 -4 23 -6q10 -5 15 -16zM272 176v419l-60 -21q1 -7 1 -15v-404zM162 137l45 16 v406q0 21 -13 29q-5 3 -32 9v-460zM206 146l-35 -13q18 -4 21 -4q12 0 14 17zM213 148q0 -9 -3 -15l87 31l-24 5zM279 175q26 -6 29 -6q15 0 15 23v408q0 7 -2 13l-42 -15v-423zM279 605l40 14q-6 11 -40 18v-32zM126 772l-100 -36l100 -22v58zM26 62l201 -43q14 -3 28 -3 q48 0 76 40l-202 43v-1zM338 54q-8 -11 -18 -20l46 16q-13 1 -28 4zM464 155v424q0 40 -23 76l-110 -39q23 -37 23 -77v-425q0 -30 -13 -54q15 -3 28 -3q3 0 10 1t10 1q35 6 55 32.5t20 63.5z" />
<glyph unicode="e" horiz-adv-x="453" d="M404 609l3 -6l-3 -1v-2l-4 1l-106 -38v-3l-26 5v-95l118 -25q0 -7 1 -9h-1v-117l-6 1l-104 -37v-4l-8 1v-72l136 -29v-126h-1v-1l-109 -38v-1h-2l-3 -1v2l-279 59v674l2 -1l109 39v2l3 -1l2 1v-1l278 -59v-118zM159 430l117 -25v-1l103 36l-117 25v1zM267 636l20 -4v49 l-160 34l1 -597l159 -34v46h-1l-1 4l-134 28v150l2 -1v2l114 41l1 -3l1 -1v50l-118 25v172h2l109 39v1h5v-1zM262 629l-97 -35l97 -20v55zM265 202l-100 -36l127 -27l101 36zM398 170l-104 -37v-50l104 -22v109zM268 287l1 1v56h-1v-57zM262 288v57l-100 -35zM17 80l104 37 v599l-104 23v-659zM127 722l167 -36l101 36l-268 57v-57zM294 679v-49l104 -22v108zM121 778l-97 -34l97 -21v55zM26 76l261 -55v57l-161 34zM294 20l98 35l-98 21v-56zM262 208v74l-104 22v-133zM276 290l92 33l-92 19v-52zM380 327v107l-104 -37v-48zM262 473v94l-104 22 v-153zM268 572l19 -4v57l-19 4v-57zM294 570l94 34l-94 20v-54z" />
<glyph unicode="f" horiz-adv-x="451" d="M415 698v-126l-6 1v-1l-110 -39v-2l-28 5v-89l119 -25v-127l-3 1l-112 -39l-1 4v-7h-3v-200h-3l-114 -40v-2l-144 31v675l5 -1l-1 1l112 40v2zM264 545v58l-102 -37zM264 611l28 -6v47l-159 33v-595l15 -4v201h2l114 41v1l3 -1v47l-119 25v169h2l114 41v1zM270 441 l-105 -38l103 -22l105 38zM264 263v58l-102 -37zM299 650v-46l109 -24v109zM403 694l-270 58v-60l165 -35zM126 751l-102 -36l102 -21v57zM17 710v-662h1l-1 2l109 38v599zM27 46l121 -26v60l-16 3zM154 21l101 36l-101 21v-57zM264 62v194l-110 23v-194zM274 263l101 36 l-101 21v-57zM384 303v113l-2 1l1 -2l-109 -39v-49zM264 446v92l-110 23v-155l2 -1l-1 2zM271 543l21 -4v59l-21 5v-60zM299 540l99 36l-99 21v-57z" />
<glyph unicode="g" horiz-adv-x="507" d="M225 771q15 0 108 -20q53 -11 90.5 -57t37.5 -100v-104v-1h-1l-86 -31l87 -18v-272q0 -69 -58 -96l1 -2l-113 -40q-28 -10 -45 -10q-14 0 -28 3l-81 17q-53 11 -90 56.5t-37 99.5v427q0 73 64 98l-1 1l105 38q30 11 47 11zM454 497v97q0 47 -32 89l-108 -38 q22 -29 29 -59q5 -22 5 -66zM348 457v-1l2 1h-2zM328 73q13 22 13 50v269l-21 4v-196q0 -16 -7 -24l1 -1q-2 -1 -13 -5l-100 -35q-5 -8 -15 -8q-3 0 -6 1q25 -24 70 -37q14 -5 78 -18zM143 718q-13 -23 -13 -50v-430q0 -39 21 -74v418q0 23 13 29l-1 2q120 42 123 42 q7 0 15 -3q-29 33 -72 47q-6 1 -86 19zM271 507l42 15v94q0 7 -2 14l-40 -14v-109zM264 463v1l-64 14v94q0 34 -27 34q-15 0 -15 -22v-418q0 -6 1 -12l41 14v198l-21 5v62l5 -1l-1 2zM162 148q11 -14 24 -14q14 0 14 22v5zM207 164q0 -15 -2 -21l82 29q-12 4 -17 14z M207 171l60 21q-3 8 -3 18v176l-57 -21v-194zM205 372l59 21v9l-75 -27zM185 425v-44l79 27zM271 404v-9l20 7l-15 4zM192 430l72 -15v41zM279 647h1q-9 -3 -9 -21v-3l37 13q-7 12 -22 12q-4 0 -7 -1zM264 621q0 14 3 21l-87 -31q13 -1 20 -13zM216 481l48 -10v27zM208 482 v3l56 20v109l-61 -22q4 -8 4 -20v-89zM313 200v198l-9 2l-33 -12v-178q0 -29 22 -33q3 0 6 -1l8 3q6 6 6 21zM303 407l7 2l-15 4l-7 -3zM292 418v40l-13 3l-8 -3v-44l4 -1zM290 465h2v1zM298 468v-5l43 -9v4zM292 476l49 -11v49l-19 4l-51 -18v-31l7 -1l14 5v3zM322 525 l19 -4v31q0 39 -23 76q2 -7 2 -14v-89h2zM418 689q-36 44 -87 55l-81 17q-14 3 -25 3q-19 0 -36 -7v0q-25 -8 -42 -34q78 -16 90 -20q43 -15 73 -52zM157 745l-48 -17q15 0 31 -3q7 11 17 20zM17 623v-427q0 -48 31 -90l108 39l-1 2q-32 49 -32 91v427q0 30 13 54 q-13 3 -25 3q-42 0 -68 -28.5t-26 -70.5zM52 101q24 -34 76 -51q11 -3 92 -21q14 -3 26 -3q51 0 79 41q-76 16 -91 21q-45 16 -74 51zM313 45l51 18q-16 -1 -32 2q-8 -11 -19 -20zM360 69q42 0 68 28t26 71v261l-106 -38v-266q0 -30 -13 -53q13 -3 25 -3zM451 435l-89 19 l-14 -5v-3l-50 11v-38l22 -5q-1 -6 1 -8h-1v-3l26 -5zM361 461l87 31l-100 21v-49z" />
<glyph unicode="h" horiz-adv-x="521" d="M322 748v1l147 -31v-676l-3 1v-1l-113 -40v-2l-148 31v30l-47 -17v-3l-148 32v675h3v1l114 40v1l147 -31v-28zM322 741l-48 -17v-32l48 -10v59zM353 669v-595l110 -24v658zM346 75v595l-18 4v-194l-2 1l1 -2l-114 -40l-1 2v-3l-61 13v261l-18 3v-595l18 -4v222l3 -1v2 l114 40v1l60 -13v-288zM212 104l56 -12v247l-56 -20v-215zM259 87l-47 10v-27zM158 330v-215l47 -10v215zM210 325l58 21v27l-105 -38zM316 363l-42 9v-24zM127 122v595l-110 23v-658zM212 699v-220l56 20v188zM219 704l49 -10v27zM270 492l-58 -20v-27l105 38zM158 456z M164 455l41 -9v23zM322 488v187l-48 10v-187zM209 706l-1 1l60 21v23l-110 -39v-253l47 17v231zM260 755l-127 27v-60l23 -5v1zM127 782l-104 -36l104 -23v59zM17 78zM21 77l130 -27v60l-24 5zM158 51l47 17v30l-47 10v-57zM269 85l1 -1l-58 -21v-24l110 39v280l-48 -17 v-257zM220 35l126 -27v60l-20 5zM353 9l102 36l-102 22v-58zM458 713l-130 28v-60l24 -5z" />
<glyph unicode="i" horiz-adv-x="327" d="M125 770l148 -32v-675h-2v-1l-113 -40v-1l-148 31l1 677l114 40v1zM125 762l-104 -37l104 -22v59zM158 691v-597l108 -23v659zM151 95v596l-19 4v-596zM125 100v596l-108 23v-658zM17 57zM22 56l129 -27v60l-23 5zM158 29l102 36l-102 22v-58zM259 734l-127 28v-60l22 -5 z" />
<glyph unicode="j" horiz-adv-x="518" d="M318 757v3l147 -31v-552q0 -63 -49 -92v-1l-114 -40v0q-24 -15 -54 -15q-16 0 -109 20q-54 12 -91.5 57t-37.5 100v117l4 -1v1l112 40v2l76 -16v369h1v2l114 40zM318 754l-106 -38l106 -23v61zM208 710v-362l66 -14v-113q0 -33 23 -35l17 6q4 7 4 18v477zM133 248 q0 -36 18 -69v107l-18 4v-42zM158 287v-110q0 -5 1 -11l3 -4l40 14v126zM267 326l-59 -21v-127l62 22q-3 9 -3 21v105zM208 312l52 18l-52 11v-29zM186 143q16 0 16 25v1l-36 -13q5 -6 10 -9.5t10 -3.5zM208 171q0 -11 -1 -17l80 29q-9 3 -14 11zM204 146q-5 -9 -18 -9h-2 q31 -30 68 -38q2 -1 78 -17q13 23 13 51v548l-19 4v-475q0 -31 -22 -31q-2 0 -4 1zM202 342l-69 15v-60l21 -5l48 17v33zM126 356l-102 -36l102 -22v58zM17 206q0 -56 41 -101l108 38q-5 3 -13 21q-5 6 -10 16q-17 33 -17 68v43l-109 24v-109zM63 99q32 -33 77 -43l82 -18 q14 -3 26 -3q51 0 78 41l-83 19q-41 13 -70 43zM361 71q-12 1 -28 4q-6 -10 -16 -19zM363 78q43 0 69.5 28t26.5 71v543l-110 -39v-546q0 -31 -12 -54q13 -3 26 -3zM453 725l-129 27v-60l22 -5z" />
<glyph unicode="k" horiz-adv-x="521" d="M320 748v1l151 -32v-219q0 -44 -27.5 -73.5t-71.5 -30.5q43 -19 71 -59.5t28 -86.5v-207l-4 1l-113 -41v-1l-151 32v26l-42 -15v-2l-151 33v675h1l114 41l1 -3v3l151 -32v-25zM320 741l-43 -15v-34l43 -9v58zM323 390q25 26 25 67v214l-22 4v-189q0 -22 -10 -27l1 -1 l-114 -40l-1 2q-4 -5 -13 -5q-3 0 -35 7v290l-21 4v-596l21 -5v207l2 -1l86 30l-5 2l1 6h2v1zM348 74v133q0 38 -22 74v-202zM320 302v15q0 16 -7 24l-24 -8q17 -13 31 -31zM283 338l25 8q-4 3 -31 9v-14zM271 91v235l-68 -23q7 -10 7 -27v-173zM263 86l-53 11v-30zM161 314 v-200l42 -9v171q0 21 -11 29q-5 3 -31 9zM201 305l-1 3l71 25v5q-9 5 -20 10l-82 -29q15 -4 17 -4q10 -4 15 -10zM271 345v9q-3 0 -12 -3zM271 363l4 -1q19 4 35 16l-54 -19q9 1 14 2q0 -1 1 0v2zM126 120v598l-109 23v-660zM210 700v-253l61 22v218zM217 705l54 -11v30z M272 462l-62 -22q-1 -8 -3 -14l87 31zM189 421q12 0 14 17l-35 -13q18 -4 21 -4zM320 485v191l-43 10v-218q26 -6 28 -6q15 0 15 23zM206 707v1l65 23v19l-110 -39v-281l42 15v263zM262 754l-129 28v-59l25 -6zM126 783l-103 -37l103 -22v59zM25 77l129 -27v59l-25 5z M161 49l42 16v33l-42 9v-58zM275 83l-65 -23v-21l110 39v213q-17 23 -38 39l-5 -1v-247zM220 36l128 -28v59l-24 6zM354 8l102 36l-102 22v-58zM464 248q0 48 -32 89.5t-78 56.5l-27 -10q-17 -17 -39 -25q29 -6 35 -22q3 -8 3 -44q28 -41 28 -86v-134l110 -24v199zM355 400 q47 -4 78 23.5t31 74.5v212l-110 -39v-214q0 -37 -19 -63l19 7v-2zM455 714l-129 27v-59l25 -5z" />
<glyph unicode="l" horiz-adv-x="404" d="M404 46l-110 -39v-2l-284 60v679h1l-1 1l110 39v1h2l2 1v-2l144 -30l1 -553l135 -28v-127zM17 75l103 36v603l-103 22v-661zM127 112l160 -34v48l-136 29v552l-24 5v-600zM266 195l-103 -36l127 -27l102 36zM294 126v-50l103 -22v109zM392 49l-98 21v-56zM158 164l103 37 v544l-103 -37v-544zM256 750l-129 27v-58l26 -6zM120 777l-100 -35l100 -22v57zM21 69l266 -56v58l-163 35z" />
<glyph unicode="m" horiz-adv-x="719" d="M673 50h-1l-103 -37v-2l-139 33v45l-81 -29l-1 -2l-118 25l-10 50l-79 -28v-3l-131 28v627h1l103 37v2l216 -46l15 -98l6 33l2 -1v1l102 36l1 2l217 -46v-627zM448 104l88 437l-97 -35l-3 -400zM440 99l-4 1v-2zM430 108l3 370l-72 -356zM543 548l-3 -461l23 -5v551 l-113 24l-56 -317h-1l1 -1l-90 -32l36 -180l15 -3l78 386h2v1l102 37v1zM259 502l28 -181l4 20zM294 325l-3 -16l6 2zM297 341l6 -28l85 30l-43 272zM569 634v-553l98 -24v612zM661 673l-201 43l-9 -53l114 -24zM454 714l-91 -32l82 -17zM356 677l-8 -44l43 -274l53 300z M342 633l-17 110l-99 -35l18 -110h2l48 -240l32 183q2 9 11 46q5 22 5 46zM240 148l-1 443l-97 -34l81 -405zM233 143l-9 2l1 -4zM114 173v556l-98 21v-612zM120 727v-553l15 -4v389h1l-1 2l103 36l-17 109zM141 529v-360l75 -16zM317 746l-197 42v-54l101 -22zM114 788 l-93 -33l93 -20v53zM22 134l113 -24v54l-17 4zM141 111l78 28l-1 8l-77 16v-52zM226 135l9 -44l99 35l-36 179l-8 -3h-6l-38 244v-405h-2zM242 87l101 -22l11 53l-16 3zM350 67l80 29v5l-70 15zM452 97l-16 -6v-38l98 35l3 429zM440 48l123 -29v57l-27 6zM569 20l92 33 l-92 21v-54z" />
<glyph unicode="n" horiz-adv-x="551" d="M363 743l1 -1l136 -29v-673h-1l-110 -39v-1h-3v1l-123 26l-21 58l-92 -33v-1h-3l-137 30v673h1l110 38v2l2 -1h1l123 -26l20 -58l94 33v1l1 -1zM361 735l-91 -32l1 -5l90 -19v56zM493 704l-104 -37v-597l104 -22v656zM382 668l-15 3v-245l1 -1l-104 -37l115 -316h3v596z M255 99l-1 287l-4 -1l-98 -34l91 -250zM248 93l-3 1l1 -1h2zM17 88l104 37v599l-104 22v-658zM127 126l17 -4l1 233l103 37l-117 329l-4 1v-596zM261 395v-1l98 35l-93 264l-10 2v-300h5zM262 700h2l-1 1zM150 336v-215l85 -18zM361 445v228l-87 18zM261 707l-18 52 l-105 -37l112 -317v298zM234 763l-107 23v-57l7 -2zM121 785l-97 -34l97 -21v55zM26 84l118 -25v57l-18 3zM150 59l90 32l-2 5l-88 18v-55zM248 87l19 -53l105 38l-111 304v-285h-1zM276 31l106 -23v57l-6 1zM389 8l98 35l-98 20v-55zM487 709l-120 26v-57l20 -4z" />
<glyph unicode="o" horiz-adv-x="501" d="M438 656q17 -31 17 -66v-423q0 -69 -60 -95v-2l-113 -40v1q-18 -7 -38 -7q-12 0 -26 3l-82 17q-52 11 -89 55.5t-37 97.5v423q0 80 72 101v0l94 33q31 11 44 11t27 -3l82 -18q70 -15 109 -88zM414 683q-26 36 -76 52q-1 0 -92 20q-14 3 -25 3q-13 0 -24 -3v0 q-36 -12 -52 -35q80 -17 91 -21q47 -16 74 -53zM324 74q14 22 14 53v423q0 51 -35 94.5t-85 53.5l-77 16q-14 -23 -14 -54v-423q0 -41 24 -78q-1 6 -1 12v407q0 27 17 30h-1q38 13 113 41l1 -1q35 2 35 -40v-408q0 -17 -7 -25v-1l-111 -39q-4 -5 -13 -5q-5 0 -12 3 q28 -29 70 -42q13 -2 82 -17zM156 580v-411q0 -8 3 -15l40 14v401q0 11 -4 19l-1 -1l-2 6q-8 9 -21 9q-15 0 -15 -22zM281 641q-14 0 -15 -21l36 12q-8 9 -21 9zM294 177q15 0 15 22v410q0 10 -4 18l-39 -14v-404q0 -32 28 -32zM193 140q6 6 6 20v1l-37 -13q7 -11 22 -11 q7 0 9 3zM205 164q0 -14 -2 -20l80 28q-11 4 -17 13zM205 171l58 20q-3 8 -3 19v401l-59 -21q4 -9 4 -22v-397zM260 618q0 11 3 18l-82 -29q11 -3 17 -12zM154 740l-42 -15q13 0 26 -3q7 10 16 18zM17 197q0 -47 32 -89l104 37q-33 43 -33 92v423q0 32 14 56q-12 2 -24 2 q-42 0 -67.5 -28t-25.5 -70v-423zM53 103q37 -43 84 -53l82 -17q14 -3 26 -3q47 0 75 38q-83 18 -90 20q-43 14 -73 52zM308 46l50 18q-17 -1 -31 3q-8 -12 -19 -21zM448 167v423q0 47 -30 88l-104 -37q31 -43 31 -91v-423q0 -31 -14 -55q12 -2 24 -2q41 0 67 28t26 69z" />
<glyph unicode="p" horiz-adv-x="492" d="M127 759l206 -44q52 -11 89 -56t37 -98v-162q0 -78 -67 -100l1 -1l-113 -40l-1 1l-10 -3v-195l-4 -3v-1l-113 -40v1l-142 30v668l4 3zM423 647q-36 50 -91 62l-203 43v-58l91 -19q58 -12 97 -66zM340 353v168q0 39 -22 74q2 -7 2 -13v-146q0 -24 -18 -30 q-112 -40 -117 -40q-3 0 -35 7l2 213q1 0 2 1v-1l113 41q12 -2 34 -9q-35 41 -82 51l-90 19v-595l21 -4v186l4 3l1 -1l112 41l60 -13q13 22 13 48zM263 262v47l-96 -34q68 -15 80 -15q8 0 16 2zM123 689l-106 23v-658l106 38v597zM25 716l98 -20v55zM128 87l-101 -36 l123 -26v57zM313 434v149q0 7 -2 13l-42 -15l1 -163q25 -5 28 -5q15 0 15 21zM193 375v0h1q4 3 6 12l-33 -11q16 -4 18 -4q5 0 8 3zM263 586v32l-96 -34q16 -3 20 -5q10 -5 15 -15zM263 417v162l-59 -21q3 -7 3 -16v-145zM200 542q0 21 -12 28q-5 4 -32 9v-200l44 16v147z M156 379v-1h1zM206 390q0 -7 -2 -11l83 29l-19 4zM269 588l40 14q-6 10 -40 18v-32zM156 26l98 34l-98 21v-55zM263 65v190q-8 -1 -16 -1q-12 0 -91 17v-183zM269 311v-48q34 8 54 36zM310 276l52 18q-14 0 -32 4q-10 -15 -20 -22zM453 396v165q0 42 -26 80l-106 -38 q26 -39 26 -82v-162q0 -33 -13 -55q14 -3 27 -3q41 0 66.5 27t25.5 68z" />
<glyph unicode="q" horiz-adv-x="504" d="M458 617v-391q0 -70 -58 -95v-1l-59 -21v-62l-3 -2l-1 -1l-113 -40l-97 21v80q-50 13 -83.5 56.5t-33.5 94.5v391q0 72 63 96v1l113 40v-1q18 7 37 7q13 0 108 -20q53 -11 90 -55.5t37 -97.5zM420 704q-36 48 -91 60l-80 17q-14 3 -26 3q-48 0 -76 -39q79 -17 93 -22 q44 -16 74 -57zM338 184v393q0 40 -23 76q3 -8 3 -19v-376q0 -29 -21 -29h-5l-92 -32q-5 -8 -16 -8q-5 0 -8 1q30 -30 70 -41v-52l71 25q9 10 13 21v2h1q7 19 7 39zM334 114v7l-13 -5l-11 -11zM246 88q40 1 61 23l-61 -21v-2zM240 70v12q-6 1 -12 1v0v-18zM240 143l-106 -38 v-73l87 31v24l4 3h2l13 4v49zM163 624q-7 -5 -7 -20v-376q0 -8 3 -15l40 14v367q0 28 -22 32q-5 2 -6 1zM276 665v-1h-1q-6 -5 -6 -20v-1l37 13q-7 11 -22 11q-5 0 -8 -2zM263 641q0 13 2 20l-82 -30q11 -3 16 -13zM202 613q3 -9 3 -19v-364l60 21q-2 8 -2 17v366zM161 207 q8 -12 23 -12t15 21v4zM205 223q0 -13 -1 -18l78 28q-9 4 -14 12zM291 236l17 6q3 6 3 16v376q0 9 -2 16l-40 -14v-368q0 -27 22 -32zM284 674q12 0 21 -8q-28 37 -72 53q-13 5 -90 20q-14 -22 -14 -50v-393q0 -38 21 -73v381q0 19 9 26q4 1 10 3l103 37q11 4 12 4zM160 768 l-51 -18q14 0 31 -3q8 12 20 21zM17 647v-391q0 -43 26 -81l106 37q-26 40 -26 84v390q0 31 13 55q-12 3 -26 3q-41 0 -67 -28t-26 -69zM47 169q33 -45 83 -59l103 37q-48 16 -80 60zM142 28l79 -17v45zM228 12l96 35l-81 17l-15 -5v-47zM334 51v56l-47 -17q-19 -8 -41 -8 v-12zM341 116l17 6q-9 0 -17 1v-7zM358 128q57 0 82 49l-104 -37q-3 -7 -8 -14l8 2l2 2q11 -2 20 -2zM451 226v391q0 43 -27 82l-106 -38q27 -40 27 -84v-391q0 -20 -6 -38l104 37v-1q8 19 8 42z" />
<glyph unicode="r" horiz-adv-x="511" d="M124 790l211 -45q53 -11 91 -59.5t38 -102.5v-90q0 -43 -27.5 -72t-70.5 -31q43 -19 70.5 -58.5t27.5 -85.5v-201l-114 -40l-149 32v25l-41 -14v-2l-150 33v671zM410 694q-34 36 -77 45l-204 43v-57l93 -20q46 -10 82 -49zM319 386q26 26 26 67v90q0 52 -37 98.5 t-88 57.5l-91 19v-594l25 -5l1 201l81 30l1 5l-1 1l1 1h1zM345 206q0 40 -25 78v-202l25 -5v129zM314 315q0 12 -4 20l-20 -7q13 -11 24 -25v12zM283 332l23 8q-5 6 -33 12v-13q5 -3 10 -7zM267 94v225l-64 -22q5 -9 5 -22v-168zM258 89l-50 11v-29zM160 312v-195l41 -9v167 q0 21 -11 28q-5 4 -30 9zM201 302l-1 1l67 23v10q-10 6 -20 10l-82 -29q17 -3 20 -4q10 -4 16 -11zM273 332v-3l3 1zM267 343v8q-4 0 -12 -2q6 -2 12 -6zM268 360l4 -1q19 4 34 15l-38 -13v-1zM17 86l106 37v597l-106 22v-656zM123 783l-100 -35l100 -22v57zM26 82l128 -28 v58l-27 6zM160 55l41 14v33l-41 9v-56zM270 87l-62 -23v-19l106 38v210q-10 16 -31 32l-10 -3v-236zM215 41l130 -28v58l-28 6zM351 12l101 36l-101 21v-57zM458 53v193q0 33 -17 64l-106 -38q16 -32 16 -66v-130zM438 316q-31 55 -87 74l-28 -10q-16 -16 -38 -24 q11 -2 28 -13h1q6 -21 6 -48q7 -9 12 -17zM458 493v90q0 56 -43 105l-107 -38q43 -50 43 -107v-90q0 -37 -20 -63l19 6v1q45 -4 76.5 23.5t31.5 72.5zM267 649q33 -7 39 -11q14 -9 14 -34v-121q0 -21 -8 -26q-2 -1 -10 -4l-103 -36q-3 -4 -12 -4q-3 0 -33 6v190l2 -1l111 39 v2zM310 625q-6 9 -37 16v-29zM267 640l-99 -34q17 -4 20 -5q10 -5 15 -14l64 22v31zM271 458l-64 -22q0 -6 -2 -10l82 29zM267 464v138l-62 -21q3 -8 3 -18v-120zM160 601v-175l41 14v123q0 22 -10 29q-6 3 -31 9zM170 422q15 -3 17 -3q11 0 13 14zM314 482v123q0 7 -2 14 l-39 -14v-140q26 -6 27 -5l8 2q6 6 6 20z" />
<glyph unicode="s" horiz-adv-x="505" d="M437 668v-1q23 -43 23 -78v-122l-74 -26q34 -17 54 -53t20 -75v-143q0 -67 -56 -95v-1l-113 -40q-28 -10 -44 -10q-9 0 -28 4l-81 17q-52 11 -90 56t-38 98v105h1l85 30q-37 12 -61.5 47t-24.5 74v164q0 78 72 99v0l96 34q31 11 46 11q14 0 108 -20q66 -14 104 -75h1z M430 666q-36 56 -99 70l-81 18q-9 2 -26 2q-14 0 -27 -3v-1q-34 -11 -51 -35l18 -4q71 -15 83 -20q45 -18 76 -65zM341 499v49q0 41 -24 78q3 -8 3 -19v-103zM348 445v-11l19 7zM341 272q0 40 -21 75v-145q0 -22 -9 -25l1 -1l-113 -40q-2 -5 -13 -5q-5 0 -8 1q10 -9 21 -17 q1 1 1 0q24 -17 52 -23l76 -16q13 23 13 53v143zM129 272v-32q0 -38 22 -73q-1 3 -1 100zM122 334v2l-4 -1zM164 148q7 -10 22 -10t15 22v1zM157 266v-96q0 -9 3 -17l41 15v114zM267 191q-4 9 -4 21v92l-55 -20v-114zM208 163q0 -12 -3 -18l83 29q-11 4 -18 12zM299 179 q14 0 14 21v150l-80 -29l36 -7v-102q0 -11 4 -18h1q3 -15 25 -15zM259 309l-37 8l-14 -5v-21zM201 317l8 3l-80 17v-5zM201 310l-72 16v-47l27 -6l45 16v21zM129 496q0 -36 21 -67v148q0 18 9 25v1l112 40q3 5 14 5t21 -7q-30 40 -73 51q-17 4 -91 19q-13 -22 -13 -51v-164z M269 488l44 16v104q0 10 -3 17l-41 -15v-122zM274 637q-5 -6 -5 -19v-1l38 14q-8 10 -22 10q-5 0 -9 -2q0 -1 -2 -2zM263 615q0 12 2 19l-82 -29q12 -4 18 -12zM204 587q4 -9 4 -21v-100l55 20v122zM157 579v-148l63 22l-19 4v109q0 34 -29 34q-15 0 -15 -21zM213 461l19 -3 l31 11v10zM266 463l-22 -8l97 -21v13zM269 469l72 -15v39l-25 5l-47 -17v-12zM156 738l-45 -16q14 0 28 -3q7 10 17 19zM17 619v-164q0 -35 20 -66l107 38q-22 33 -22 69v164q0 30 13 53q-12 2 -24 2q-41 0 -67.5 -27.5t-26.5 -68.5zM41 384q27 -37 65 -47l16 6v2l99 -21 l83 30l-84 17q-42 8 -72 51zM156 421q23 -34 66 -43l89 -19q-28 36 -63 43zM107 331l-84 -30l99 -21v47q-5 1 -15 4zM17 199q0 -76 69 -125v1l106 38q-70 51 -70 127v33l-105 23v-97zM92 70q21 -14 47 -19l81 -17q14 -3 27 -3q49 0 77 39q-22 4 -65 13q-35 7 -61 25zM314 49 l46 17q-5 0 -14.5 1.5t-14.5 1.5q-7 -11 -17 -20zM454 170v143q0 37 -18 69l-107 -38q19 -34 19 -72v-143q0 -31 -13 -54q12 -3 24 -3q42 0 68.5 28t26.5 70zM432 388q-23 36 -55 50l-29 -11v-1l-116 25l-69 -25l87 -18q44 -9 76 -58zM377 445l71 25l-100 21v-39 q10 -2 29 -7zM454 475v114q0 38 -20 71l-107 -38q17 -28 20 -60q1 -10 1 -64z" />
<glyph unicode="t" horiz-adv-x="510" d="M124 779l351 -74v-126h-2l-101 -36v-489h-3l-109 -38v-3l-4 1h-1l-142 31v547l-103 21v126h1zM122 772l-99 -35l99 -22v57zM363 659v-52l2 1v1l2 -1l101 -21v110zM363 600v-53l2 1v53zM356 605v54l-227 48v-48l102 -22v-547l22 -4v482h1zM356 598l-90 -32l90 -19v51z M119 590v-538l106 37v538zM229 84l-101 -36l125 -26v57zM122 659v50l-105 22v-109zM23 617l96 -20l101 36l-96 20zM260 23l96 34l-96 21v-55zM365 62v479l-2 -1v-2l-3 1l-100 21v-476zM372 550l89 32l-89 19v-51zM460 701l-331 70v-57l230 -49z" />
<glyph unicode="u" horiz-adv-x="510" d="M315 730v-1l145 -31v-544q0 -72 -63 -97v-1l-114 -41v1q-17 -7 -36 -7q-13 0 -27 3l-82 17q-62 13 -102 73h-1v2q-25 46 -25 79v546h1l112 40v1l146 -31v-25zM314 723l-45 -16v-33l45 -9v58zM328 60q14 23 14 53v539l-22 5v-470q0 -22 -10 -26v-1l-111 -39q-2 -5 -13 -5 q-5 0 -8 1q30 -30 70 -39q2 -1 80 -18zM129 224q0 -38 22 -73v542l-22 4v-473zM208 681v-524l58 21q-3 8 -3 20v471zM212 686l51 -11v30zM269 172l-61 -22q0 -14 -3 -20l83 29q-13 3 -19 13zM201 145v3l-38 -14q8 -11 23 -11q9 1 9 3v0q6 6 6 19zM313 185l1 473l-45 9v-469 q0 -34 29 -34q15 0 15 21zM202 688v2l61 21v19l-106 -37v-538q0 -8 3 -15l41 15zM256 735l-127 27v-58l25 -5zM123 762l-100 -36l100 -21v57zM17 721v-538q0 -38 21 -73l107 38q-22 36 -22 76v475zM42 104q37 -54 98 -68l81 -18q13 -3 26 -3q49 0 77 40q-82 17 -100 24 q-45 18 -75 63zM312 33l50 17q-16 0 -31 3q-8 -11 -19 -20zM359 57q42 0 68.5 27.5t26.5 69.5v536l-106 -38v-539q0 -31 -13 -54q13 -2 24 -2zM447 694l-127 27v-58l25 -5z" />
<glyph unicode="v" horiz-adv-x="591" d="M451 41l-114 -41l-206 44l-121 702l2 -1v1l111 40v1l161 -34l12 -78l2 9h2l-1 1l111 40v1l3 -1l152 -32zM250 91l93 -20l101 576l-37 7l-56 -411h-3v-1l-110 -40q-2 0 -3 -1v1h-3q-30 247 -67 504l-22 5zM296 628l-57 -418l105 37zM451 647l-101 -578l95 -20l111 635z M552 689l-136 29l-8 -57l40 -9zM409 717l-99 -35l92 -20zM303 677l-3 -24q0 -1 1 -8l30 -185q17 -111 17 -186v-5l53 387zM293 653q-7 42 -14 92l-107 -38l16 -103l30 -185q17 -110 17 -187v-5zM271 749l-140 30l11 -61l26 -6zM124 779l-102 -36l113 -24zM18 737l118 -686 l107 38l-107 623zM145 48l187 -40l10 56l-93 20zM349 63l-10 -54l99 35z" />
<glyph unicode="w" horiz-adv-x="819" d="M649 674v1l143 -30l-107 -610h-1v-1l-106 -38l-1 3l-1 -3l-190 40l-6 41l-67 -24l-1 3v-4l-191 40l-111 656h2v1l106 38l1 -4v5l147 -32l10 -64h1v1l106 39l150 -32l10 -65h2v1zM648 667l-95 -34l88 -19zM546 628l-1 -8l3 -21l27 -178q19 -131 16 -175l49 362zM500 80 l82 -17l94 538l-30 6l-52 -385h-2v-1l-106 -37zM587 226l-45 372l-56 -408zM539 620l-11 71l-102 -36l14 -95q22 -149 30 -229q1 -26 8 -91l5 -31zM415 98l35 289l-101 -36l34 -246zM408 94l-24 5l2 -13zM376 107l-30 224l-26 -212zM451 395h2q-14 126 -34 260l-39 9 l-52 -386q-1 1 -108 -37v1l-1 -3h-1l17 -102l79 -17l29 235h3v1l105 38v1zM202 333q-22 185 -50 379l-15 3zM321 283l-46 374l-55 -410zM522 696l-134 28l-8 -54l44 -9zM382 724l-97 -34l89 -19zM279 685l-1 -7q1 -4 4 -23l28 -174q15 -107 15 -174v-4l49 362zM272 678 l-11 70l-103 -36l15 -96l28 -174q16 -106 16 -174l-1 -5zM255 752l-129 28l10 -58l20 -5zM120 781l-99 -35l108 -23zM18 741l108 -641l103 36l-98 581zM133 96l173 -37l7 55l-81 17zM312 60l68 23l-3 17l-58 13zM386 79l6 -38h2l-2 4l102 36l-14 102h-1q-7 62 -24 187 l-35 -279h-1zM397 40l174 -37l10 54l-85 18zM578 3l96 34l-87 19zM680 42l104 595l-102 -36l-94 -539zM778 641l-123 26l-8 -54l33 -7z" />
<glyph unicode="x" horiz-adv-x="581" d="M394 740l151 -32l-135 -322l123 -346l-3 1l-109 -39l1 -2l-155 33l-13 48l-77 -27l-1 -2l-153 33l122 293l-134 380l111 39v1l1 -1l1 1l1 -1l151 -32l18 -60zM430 669l100 35l-134 29l-20 -53zM321 265l-29 82l132 316l-50 11l-43 -115h-1l-104 -37l38 -105l-121 -288 l45 -9l30 108h1v1zM326 251l-3 8l-102 -37l33 -116l29 -6zM273 95l-17 4l2 -9zM246 107l-27 99l-24 -88zM223 531l1 -2l104 37l-37 125l-7 2zM298 690l33 -111l36 96zM388 731l-92 -33v-1l74 -16zM288 702l-17 56l-105 -38q16 -61 54 -179l60 159h1zM173 672l-14 47l-3 1z M262 761l-130 28l22 -62l7 -1zM124 791l-101 -36l123 -26zM20 749l130 -367l106 38l-36 100h-1v-1q-1 3 -3 7h1q-7 23 -68 196zM151 376l-118 -283l104 37l118 282zM38 88l134 -28l15 54l-48 10zM179 62l73 26l-4 12l-55 12zM260 84l12 -44l106 37q-15 55 -49 163l-41 -148 l-3 1zM374 114l10 -36h3zM282 36l130 -27l-22 61l-8 2zM419 8l99 35l-121 26zM523 49l-118 333l-105 -38l27 -77l3 1l1 2l18 -66l46 -128zM404 388l130 311l-103 -37l-130 -311z" />
<glyph unicode="y" horiz-adv-x="574" d="M543 693l-134 -326v-318l-113 -40v1l-153 33v316l-131 384l108 39v1l2 -1l2 1l1 -1l149 -32l18 -61l98 36zM150 51l103 36v307l-103 -37v-306zM260 88l32 -7l1 248q-1 1 0 1l131 318l-52 11l-42 -114q0 -1 -1 -1v-2l-1 2l-105 -38l37 -106v-312zM188 607l-29 97l-5 2z M284 678l-61 -165l103 37l-37 127zM296 675l33 -112l37 97zM299 325v-246l103 -22v305zM403 369l129 314l-101 -36l-130 -314zM529 689l-135 29l-19 -53l54 -11zM386 716l-92 -33v-1l74 -15zM281 685l5 2l-16 55l-104 -37l53 -182l61 162h1zM262 746l-132 28l21 -61l11 -3z M123 775l-100 -35l121 -26zM20 734l128 -371l104 37l-106 307zM157 46l135 -28v56l-35 8zM299 73v-56l98 35z" />
<glyph unicode="z" horiz-adv-x="470" d="M446 47h-2l-111 -39l-300 65v95l138 423l-161 34v125h1l112 39l307 -65v-115l-145 -400l161 -34v-128zM128 669l164 -34l-141 -429v-89l177 -38v52l-164 34l148 406v108l-184 39v-49zM122 670v50l-106 22v-110zM334 129v-51l106 -23v112zM433 171l-152 33l-100 -35 l153 -33zM278 210l143 393l-104 -37l-143 -393zM424 716l-106 -38v-105l106 37v106zM416 720l-288 61v-56l189 -40zM122 782l-98 -35l98 -21v56zM25 629l154 -33l100 35l-155 33zM177 588l-136 -416l104 37l137 416zM39 80l106 37v85l-106 -38v-84zM48 76l280 -60v56 l-181 40zM334 15l98 35l-98 21v-56z" />
<glyph unicode="{" d="M448 508l219 -59l-177 -114l65 -273l-6 -3l-127 153l45 -192l-5 -3l-163 195l-93 -61l1 -3q-43 -18 -94 -44l3 9l-1 1h1l66 238l-175 214l86 39l-2 2l5 -1h1l145 -38l53 183l1 -4l84 38l2 8zM365 464l203 -55l82 38l-202 54zM409 238l-14 58l168 108l-207 56l-29 122 l-11 -40h-1v-1l-86 -38l-1 -3l-49 12l98 -116l-2 -5l-58 -210l74 49q37 15 88 43zM332 242l-36 -17l4 -4zM232 511l75 34l-61 15zM360 469l82 37l-60 261l-51 -172zM378 777l-81 -36l31 -133zM294 725l-46 -158l63 -17l13 45zM240 562l-130 34l62 -75l52 -13zM98 600 l-84 -38l147 -38zM22 553l164 -196l83 38l-101 120zM189 352l-65 -232l84 55l59 212zM206 165l-53 -34l49 22zM212 162l83 55l-4 5l-77 -51zM458 32l-46 191l-33 40q-5 -2 -75 -47zM545 74l-60 255l-82 -37l15 -66zM482 338l135 87l-40 -18l2 -1l-143 -92l47 22zM465 17 l90 40l2 -6l-90 -40z" />
<glyph unicode="|" d="M448 508l219 -59l-177 -114l65 -273l-6 -3l-127 153l45 -192l-5 -3l-163 195l-93 -61l1 -3q-43 -18 -94 -44l3 9l-1 1h1l66 238l-175 214l86 39l-2 2l5 -1h1l145 -38l53 183l1 -4l84 38l2 8zM365 464l203 -55l82 38l-202 54zM409 238l-14 58l168 108l-207 56l-29 122 l-11 -40h-1v-1l-86 -38l-1 -3l-49 12l98 -116l-2 -5l-58 -210l74 49q37 15 88 43zM332 242l-36 -17l4 -4zM232 511l75 34l-61 15zM360 469l82 37l-60 261l-51 -172zM378 777l-81 -36l31 -133zM294 725l-46 -158l63 -17l13 45zM240 562l-130 34l62 -75l52 -13zM98 600 l-84 -38l147 -38zM22 553l164 -196l83 38l-101 120zM189 352l-65 -232l84 55l59 212zM206 165l-53 -34l49 22zM212 162l83 55l-4 5l-77 -51zM458 32l-46 191l-33 40q-5 -2 -75 -47zM545 74l-60 255l-82 -37l15 -66zM482 338l135 87l-40 -18l2 -1l-143 -92l47 22zM465 17 l90 40l2 -6l-90 -40z" />
<glyph unicode="}" d="M448 508l219 -59l-177 -114l65 -273l-6 -3l-127 153l45 -192l-5 -3l-163 195l-93 -61l1 -3q-43 -18 -94 -44l3 9l-1 1h1l66 238l-175 214l86 39l-2 2l5 -1h1l145 -38l53 183l1 -4l84 38l2 8zM365 464l203 -55l82 38l-202 54zM409 238l-14 58l168 108l-207 56l-29 122 l-11 -40h-1v-1l-86 -38l-1 -3l-49 12l98 -116l-2 -5l-58 -210l74 49q37 15 88 43zM332 242l-36 -17l4 -4zM232 511l75 34l-61 15zM360 469l82 37l-60 261l-51 -172zM378 777l-81 -36l31 -133zM294 725l-46 -158l63 -17l13 45zM240 562l-130 34l62 -75l52 -13zM98 600 l-84 -38l147 -38zM22 553l164 -196l83 38l-101 120zM189 352l-65 -232l84 55l59 212zM206 165l-53 -34l49 22zM212 162l83 55l-4 5l-77 -51zM458 32l-46 191l-33 40q-5 -2 -75 -47zM545 74l-60 255l-82 -37l15 -66zM482 338l135 87l-40 -18l2 -1l-143 -92l47 22zM465 17 l90 40l2 -6l-90 -40z" />
<glyph unicode="~" d="M448 508l219 -59l-177 -114l65 -273l-6 -3l-127 153l45 -192l-5 -3l-163 195l-93 -61l1 -3q-43 -18 -94 -44l3 9l-1 1h1l66 238l-175 214l86 39l-2 2l5 -1h1l145 -38l53 183l1 -4l84 38l2 8zM365 464l203 -55l82 38l-202 54zM409 238l-14 58l168 108l-207 56l-29 122 l-11 -40h-1v-1l-86 -38l-1 -3l-49 12l98 -116l-2 -5l-58 -210l74 49q37 15 88 43zM332 242l-36 -17l4 -4zM232 511l75 34l-61 15zM360 469l82 37l-60 261l-51 -172zM378 777l-81 -36l31 -133zM294 725l-46 -158l63 -17l13 45zM240 562l-130 34l62 -75l52 -13zM98 600 l-84 -38l147 -38zM22 553l164 -196l83 38l-101 120zM189 352l-65 -232l84 55l59 212zM206 165l-53 -34l49 22zM212 162l83 55l-4 5l-77 -51zM458 32l-46 191l-33 40q-5 -2 -75 -47zM545 74l-60 255l-82 -37l15 -66zM482 338l135 87l-40 -18l2 -1l-143 -92l47 22zM465 17 l90 40l2 -6l-90 -40z" />
<glyph unicode="&#xad;" d="M448 508l219 -59l-177 -114l65 -273l-6 -3l-127 153l45 -192l-5 -3l-163 195l-93 -61l1 -3q-43 -18 -94 -44l3 9l-1 1h1l66 238l-175 214l86 39l-2 2l5 -1h1l145 -38l53 183l1 -4l84 38l2 8zM365 464l203 -55l82 38l-202 54zM409 238l-14 58l168 108l-207 56l-29 122 l-11 -40h-1v-1l-86 -38l-1 -3l-49 12l98 -116l-2 -5l-58 -210l74 49q37 15 88 43zM332 242l-36 -17l4 -4zM232 511l75 34l-61 15zM360 469l82 37l-60 261l-51 -172zM378 777l-81 -36l31 -133zM294 725l-46 -158l63 -17l13 45zM240 562l-130 34l62 -75l52 -13zM98 600 l-84 -38l147 -38zM22 553l164 -196l83 38l-101 120zM189 352l-65 -232l84 55l59 212zM206 165l-53 -34l49 22zM212 162l83 55l-4 5l-77 -51zM458 32l-46 191l-33 40q-5 -2 -75 -47zM545 74l-60 255l-82 -37l15 -66zM482 338l135 87l-40 -18l2 -1l-143 -92l47 22zM465 17 l90 40l2 -6l-90 -40z" />
<glyph unicode="&#x2000;" horiz-adv-x="400" />
<glyph unicode="&#x2001;" horiz-adv-x="800" />
<glyph unicode="&#x2002;" horiz-adv-x="400" />
<glyph unicode="&#x2003;" horiz-adv-x="800" />
<glyph unicode="&#x2004;" horiz-adv-x="266" />
<glyph unicode="&#x2005;" horiz-adv-x="200" />
<glyph unicode="&#x2006;" horiz-adv-x="133" />
<glyph unicode="&#x2007;" horiz-adv-x="133" />
<glyph unicode="&#x2008;" horiz-adv-x="100" />
<glyph unicode="&#x2009;" horiz-adv-x="160" />
<glyph unicode="&#x200a;" horiz-adv-x="44" />
<glyph unicode="&#x2011;" d="M448 508l219 -59l-177 -114l65 -273l-6 -3l-127 153l45 -192l-5 -3l-163 195l-93 -61l1 -3q-43 -18 -94 -44l3 9l-1 1h1l66 238l-175 214l86 39l-2 2l5 -1h1l145 -38l53 183l1 -4l84 38l2 8zM365 464l203 -55l82 38l-202 54zM409 238l-14 58l168 108l-207 56l-29 122 l-11 -40h-1v-1l-86 -38l-1 -3l-49 12l98 -116l-2 -5l-58 -210l74 49q37 15 88 43zM332 242l-36 -17l4 -4zM232 511l75 34l-61 15zM360 469l82 37l-60 261l-51 -172zM378 777l-81 -36l31 -133zM294 725l-46 -158l63 -17l13 45zM240 562l-130 34l62 -75l52 -13zM98 600 l-84 -38l147 -38zM22 553l164 -196l83 38l-101 120zM189 352l-65 -232l84 55l59 212zM206 165l-53 -34l49 22zM212 162l83 55l-4 5l-77 -51zM458 32l-46 191l-33 40q-5 -2 -75 -47zM545 74l-60 255l-82 -37l15 -66zM482 338l135 87l-40 -18l2 -1l-143 -92l47 22zM465 17 l90 40l2 -6l-90 -40z" />
<glyph unicode="&#x202f;" horiz-adv-x="160" />
<glyph unicode="&#x205f;" horiz-adv-x="200" />
</font>
</defs>
</svg>
