<?xml version="1.0" standalone="no"?>
<!DOCTYPE svg PUBLIC "-//W3C//DTD SVG 1.1//EN" "http://www.w3.org/Graphics/SVG/1.1/DTD/svg11.dtd" >
<svg xmlns="http://www.w3.org/2000/svg">
<metadata>
This is a custom SVG webfont generated by Font Squirrel.
Designer    : Chris Morast
Foundry     : Woo
Foundry URL : www.astrostudios.com
</metadata>
<defs>
<font id="webfont6lu5Ob3y" horiz-adv-x="800" >
<font-face units-per-em="1000" ascent="800" descent="-200" />
<missing-glyph horiz-adv-x="504" />
<glyph unicode=" "  horiz-adv-x="504" />
<glyph unicode="&#x09;" horiz-adv-x="504" />
<glyph unicode="&#xa0;" horiz-adv-x="504" />
<glyph unicode="!" horiz-adv-x="344" d="M172 242q50 0 85.5 -35.5t35.5 -85.5t-35.5 -85.5t-85.5 -35.5t-85.5 35.5t-35.5 85.5t35.5 85.5t85.5 35.5zM294 295h-244v405h244v-405z" />
<glyph unicode="&#x22;" horiz-adv-x="542" d="M392 701q40 0 71 -29q29 -29 29 -71t-29 -71q-8 -8 -51 -36l-82 -52l-39 -23v182q0 41 30 71q29 29 71 29zM151 701q40 0 71 -29q29 -29 29 -71t-29 -71q-8 -8 -51 -36l-82 -52l-39 -23v182q0 41 30 71q29 29 71 29z" />
<glyph unicode="'" horiz-adv-x="301" d="M151 701q40 0 71 -29q29 -29 29 -71t-29 -71q-8 -8 -51 -36l-82 -52l-39 -23v182q0 41 30 71q29 29 71 29z" />
<glyph unicode="," horiz-adv-x="306" d="M151 200q40 0 71 -29q29 -29 29 -71t-29 -71q-8 -8 -51 -35l-82 -52l-39 -24v182q0 41 30 71q29 29 71 29z" />
<glyph unicode="-" d="M750 472v-244h-700v244h700z" />
<glyph unicode="." horiz-adv-x="300" d="M150 200q41 0 70.5 -29.5t29.5 -70.5t-29.5 -70.5t-70.5 -29.5t-70.5 29.5t-29.5 70.5t29.5 70.5t70.5 29.5z" />
<glyph unicode="/" horiz-adv-x="561" d="M234 700h306l-213 -700h-306z" />
<glyph unicode="0" horiz-adv-x="769" d="M384 718q152 0 260 -108t108 -260t-108 -260t-260 -108t-260 108t-108 260t108 260t260 108z" />
<glyph unicode="1" horiz-adv-x="549" d="M499 700v-700h-383v350h-88l88 350h383z" />
<glyph unicode="2" horiz-adv-x="766" d="M479 700q106 0 181 -75t75 -181q0 -87 -53 -155.5t-135 -90.5v-198h-249h-263v256q0 87 53 155.5t135 90.5v198h256z" />
<glyph unicode="3" horiz-adv-x="709" d="M667 477q0 -69 -39 -127q39 -58 39 -127q0 -92 -65 -157t-157 -66h-1h-1h-393v196h113v35h-113v238h113v35h-113v196h394q92 0 157.5 -65.5t65.5 -157.5z" />
<glyph unicode="4" horiz-adv-x="700" d="M650 700v-700h-456v145h-169l169 555h456z" />
<glyph unicode="5" horiz-adv-x="766" d="M547 700v-198q82 -22 135 -90.5t53 -155.5q0 -106 -75 -181t-181 -75h-256v198q-82 22 -135 90.5t-53 155.5v256h512z" />
<glyph unicode="6" horiz-adv-x="699" d="M250 700h353l-105 -160q75 -33 120.5 -103t45.5 -154q0 -117 -83 -200t-200 -83h-67q-117 0 -200 83t-83 200q0 82 44 151z" />
<glyph unicode="7" horiz-adv-x="751" d="M724 700l-213 -700h-463l124 404h-124v296h676z" />
<glyph unicode="8" horiz-adv-x="711" d="M355 700q54 0 85 -13q47 -19 76 -61.5t29 -94.5q62 -40 98 -104t36 -139q0 -89 -49.5 -161t-129.5 -105q-52 -22 -145 -22t-145 22q-80 33 -129.5 105t-49.5 161q0 75 36 139t98 104q0 52 29 94.5t76 61.5q31 13 85 13z" />
<glyph unicode="9" horiz-adv-x="700" d="M385 700q117 0 200 -83t83 -200q0 -82 -44 -151l-175 -266h-353l105 160q-75 33 -120.5 103t-45.5 154q0 117 83 200t200 83h67z" />
<glyph unicode=":" horiz-adv-x="301" d="M151 471q41 0 70.5 -29.5t29.5 -70.5q0 -42 -29.5 -71t-70.5 -29q-42 0 -71.5 29t-29.5 71q0 41 29.5 70.5t71.5 29.5zM151 200q41 0 70.5 -29.5t29.5 -70.5q0 -42 -29.5 -71t-70.5 -29q-42 0 -71.5 29t-29.5 71q0 41 29.5 70.5t71.5 29.5z" />
<glyph unicode=";" horiz-adv-x="301" d="M151 200q40 0 71 -29q29 -29 29 -71t-29 -71q-8 -8 -51 -35l-82 -52l-39 -24v182q0 41 30 71q29 29 71 29zM151 471q41 0 70.5 -29.5t29.5 -70.5q0 -42 -29.5 -71t-70.5 -29q-42 0 -71.5 29t-29.5 71q0 41 29.5 70.5t71.5 29.5z" />
<glyph unicode="A" horiz-adv-x="801" d="M785 0h-769l384 700z" />
<glyph unicode="B" horiz-adv-x="739" d="M50 700h333q53 0 85 -13q47 -19 76 -61.5t29 -94.5q62 -40 98 -104t36 -139q0 -89 -49.5 -161.5t-129.5 -105.5q-53 -21 -145 -21h-333v700z" />
<glyph unicode="C" horiz-adv-x="784" d="M734 700v-332h-126v-36h126v-332h-350q-145 0 -247.5 102.5t-102.5 247.5t102.5 247.5t247.5 102.5h350z" />
<glyph unicode="D" horiz-adv-x="785" d="M400 700q145 0 247.5 -102.5t102.5 -247.5t-102.5 -247.5t-247.5 -102.5h-350v700h350z" />
<glyph unicode="E" horiz-adv-x="775" d="M725 305h-127v-35h127v-270h-675v700h675v-270h-127v-35h127v-90z" />
<glyph unicode="F" horiz-adv-x="769" d="M598 368v-36h127v-167h-127v-165h-548v700h674v-331v-1h-126z" />
<glyph unicode="G" horiz-adv-x="784" d="M610 332h126v-332h-350q-145 0 -247.5 102.5t-102.5 247.5t102.5 247.5t247.5 102.5h350v-332h-162v-119h36v83z" />
<glyph unicode="H" horiz-adv-x="774" d="M403 0v126h-36v-126h-319v700h319v-126h36v126h319l1 -700h-320z" />
<glyph unicode="I" horiz-adv-x="619" d="M569 700v-700h-519v700h519z" />
<glyph unicode="J" horiz-adv-x="765" d="M723 700v-350q0 -145 -102.5 -247.5t-247.5 -102.5t-247.5 102.5t-102.5 247.5h181v350h519z" />
<glyph unicode="K" horiz-adv-x="794" d="M750 700l-192 -350l192 -350h-700v700h700z" />
<glyph unicode="L" horiz-adv-x="784" d="M569 700v-350h181v-350h-700v700h519z" />
<glyph unicode="M" d="M750 700v-700h-700v700l350 -192z" />
<glyph unicode="N" d="M750 700v-700h-700v700l350 -192v192h350z" />
<glyph unicode="O" horiz-adv-x="769" d="M384 718q152 0 260 -108t108 -260t-108 -260t-260 -108t-260 108t-108 260t108 260t260 108z" />
<glyph unicode="P" horiz-adv-x="751" d="M437 700q117 0 199.5 -83t82.5 -200q0 -84 -45 -153.5t-120 -103.5v-160h-504v700h387z" />
<glyph unicode="Q" horiz-adv-x="769" d="M570 192l-25 -25l89 -89q-106 -96 -247 -96q-152 0 -260 108t-108 260t108 259.5t260 107.5t259.5 -107.5t107.5 -259.5q0 -142 -95 -247z" />
<glyph unicode="R" horiz-adv-x="746" d="M428 700q117 0 199.5 -83t82.5 -200q0 -84 -45.5 -154t-120.5 -103l106 -160h-600v700h378z" />
<glyph unicode="S" horiz-adv-x="700" d="M377 718q139 0 241 -100l-53 -53q100 -101 100 -242t-100 -241q-102 -100 -242 -100q-139 0 -241 100l53 53q-100 101 -100 242t100 241q102 100 242 100z" />
<glyph unicode="T" horiz-adv-x="783" d="M742 700v-350h-91v-350h-518v350h-91v350h700z" />
<glyph unicode="U" horiz-adv-x="784" d="M43 700h332v-126h36v126h332v-350q0 -145 -102.5 -247.5t-247.5 -102.5t-247.5 102.5t-102.5 247.5v350z" />
<glyph unicode="V" horiz-adv-x="801" d="M785 700l-385 -700l-384 700h769z" />
<glyph unicode="W" d="M750 700v-700l-350 192l-350 -192v700h700z" />
<glyph unicode="X" horiz-adv-x="789" d="M744 700l-158 -350l158 -350h-700l158 350l-158 350h700z" />
<glyph unicode="Y" horiz-adv-x="759" d="M729 700l-158 -350v-350h-384v350l-158 350h700z" />
<glyph unicode="Z" horiz-adv-x="795" d="M747 700l-192 -350h192v-350h-700l192 350h-192v350h700z" />
<glyph unicode="a" horiz-adv-x="801" d="M785 0h-769l384 700z" />
<glyph unicode="b" horiz-adv-x="739" d="M50 700h333q53 0 85 -13q47 -19 76 -61.5t29 -94.5q62 -40 98 -104t36 -139q0 -89 -49.5 -161.5t-129.5 -105.5q-53 -21 -145 -21h-333v700z" />
<glyph unicode="c" horiz-adv-x="784" d="M734 700v-332h-126v-36h126v-332h-350q-145 0 -247.5 102.5t-102.5 247.5t102.5 247.5t247.5 102.5h350z" />
<glyph unicode="d" horiz-adv-x="785" d="M400 700q145 0 247.5 -102.5t102.5 -247.5t-102.5 -247.5t-247.5 -102.5h-350v700h350z" />
<glyph unicode="e" horiz-adv-x="775" d="M725 305h-127v-35h127v-270h-675v700h675v-270h-127v-35h127v-90z" />
<glyph unicode="f" horiz-adv-x="769" d="M598 368v-36h127v-167h-127v-165h-548v700h674v-331v-1h-126z" />
<glyph unicode="g" horiz-adv-x="784" d="M610 332h126v-332h-350q-145 0 -247.5 102.5t-102.5 247.5t102.5 247.5t247.5 102.5h350v-332h-162v-119h36v83z" />
<glyph unicode="h" horiz-adv-x="774" d="M403 0v126h-36v-126h-319v700h319v-126h36v126h319l1 -700h-320z" />
<glyph unicode="i" horiz-adv-x="619" d="M569 700v-700h-519v700h519z" />
<glyph unicode="j" horiz-adv-x="765" d="M723 700v-350q0 -145 -102.5 -247.5t-247.5 -102.5t-247.5 102.5t-102.5 247.5h181v350h519z" />
<glyph unicode="k" horiz-adv-x="794" d="M750 700l-192 -350l192 -350h-700v700h700z" />
<glyph unicode="l" horiz-adv-x="784" d="M569 700v-350h181v-350h-700v700h519z" />
<glyph unicode="m" d="M750 700v-700h-700v700l350 -192z" />
<glyph unicode="n" d="M750 700v-700h-700v700l350 -192v192h350z" />
<glyph unicode="o" horiz-adv-x="769" d="M384 718q152 0 260 -108t108 -260t-108 -260t-260 -108t-260 108t-108 260t108 260t260 108z" />
<glyph unicode="p" horiz-adv-x="751" d="M437 700q117 0 199.5 -83t82.5 -200q0 -84 -45 -153.5t-120 -103.5v-160h-504v700h387z" />
<glyph unicode="q" horiz-adv-x="769" d="M570 192l-25 -25l89 -89q-106 -96 -247 -96q-152 0 -260 108t-108 260t108 259.5t260 107.5t259.5 -107.5t107.5 -259.5q0 -142 -95 -247z" />
<glyph unicode="r" horiz-adv-x="746" d="M428 700q117 0 199.5 -83t82.5 -200q0 -84 -45.5 -154t-120.5 -103l106 -160h-600v700h378z" />
<glyph unicode="s" horiz-adv-x="762" d="M543 700v-198q82 -22 135 -90.5t53 -155.5q0 -106 -75 -181t-181 -75h-256v198q-82 22 -135 90.5t-53 155.5q0 106 75 181t181 75h256z" />
<glyph unicode="t" horiz-adv-x="783" d="M742 700v-350h-91v-350h-518v350h-91v350h700z" />
<glyph unicode="u" horiz-adv-x="784" d="M43 700h332v-126h36v126h332v-350q0 -145 -102.5 -247.5t-247.5 -102.5t-247.5 102.5t-102.5 247.5v350z" />
<glyph unicode="v" horiz-adv-x="801" d="M785 700l-385 -700l-384 700h769z" />
<glyph unicode="w" d="M750 700v-700l-350 192l-350 -192v700h700z" />
<glyph unicode="x" horiz-adv-x="789" d="M744 700l-158 -350l158 -350h-700l158 350l-158 350h700z" />
<glyph unicode="y" horiz-adv-x="759" d="M729 700l-158 -350v-350h-384v350l-158 350h700z" />
<glyph unicode="z" horiz-adv-x="795" d="M747 700l-192 -350h192v-350h-700l192 350h-192v350h700z" />
<glyph unicode="&#xaa;" horiz-adv-x="801" d="M785 0h-769l384 700z" />
<glyph unicode="&#xad;" d="M750 472v-244h-700v244h700z" />
<glyph unicode="&#xb2;" horiz-adv-x="766" d="M479 700q106 0 181 -75t75 -181q0 -87 -53 -155.5t-135 -90.5v-198h-249h-263v256q0 87 53 155.5t135 90.5v198h256z" />
<glyph unicode="&#xb3;" horiz-adv-x="709" d="M667 477q0 -69 -39 -127q39 -58 39 -127q0 -92 -65 -157t-157 -66h-1h-1h-393v196h113v35h-113v238h113v35h-113v196h394q92 0 157.5 -65.5t65.5 -157.5z" />
<glyph unicode="&#xb9;" horiz-adv-x="549" d="M499 700v-700h-383v350h-88l88 350h383z" />
<glyph unicode="&#xba;" horiz-adv-x="769" d="M384 718q152 0 260 -108t108 -260t-108 -260t-260 -108t-260 108t-108 260t108 260t260 108z" />
<glyph unicode="&#x152;" horiz-adv-x="1544" d="M1494 305h-127v-35h127v-270h-675v700h675v-270h-127v-35h127v-90zM384 718q152 0 260 -108t108 -260t-108 -260t-260 -108t-260 108t-108 260t108 260t260 108z" />
<glyph unicode="&#x153;" horiz-adv-x="1544" d="M1494 305h-127v-35h127v-270h-675v700h675v-270h-127v-35h127v-90zM384 718q152 0 260 -108t108 -260t-108 -260t-260 -108t-260 108t-108 260t108 260t260 108z" />
<glyph unicode="&#x2000;" horiz-adv-x="359" />
<glyph unicode="&#x2001;" horiz-adv-x="718" />
<glyph unicode="&#x2002;" horiz-adv-x="359" />
<glyph unicode="&#x2003;" horiz-adv-x="718" />
<glyph unicode="&#x2004;" horiz-adv-x="239" />
<glyph unicode="&#x2005;" horiz-adv-x="179" />
<glyph unicode="&#x2006;" horiz-adv-x="119" />
<glyph unicode="&#x2007;" horiz-adv-x="119" />
<glyph unicode="&#x2008;" horiz-adv-x="89" />
<glyph unicode="&#x2009;" horiz-adv-x="143" />
<glyph unicode="&#x200a;" horiz-adv-x="39" />
<glyph unicode="&#x2010;" d="M750 472v-244h-700v244h700z" />
<glyph unicode="&#x2011;" d="M750 472v-244h-700v244h700z" />
<glyph unicode="&#x2013;" horiz-adv-x="500" d="M50 228v244h400v-244h-400z" />
<glyph unicode="&#x2014;" horiz-adv-x="1000" d="M50 228v244h900v-244h-900z" />
<glyph unicode="&#x2018;" horiz-adv-x="321" d="M151 700q40 0 71 -29q29 -31 29 -71v-182q-153 93 -171 111q-30 30 -30 71q0 39 30 71q29 29 71 29z" />
<glyph unicode="&#x2019;" horiz-adv-x="301" d="M151 701q40 0 71 -29q29 -29 29 -71t-29 -71q-8 -8 -51 -36l-82 -52l-39 -23v182q0 41 30 71q29 29 71 29z" />
<glyph unicode="&#x201c;" horiz-adv-x="553" d="M391 700q40 0 71 -29q29 -31 29 -71v-182q-153 93 -171 111q-30 30 -30 71q0 39 30 71q29 29 71 29zM151 700q40 0 71 -29q29 -31 29 -71v-182q-153 93 -171 111q-30 30 -30 71q0 39 30 71q29 29 71 29z" />
<glyph unicode="&#x201d;" horiz-adv-x="542" d="M392 701q40 0 71 -29q29 -29 29 -71t-29 -71q-8 -8 -51 -36l-82 -52l-39 -23v182q0 41 30 71q29 29 71 29zM151 701q40 0 71 -29q29 -29 29 -71t-29 -71q-8 -8 -51 -36l-82 -52l-39 -23v182q0 41 30 71q29 29 71 29z" />
<glyph unicode="&#x201e;" horiz-adv-x="833" />
<glyph unicode="&#x2022;" horiz-adv-x="392" d="M196 496q61 0 103.5 -42.5t42.5 -103.5t-42.5 -103.5t-103.5 -42.5t-103.5 42.5t-42.5 103.5t42.5 103.5t103.5 42.5z" />
<glyph unicode="&#x2026;" horiz-adv-x="900" d="M750 200q41 0 70.5 -29.5t29.5 -70.5t-29.5 -70.5t-70.5 -29.5t-70.5 29.5t-29.5 70.5t29.5 70.5t70.5 29.5zM450 200q41 0 70.5 -29.5t29.5 -70.5t-29.5 -70.5t-70.5 -29.5t-70.5 29.5t-29.5 70.5t29.5 70.5t70.5 29.5zM150 200q41 0 70.5 -29.5t29.5 -70.5t-29.5 -70.5 t-70.5 -29.5t-70.5 29.5t-29.5 70.5t29.5 70.5t70.5 29.5z" />
<glyph unicode="&#x202f;" horiz-adv-x="143" />
<glyph unicode="&#x205f;" horiz-adv-x="179" />
<glyph unicode="&#x2122;" horiz-adv-x="1583" d="M1533 700v-700h-700v700l350 -192zM742 700v-350h-91v-350h-518v350h-91v350h700z" />
</font>
</defs>
</svg>
