<?xml version="1.0" standalone="no"?>
<!DOCTYPE svg PUBLIC "-//W3C//DTD SVG 1.1//EN" "http://www.w3.org/Graphics/SVG/1.1/DTD/svg11.dtd" >
<svg xmlns="http://www.w3.org/2000/svg">
<metadata>
This is a custom SVG webfont generated by Font Squirrel.
Designer    : Chris Morast
Foundry     : Woo
Foundry URL : www.astrostudios.com
</metadata>
<defs>
<font id="webfontSpbed9qH" horiz-adv-x="800" >
<font-face units-per-em="1000" ascent="800" descent="-200" />
<missing-glyph horiz-adv-x="504" />
<glyph unicode=" "  horiz-adv-x="504" />
<glyph unicode="&#x09;" horiz-adv-x="504" />
<glyph unicode="&#xa0;" horiz-adv-x="504" />
<glyph unicode="!" horiz-adv-x="344" d="M172 205q-34 0 -59 -24.5t-25 -59.5t25 -59.5t59 -24.5t59 24.5t25 59.5t-25 59.5t-59 24.5zM172 242q50 0 85.5 -35.5t35.5 -85.5t-35.5 -85.5t-85.5 -35.5t-85.5 35.5t-35.5 85.5t35.5 85.5t85.5 35.5zM258 331v333h-172v-333h172zM294 295h-244v405h244v-405z" />
<glyph unicode="&#x22;" horiz-adv-x="542" d="M151 664q-25 0 -45 -18q-18 -18 -18 -45v-115q16 11 20 13q77 48 87 58q18 18 18 44q0 27 -18 45q-20 18 -44 18zM151 701q40 0 71 -29q29 -29 29 -71t-29 -71q-8 -8 -51 -36l-82 -52l-39 -23v182q0 41 30 71q29 29 71 29zM392 664q-25 0 -45 -18q-18 -18 -18 -45v-115 l20 13q77 48 87 58q18 18 18 44q0 27 -18 45q-20 18 -44 18zM392 701q40 0 71 -29q29 -29 29 -71t-29 -71q-8 -8 -51 -36l-82 -52l-39 -23v182q0 41 30 71q29 29 71 29z" />
<glyph unicode="'" horiz-adv-x="301" d="M151 664q-25 0 -45 -18q-18 -18 -18 -45v-115q16 11 20 13q77 48 87 58q18 18 18 44q0 27 -18 45q-20 18 -44 18zM151 701q40 0 71 -29q29 -29 29 -71t-29 -71q-8 -8 -51 -36l-82 -52l-39 -23v182q0 41 30 71q29 29 71 29z" />
<glyph unicode="," horiz-adv-x="306" d="M151 163q-25 0 -45 -18q-18 -18 -18 -45v-115q16 11 20 13q77 48 87 58q18 18 18 44q0 27 -18 45q-20 18 -44 18zM151 200q40 0 71 -29q29 -29 29 -71t-29 -71q-8 -8 -51 -35l-82 -52l-39 -24v182q0 41 30 71q29 29 71 29z" />
<glyph unicode="-" d="M714 436h-628v-172h628v172zM750 472v-244h-700v244h700z" />
<glyph unicode="." horiz-adv-x="300" d="M150 163q-26 0 -44.5 -18.5t-18.5 -44.5t18.5 -44.5t44.5 -18.5t44.5 18.5t18.5 44.5t-18.5 44.5t-44.5 18.5zM150 200q41 0 70.5 -29.5t29.5 -70.5t-29.5 -70.5t-70.5 -29.5t-70.5 29.5t-29.5 70.5t29.5 70.5t70.5 29.5z" />
<glyph unicode="/" horiz-adv-x="561" d="M234 700h306l-213 -700h-306zM301 36l191 628h-231l-192 -628h232z" />
<glyph unicode="0" horiz-adv-x="769" d="M384 718q152 0 260 -108t108 -260t-108 -260t-260 -108t-260 108t-108 260t108 260t260 108zM714 350q0 136 -97 233t-233 97t-233 -97t-97 -233t97 -233t233 -97t233 97t97 233z" />
<glyph unicode="1" horiz-adv-x="549" d="M464 664h-321l-69 -278h77v-350h313v628zM499 700v-700h-383v350h-88l88 350h383z" />
<glyph unicode="2" horiz-adv-x="766" d="M479 664h-220v-189l-26 -7q-72 -19 -117 -78.5t-45 -133.5v-1v-219h227h213v162v27l26 7q72 19 117 78.5t45 133.5q0 92 -64.5 156t-155.5 64zM479 700q106 0 181 -75t75 -181q0 -87 -53 -155.5t-135 -90.5v-198h-249h-263v256q0 87 53 155.5t135 90.5v198h256z" />
<glyph unicode="3" horiz-adv-x="709" d="M667 477q0 -71 -39 -127q39 -56 39 -127q0 -92 -64.5 -157t-156.5 -66h-2h-1h-393v700h394q92 0 157.5 -65.5t65.5 -157.5zM632 223q0 58 -34 107l-14 20l14 20q34 49 34 107q0 76 -55 133q-56 54 -133 54h-358v-160h112v-35h-112v-238h112v-35h-112v-160h357h1h1 q77 0 132 55t55 132z" />
<glyph unicode="4" horiz-adv-x="700" d="M615 664h-395l-147 -483h157v-145h385v628zM650 700v-700h-456v145h-169l169 555h456z" />
<glyph unicode="5" horiz-adv-x="766" d="M511 664h-440v-219v-1q0 -74 45 -133.5t117 -78.5l26 -7v-189h220q91 0 155.5 64t64.5 156q0 74 -45 133.5t-117 78.5l-26 7v189zM547 700v-198q82 -22 135 -90.5t53 -155.5q0 -106 -75 -181t-181 -75h-256v198q-82 22 -135 90.5t-53 155.5v256h512z" />
<glyph unicode="6" horiz-adv-x="699" d="M537 664h-268l-164 -249q-38 -61 -38 -132q0 -103 72 -175t175 -72h67q103 0 175 72t72 175q0 73 -40 135q-40 60 -105 90l-38 17zM250 700h353l-105 -160q75 -33 120.5 -103t45.5 -154q0 -117 -83 -200t-200 -83h-67q-117 0 -200 83t-83 200q0 82 44 151z" />
<glyph unicode="7" horiz-adv-x="751" d="M676 664h-592v-224h136l-124 -404h388zM724 700l-213 -700h-463l124 404h-124v296h676z" />
<glyph unicode="8" horiz-adv-x="711" d="M355 664q-49 0 -72 -9q-38 -16 -59 -49q-24 -33 -24 -74v-1v-20l-16 -10q-55 -36 -85 -90q-32 -58 -32 -123q0 -78 44 -142q43 -63 113 -92q46 -18 131 -18t132 18q69 29 112 92q44 64 44 142q0 65 -32 123q-30 54 -85 90l-16 10v20q0 41 -23 75t-60 49q-23 9 -72 9z M355 700q54 0 85 -13q47 -19 76 -61.5t29 -94.5q62 -40 98 -104t36 -139q0 -89 -49.5 -161t-129.5 -105q-52 -22 -145 -22t-145 22q-80 33 -129.5 105t-49.5 161q0 75 36 139t98 104q0 52 29 94.5t76 61.5q31 13 85 13z" />
<glyph unicode="9" horiz-adv-x="700" d="M385 664h-67q-103 0 -175 -72t-72 -175q0 -73 40 -135q40 -60 105 -90l38 -17l-92 -139h268l164 249q38 61 38 132q0 103 -72 175t-175 72zM385 700q117 0 200 -83t83 -200q0 -82 -44 -151l-175 -266h-353l105 160q-75 33 -120.5 103t-45.5 154q0 117 83 200t200 83h67z " />
<glyph unicode=":" horiz-adv-x="301" d="M151 434q-26 0 -44.5 -18.5t-18.5 -44.5t18.5 -44.5t44.5 -18.5t44 18.5t18 44.5t-18.5 44.5t-43.5 18.5zM151 471q41 0 70.5 -29.5t29.5 -70.5q0 -42 -29.5 -71t-70.5 -29q-42 0 -71.5 29t-29.5 71q0 41 29.5 70.5t71.5 29.5zM151 163q-26 0 -44.5 -18.5t-18.5 -44.5 t18.5 -44.5t44.5 -18.5t44 18.5t18 44.5t-18.5 44.5t-43.5 18.5zM151 200q41 0 70.5 -29.5t29.5 -70.5q0 -42 -29.5 -71t-70.5 -29q-42 0 -71.5 29t-29.5 71q0 41 29.5 70.5t71.5 29.5z" />
<glyph unicode=";" horiz-adv-x="301" d="M151 163q-25 0 -45 -18q-18 -18 -18 -45v-115q16 11 20 13q77 48 87 58q18 18 18 44q0 27 -18 45q-20 18 -44 18zM151 200q40 0 71 -29q29 -29 29 -71t-29 -71q-8 -8 -51 -35l-82 -52l-39 -24v182q0 41 30 71q29 29 71 29zM151 434q-26 0 -44.5 -18.5t-18.5 -44.5 t18.5 -44.5t44.5 -18.5t44 18.5t18 44.5t-18.5 44.5t-43.5 18.5zM151 471q41 0 70.5 -29.5t29.5 -70.5q0 -42 -29.5 -71t-70.5 -29q-42 0 -71.5 29t-29.5 71q0 41 29.5 70.5t71.5 29.5z" />
<glyph unicode="A" horiz-adv-x="801" d="M400 626l-324 -590h649zM785 0h-769l384 700z" />
<glyph unicode="B" horiz-adv-x="739" d="M86 664v-628h297q85 0 131 18q70 29 113 92q44 64 44 142q0 65 -32 123q-30 55 -85 89l-16 11v20q0 42 -24 75q-22 34 -59 48q-21 10 -72 10h-297zM50 700h333q53 0 85 -13q47 -19 76 -61.5t29 -94.5q62 -40 98 -104t36 -139q0 -89 -49.5 -161.5t-129.5 -105.5 q-53 -21 -145 -21h-333v700z" />
<glyph unicode="C" horiz-adv-x="784" d="M384 700h350v-700h-350q-145 0 -247.5 102.5t-102.5 247.5t102.5 247.5t247.5 102.5zM384 36h314v296h-126v36h126v296h-314q-132 0 -222 -92q-92 -90 -92 -222t92 -222q90 -92 222 -92z" />
<glyph unicode="D" horiz-adv-x="785" d="M400 664h-314v-628h314q132 0 222 92q92 90 92 222t-92 222q-90 92 -222 92zM400 700q145 0 247.5 -102.5t102.5 -247.5t-102.5 -247.5t-247.5 -102.5h-350v700h350z" />
<glyph unicode="E" horiz-adv-x="775" d="M724 700l1 -700h-675v700h674zM689 36v234h-126v35h126v90h-126v35h126v234h-603v-628h603z" />
<glyph unicode="F" horiz-adv-x="769" d="M724 700l1 -535h-127v-165h-548v700h674zM689 200v132h-126v36h126v296h-603v-628h477v164h126z" />
<glyph unicode="G" horiz-adv-x="784" d="M386 700h350v-700h-350q-145 0 -247.5 102.5t-102.5 247.5t102.5 247.5t247.5 102.5zM386 36h314v296h-90v-83h-36v119h126v296h-314q-132 0 -222 -92q-92 -90 -92 -222t92 -222q90 -92 222 -92z" />
<glyph unicode="H" horiz-adv-x="774" d="M723 700v-700h-674v700h674zM688 36l-1 628h-283v-126h-36v126h-284v-628h284v126h36v-126h284z" />
<glyph unicode="I" horiz-adv-x="619" d="M533 664h-447v-628h447v628zM569 700v-700h-519v700h519z" />
<glyph unicode="J" horiz-adv-x="765" d="M687 664h-447v-350h-179q12 -108 90 -186q90 -92 222 -92t222 92q92 90 92 222v314zM723 700v-350q0 -145 -102.5 -247.5t-247.5 -102.5t-247.5 102.5t-102.5 247.5h181v350h519z" />
<glyph unicode="K" horiz-adv-x="794" d="M690 664h-604v-628h604l-173 314zM750 700l-192 -350l192 -350h-700v700h700z" />
<glyph unicode="L" horiz-adv-x="784" d="M533 664h-447v-628h628v278h-181v350zM569 700v-350h181v-350h-700v700h519z" />
<glyph unicode="M" d="M714 640l-314 -173l-314 173v-604h628v604zM750 700v-700h-700v700l350 -192z" />
<glyph unicode="N" d="M714 664h-278v-216l-350 192v-604h628v628zM750 700v-700h-700v700l350 -192v192h350z" />
<glyph unicode="O" horiz-adv-x="769" d="M384 718q152 0 260 -108t108 -260t-108 -260t-260 -108t-260 108t-108 260t108 260t260 108zM714 350q0 136 -97 233t-233 97t-233 -97t-97 -233t97 -233t233 -97t233 97t97 233z" />
<glyph unicode="P" horiz-adv-x="751" d="M437 664h-351v-628h433v124v23l20 10q66 29 104 89q41 61 41 135q0 102 -73 175q-70 72 -174 72zM437 700q117 0 199.5 -83t82.5 -200q0 -84 -45 -153.5t-120 -103.5v-160h-504v700h387z" />
<glyph unicode="Q" horiz-adv-x="769" d="M386 718q152 0 260 -108t108 -260t-108 -260t-260 -108t-260 108t-108 260t108 260t260 108zM386 20q126 0 221 84l-91 91l25 25l91 -90q84 94 84 220q0 136 -97 233t-233 97t-233 -97t-97 -233t97 -233t233 -97z" />
<glyph unicode="R" horiz-adv-x="746" d="M428 664h-342v-628h498l-92 139l38 17q64 31 104 90q41 61 41 135q0 102 -73 175q-70 72 -174 72zM428 700q117 0 199.5 -83t82.5 -200q0 -84 -45.5 -154t-120.5 -103l106 -160h-600v700h378z" />
<glyph unicode="S" horiz-adv-x="700" d="M377 683q-127 0 -217 -90q-90 -88 -90 -216q0 -127 90 -217l24 -25l-52 -51q82 -67 191 -67q127 0 217 90t90 216q0 127 -90 217l-24 25l52 51q-82 67 -191 67zM377 718q139 0 241 -100l-53 -53q100 -101 100 -242t-100 -241q-102 -100 -242 -100q-139 0 -241 100l53 53 q-100 101 -100 242t100 241q102 100 242 100z" />
<glyph unicode="T" horiz-adv-x="783" d="M706 664h-628v-278h90v-350h448v350h90v278zM742 700v-350h-91v-350h-518v350h-91v350h700z" />
<glyph unicode="U" horiz-adv-x="784" d="M43 350v350h700v-350q0 -145 -102.5 -247.5t-247.5 -102.5t-247.5 102.5t-102.5 247.5zM707 350v314h-296v-126h-36v126h-296v-314q0 -132 92 -222q90 -92 222 -92t222 92q92 90 92 222z" />
<glyph unicode="V" horiz-adv-x="801" d="M725 664h-649l324 -590zM785 700l-385 -700l-384 700h769z" />
<glyph unicode="W" d="M714 664h-628v-604l314 173l314 -173v604zM750 700v-700l-350 192l-350 -192v700h700z" />
<glyph unicode="X" horiz-adv-x="789" d="M689 664h-590l142 -314l-142 -314h590l-142 314zM744 700l-158 -350l158 -350h-700l158 350l-158 350h700z" />
<glyph unicode="Y" horiz-adv-x="759" d="M674 664h-590l139 -306v-322h312v322zM729 700l-158 -350v-350h-384v350l-158 350h700z" />
<glyph unicode="Z" horiz-adv-x="795" d="M687 664h-604v-278h217l-193 -350h604v278h-216zM747 700l-192 -350h192v-350h-700l192 350h-192v350h700z" />
<glyph unicode="a" horiz-adv-x="801" d="M400 626l-324 -590h649zM785 0h-769l384 700z" />
<glyph unicode="b" horiz-adv-x="739" d="M86 664v-628h297q85 0 131 18q70 29 113 92q44 64 44 142q0 65 -32 123q-30 55 -85 89l-16 11v20q0 42 -24 75q-22 34 -59 48q-21 10 -72 10h-297zM50 700h333q53 0 85 -13q47 -19 76 -61.5t29 -94.5q62 -40 98 -104t36 -139q0 -89 -49.5 -161.5t-129.5 -105.5 q-53 -21 -145 -21h-333v700z" />
<glyph unicode="c" horiz-adv-x="784" d="M384 700h350v-700h-350q-145 0 -247.5 102.5t-102.5 247.5t102.5 247.5t247.5 102.5zM384 36h314v296h-126v36h126v296h-314q-132 0 -222 -92q-92 -90 -92 -222t92 -222q90 -92 222 -92z" />
<glyph unicode="d" horiz-adv-x="785" d="M400 664h-314v-628h314q132 0 222 92q92 90 92 222t-92 222q-90 92 -222 92zM400 700q145 0 247.5 -102.5t102.5 -247.5t-102.5 -247.5t-247.5 -102.5h-350v700h350z" />
<glyph unicode="e" horiz-adv-x="775" d="M724 700l1 -700h-675v700h674zM689 36v234h-126v35h126v90h-126v35h126v234h-603v-628h603z" />
<glyph unicode="f" horiz-adv-x="775" d="M724 700l1 -535h-127v-165h-548v700h674zM689 200v132h-126v36h126v296h-603v-628h477v164h126z" />
<glyph unicode="g" horiz-adv-x="784" d="M384 700h350v-700h-350q-145 0 -247.5 102.5t-102.5 247.5t102.5 247.5t247.5 102.5zM384 36h314v296h-95v-53h-35v89h130v296h-314q-132 0 -222 -92q-92 -90 -92 -222t92 -222q90 -92 222 -92z" />
<glyph unicode="h" horiz-adv-x="774" d="M724 700v-700h-674v700h674zM689 36v628h-284v-91h-36v91h-283v-628h283v91h36v-91h284z" />
<glyph unicode="i" horiz-adv-x="619" d="M533 664h-447v-628h447v628zM569 700v-700h-519v700h519z" />
<glyph unicode="j" horiz-adv-x="765" d="M687 664h-447v-350h-179q12 -108 90 -186q90 -92 222 -92t222 92q92 90 92 222v314zM723 700v-350q0 -145 -102.5 -247.5t-247.5 -102.5t-247.5 102.5t-102.5 247.5h181v350h519z" />
<glyph unicode="k" horiz-adv-x="794" d="M690 664h-604v-628h604l-173 314zM750 700l-192 -350l192 -350h-700v700h700z" />
<glyph unicode="l" horiz-adv-x="784" d="M533 664h-447v-628h628v278h-181v350zM569 700v-350h181v-350h-700v700h519z" />
<glyph unicode="m" d="M714 640l-314 -173l-314 173v-604h628v604zM750 700v-700h-700v700l350 -192z" />
<glyph unicode="n" d="M714 664h-278v-216l-350 192v-604h628v628zM750 700v-700h-700v700l350 -192v192h350z" />
<glyph unicode="o" horiz-adv-x="769" d="M384 718q152 0 260 -108t108 -260t-108 -260t-260 -108t-260 108t-108 260t108 260t260 108zM714 350q0 136 -97 233t-233 97t-233 -97t-97 -233t97 -233t233 -97t233 97t97 233z" />
<glyph unicode="p" horiz-adv-x="751" d="M437 664h-351v-628h433v124v23l20 10q66 29 104 89q41 61 41 135q0 102 -73 175q-70 72 -174 72zM437 700q117 0 199.5 -83t82.5 -200q0 -84 -45 -153.5t-120 -103.5v-160h-504v700h387z" />
<glyph unicode="q" horiz-adv-x="769" d="M386 718q152 0 260 -108t108 -260t-108 -260t-260 -108t-260 108t-108 260t108 260t260 108zM386 20q126 0 221 84l-91 91l25 25l91 -90q84 94 84 220q0 136 -97 233t-233 97t-233 -97t-97 -233t97 -233t233 -97z" />
<glyph unicode="r" horiz-adv-x="746" d="M428 664h-342v-628h498l-92 139l38 17q64 31 104 90q41 61 41 135q0 102 -73 175q-70 72 -174 72zM428 700q117 0 199.5 -83t82.5 -200q0 -84 -45.5 -154t-120.5 -103l106 -160h-600v700h378z" />
<glyph unicode="s" horiz-adv-x="762" d="M507 664h-220q-91 0 -155.5 -64t-64.5 -156q0 -74 45 -133.5t117 -78.5l26 -7v-189h220q91 0 155.5 64t64.5 156q0 74 -45 133.5t-117 78.5l-26 7v189zM543 700v-198q82 -22 135 -90.5t53 -155.5q0 -106 -75 -181t-181 -75h-256v198q-82 22 -135 90.5t-53 155.5 q0 106 75 181t181 75h256z" />
<glyph unicode="t" horiz-adv-x="783" d="M706 664h-628v-278h90v-350h448v350h90v278zM742 700v-350h-91v-350h-518v350h-91v350h700z" />
<glyph unicode="u" horiz-adv-x="784" d="M43 350v350h700v-350q0 -145 -102.5 -247.5t-247.5 -102.5t-247.5 102.5t-102.5 247.5zM707 350v314h-296v-126h-36v126h-296v-314q0 -132 92 -222q90 -92 222 -92t222 92q92 90 92 222z" />
<glyph unicode="v" horiz-adv-x="801" d="M725 664h-649l324 -590zM785 700l-385 -700l-384 700h769z" />
<glyph unicode="w" d="M714 664h-628v-604l314 173l314 -173v604zM750 700v-700l-350 192l-350 -192v700h700z" />
<glyph unicode="x" horiz-adv-x="789" d="M689 664h-590l142 -314l-142 -314h590l-142 314zM744 700l-158 -350l158 -350h-700l158 350l-158 350h700z" />
<glyph unicode="y" horiz-adv-x="759" d="M674 664h-590l139 -306v-322h312v322zM729 700l-158 -350v-350h-384v350l-158 350h700z" />
<glyph unicode="z" horiz-adv-x="795" d="M687 664h-604v-278h217l-193 -350h604v278h-216zM747 700l-192 -350h192v-350h-700l192 350h-192v350h700z" />
<glyph unicode="&#xaa;" horiz-adv-x="801" d="M400 626l-324 -590h649zM785 0h-769l384 700z" />
<glyph unicode="&#xad;" d="M714 436h-628v-172h628v172zM750 472v-244h-700v244h700z" />
<glyph unicode="&#xb2;" horiz-adv-x="766" d="M479 664h-220v-189l-26 -7q-72 -19 -117 -78.5t-45 -133.5v-1v-219h227h213v162v27l26 7q72 19 117 78.5t45 133.5q0 92 -64.5 156t-155.5 64zM479 700q106 0 181 -75t75 -181q0 -87 -53 -155.5t-135 -90.5v-198h-249h-263v256q0 87 53 155.5t135 90.5v198h256z" />
<glyph unicode="&#xb3;" horiz-adv-x="709" d="M667 477q0 -71 -39 -127q39 -56 39 -127q0 -92 -64.5 -157t-156.5 -66h-2h-1h-393v700h394q92 0 157.5 -65.5t65.5 -157.5zM632 223q0 58 -34 107l-14 20l14 20q34 49 34 107q0 76 -55 133q-56 54 -133 54h-358v-160h112v-35h-112v-238h112v-35h-112v-160h357h1h1 q77 0 132 55t55 132z" />
<glyph unicode="&#xb9;" horiz-adv-x="549" d="M464 664h-321l-69 -278h77v-350h313v628zM499 700v-700h-383v350h-88l88 350h383z" />
<glyph unicode="&#xba;" horiz-adv-x="769" d="M384 718q152 0 260 -108t108 -260t-108 -260t-260 -108t-260 108t-108 260t108 260t260 108zM714 350q0 136 -97 233t-233 97t-233 -97t-97 -233t97 -233t233 -97t233 97t97 233z" />
<glyph unicode="&#x152;" horiz-adv-x="1544" d="M1493 700l1 -700h-675v700h674zM1458 36v234h-126v35h126v90h-126v35h126v234h-603v-628h603zM384 718q152 0 260 -108t108 -260t-108 -260t-260 -108t-260 108t-108 260t108 260t260 108zM714 350q0 136 -97 233t-233 97t-233 -97t-97 -233t97 -233t233 -97t233 97 t97 233z" />
<glyph unicode="&#x153;" horiz-adv-x="1544" d="M1493 700l1 -700h-675v700h674zM1458 36v234h-126v35h126v90h-126v35h126v234h-603v-628h603zM384 718q152 0 260 -108t108 -260t-108 -260t-260 -108t-260 108t-108 260t108 260t260 108zM714 350q0 136 -97 233t-233 97t-233 -97t-97 -233t97 -233t233 -97t233 97 t97 233z" />
<glyph unicode="&#x2000;" horiz-adv-x="359" />
<glyph unicode="&#x2001;" horiz-adv-x="718" />
<glyph unicode="&#x2002;" horiz-adv-x="359" />
<glyph unicode="&#x2003;" horiz-adv-x="718" />
<glyph unicode="&#x2004;" horiz-adv-x="239" />
<glyph unicode="&#x2005;" horiz-adv-x="179" />
<glyph unicode="&#x2006;" horiz-adv-x="119" />
<glyph unicode="&#x2007;" horiz-adv-x="119" />
<glyph unicode="&#x2008;" horiz-adv-x="89" />
<glyph unicode="&#x2009;" horiz-adv-x="143" />
<glyph unicode="&#x200a;" horiz-adv-x="39" />
<glyph unicode="&#x2010;" d="M714 436h-628v-172h628v172zM750 472v-244h-700v244h700z" />
<glyph unicode="&#x2011;" d="M714 436h-628v-172h628v172zM750 472v-244h-700v244h700z" />
<glyph unicode="&#x2013;" horiz-adv-x="500" d="M50 228v244h400v-244h-400z" />
<glyph unicode="&#x2014;" horiz-adv-x="1000" d="M50 228v244h900v-244h-900z" />
<glyph unicode="&#x2018;" horiz-adv-x="321" d="M195 644q-19 19 -44 19q-26 0 -45 -19q-18 -18 -18 -44q0 -28 18 -44q8 -8 88 -59q3 -2 9.5 -6t9.5 -6v115q0 26 -18 44zM151 700q40 0 71 -29q29 -31 29 -71v-182q-153 93 -171 111q-30 30 -30 71q0 39 30 71q29 29 71 29z" />
<glyph unicode="&#x2019;" horiz-adv-x="301" d="M151 664q-25 0 -45 -18q-18 -18 -18 -45v-115q16 11 20 13q77 48 87 58q18 18 18 44q0 27 -18 45q-20 18 -44 18zM151 701q40 0 71 -29q29 -29 29 -71t-29 -71q-8 -8 -51 -36l-82 -52l-39 -23v182q0 41 30 71q29 29 71 29z" />
<glyph unicode="&#x201a;" horiz-adv-x="306" d="M151 163q-25 0 -45 -18q-18 -18 -18 -45v-115q16 11 20 13q77 48 87 58q18 18 18 44q0 27 -18 45q-20 18 -44 18zM151 200q40 0 71 -29q29 -29 29 -71t-29 -71q-8 -8 -51 -35l-82 -52l-39 -24v182q0 41 30 71q29 29 71 29z" />
<glyph unicode="&#x201c;" horiz-adv-x="553" d="M435 644q-19 19 -44 19q-26 0 -45 -19q-18 -18 -18 -44q0 -28 18 -44q8 -8 88 -59q3 -2 9.5 -6t9.5 -6v115q0 26 -18 44zM391 700q40 0 71 -29q29 -31 29 -71v-182q-153 93 -171 111q-30 30 -30 71q0 39 30 71q29 29 71 29zM195 644q-19 19 -44 19q-26 0 -45 -19 q-18 -18 -18 -44q0 -28 18 -44q8 -8 88 -59q3 -2 9.5 -6t9.5 -6v115q0 26 -18 44zM151 700q40 0 71 -29q29 -31 29 -71v-182q-153 93 -171 111q-30 30 -30 71q0 39 30 71q29 29 71 29z" />
<glyph unicode="&#x201d;" horiz-adv-x="542" d="M151 664q-25 0 -45 -18q-18 -18 -18 -45v-115q16 11 20 13q77 48 87 58q18 18 18 44q0 27 -18 45q-20 18 -44 18zM151 701q40 0 71 -29q29 -29 29 -71t-29 -71q-8 -8 -51 -36l-82 -52l-39 -23v182q0 41 30 71q29 29 71 29zM392 664q-25 0 -45 -18q-18 -18 -18 -45v-115 l20 13q77 48 87 58q18 18 18 44q0 27 -18 45q-20 18 -44 18zM392 701q40 0 71 -29q29 -29 29 -71t-29 -71q-8 -8 -51 -36l-82 -52l-39 -23v182q0 41 30 71q29 29 71 29z" />
<glyph unicode="&#x201e;" horiz-adv-x="833" />
<glyph unicode="&#x2022;" horiz-adv-x="392" d="M196 459q-43 0 -77 -32q-32 -34 -32 -77t32 -77q34 -32 77 -32t77 32q32 34 32 77t-32 77q-34 32 -77 32zM196 496q61 0 103.5 -42.5t42.5 -103.5t-42.5 -103.5t-103.5 -42.5t-103.5 42.5t-42.5 103.5t42.5 103.5t103.5 42.5z" />
<glyph unicode="&#x2026;" horiz-adv-x="900" d="M750 163q-26 0 -44.5 -18.5t-18.5 -44.5t18.5 -44.5t44.5 -18.5t44.5 18.5t18.5 44.5t-18.5 44.5t-44.5 18.5zM750 200q41 0 70.5 -29.5t29.5 -70.5t-29.5 -70.5t-70.5 -29.5t-70.5 29.5t-29.5 70.5t29.5 70.5t70.5 29.5zM450 163q-26 0 -44.5 -18.5t-18.5 -44.5 t18.5 -44.5t44.5 -18.5t44.5 18.5t18.5 44.5t-18.5 44.5t-44.5 18.5zM450 200q41 0 70.5 -29.5t29.5 -70.5t-29.5 -70.5t-70.5 -29.5t-70.5 29.5t-29.5 70.5t29.5 70.5t70.5 29.5zM150 163q-26 0 -44.5 -18.5t-18.5 -44.5t18.5 -44.5t44.5 -18.5t44.5 18.5t18.5 44.5 t-18.5 44.5t-44.5 18.5zM150 200q41 0 70.5 -29.5t29.5 -70.5t-29.5 -70.5t-70.5 -29.5t-70.5 29.5t-29.5 70.5t29.5 70.5t70.5 29.5z" />
<glyph unicode="&#x202f;" horiz-adv-x="143" />
<glyph unicode="&#x205f;" horiz-adv-x="179" />
<glyph unicode="&#x2122;" horiz-adv-x="1583" d="M1497 640l-314 -173l-314 173v-604h628v604zM1533 700v-700h-700v700l350 -192zM706 664h-628v-278h90v-350h448v350h90v278zM742 700v-350h-91v-350h-518v350h-91v350h700z" />
</font>
</defs>
</svg>
